<svg width="100" height="100" viewBox="0 0 100 100" fill="none" xmlns="http://www.w3.org/2000/svg">
<path d="M8.33325 50.0002C8.33212 42.1757 10.5346 34.509 14.6883 27.8781C18.8421 21.2472 24.7794 15.9201 31.8202 12.5068C38.8609 9.09358 46.7206 7.73214 54.4993 8.57842C62.2779 9.4247 69.6609 12.4445 75.803 17.292H69.4649C68.9159 17.2973 68.3911 17.5191 68.0048 17.9092C67.6184 18.2994 67.4017 18.8262 67.4017 19.3753C67.4017 19.9243 67.6184 20.4512 68.0048 20.8413C68.3911 21.2314 68.9159 21.4533 69.4649 21.4586H81.2498C81.8024 21.4586 82.3323 21.2391 82.723 20.8484C83.1137 20.4577 83.3332 19.9277 83.3332 19.3752V7.58983C83.3359 7.31455 83.284 7.04147 83.1805 6.78637C83.077 6.53128 82.924 6.29922 82.7302 6.10362C82.5365 5.90802 82.306 5.75275 82.0519 5.64678C81.7978 5.54082 81.5252 5.48626 81.2499 5.48626C80.9746 5.48626 80.7021 5.54082 80.448 5.64678C80.1939 5.75275 79.9634 5.90802 79.7696 6.10362C79.5759 6.29922 79.4229 6.53128 79.3194 6.78637C79.2159 7.04147 79.164 7.31455 79.1666 7.58983V14.6445C70.0824 7.15063 58.4621 3.44096 46.716 4.28493C34.9699 5.12889 23.9994 10.4617 16.0798 19.1773C8.16015 27.893 3.89916 39.3226 4.18058 51.0956C4.462 62.8686 9.26423 74.0815 17.5913 82.4088C17.7839 82.6059 18.0137 82.7628 18.2674 82.8705C18.5211 82.9781 18.7936 83.0344 19.0692 83.036C19.3448 83.0376 19.6179 82.9845 19.8728 82.8797C20.1278 82.775 20.3594 82.6207 20.5542 82.4258C20.7491 82.231 20.9034 81.9994 21.0081 81.7445C21.1128 81.4895 21.1659 81.2164 21.1643 80.9408C21.1628 80.6652 21.1065 80.3927 20.9988 80.139C20.8912 79.8853 20.7343 79.6555 20.5372 79.4629C16.6559 75.6028 13.5789 71.0112 11.4841 65.9539C9.38927 60.8967 8.31834 55.4741 8.33325 50.0002Z" fill="black"/>
<path d="M31.7913 87.4905C30.6092 86.9157 29.4393 86.2758 28.3147 85.5903C27.8431 85.3024 27.2765 85.2137 26.7395 85.3436C26.2024 85.4735 25.739 85.8114 25.4511 86.283C25.1632 86.7546 25.0745 87.3212 25.2044 87.8582C25.3343 88.3952 25.6722 88.8587 26.1438 89.1465C27.3819 89.9024 28.6696 90.6053 29.9708 91.2379C30.2168 91.3575 30.484 91.4274 30.7571 91.4437C31.0302 91.46 31.3038 91.4224 31.5623 91.3329C31.8209 91.2435 32.0593 91.104 32.2639 90.9224C32.4685 90.7408 32.6354 90.5207 32.7549 90.2747C32.8745 90.0286 32.9444 89.7614 32.9607 89.4883C32.977 89.2152 32.9394 88.9416 32.8499 88.6831C32.7605 88.4245 32.621 88.1861 32.4394 87.9815C32.2578 87.7769 32.0377 87.61 31.7917 87.4905H31.7913Z" fill="black"/>
<path d="M87.5093 31.8299C87.6285 32.0761 87.7951 32.2964 87.9995 32.4783C88.204 32.6601 88.4422 32.7999 88.7006 32.8897C88.9591 32.9795 89.2327 33.0175 89.5058 33.0015C89.7789 32.9855 90.0462 32.9159 90.2925 32.7967C90.5387 32.6774 90.759 32.5108 90.9409 32.3064C91.1227 32.102 91.2625 31.8637 91.3523 31.6053C91.4421 31.3469 91.4801 31.0733 91.4641 30.8001C91.4481 30.527 91.3785 30.2597 91.2593 30.0135C90.6315 28.7164 89.9298 27.4287 89.1739 26.1853C89.0317 25.9516 88.8448 25.7481 88.624 25.5865C88.4032 25.425 88.1526 25.3085 87.8868 25.2437C87.3498 25.113 86.783 25.2009 86.3108 25.4881C85.8387 25.7753 85.5 26.2383 85.3692 26.7752C85.2385 27.3121 85.3264 27.879 85.6136 28.3512C86.3007 29.4814 86.9386 30.6519 87.5093 31.8299Z" fill="black"/>
<path d="M54.943 91.3752C53.6278 91.5315 52.2971 91.6244 50.9869 91.6561C50.4444 91.6768 49.9315 91.9086 49.5573 92.3019C49.1831 92.6952 48.9772 93.2191 48.9835 93.762C48.9899 94.3048 49.2078 94.8238 49.5911 95.2083C49.9743 95.5929 50.4925 95.8126 51.0354 95.8207C51.0516 95.8207 51.069 95.8207 51.0852 95.8198C52.5256 95.7862 53.9873 95.683 55.4319 95.5125C55.9801 95.4472 56.48 95.1669 56.8218 94.7332C57.1635 94.2996 57.3191 93.748 57.2544 93.1996C57.1897 92.6513 56.91 92.1511 56.4767 91.8088C56.0434 91.4666 55.492 91.3104 54.9436 91.3744L54.943 91.3752Z" fill="black"/>
<path d="M43.0859 91.0922C41.79 90.8756 40.4869 90.5937 39.2133 90.2523C38.6793 90.1096 38.1106 90.1848 37.6321 90.4615C37.1537 90.7381 36.8047 91.1935 36.662 91.7274C36.5193 92.2613 36.5945 92.8301 36.8711 93.3085C37.1478 93.787 37.6032 94.136 38.1371 94.2787C39.5388 94.6531 40.9732 94.9633 42.4004 95.2013C42.6702 95.2464 42.9463 95.2378 43.2128 95.1761C43.4794 95.1144 43.7311 95.0008 43.9538 94.8419C44.1764 94.6829 44.3656 94.4816 44.5104 94.2495C44.6553 94.0174 44.753 93.7591 44.798 93.4892C44.843 93.2194 44.8345 92.9433 44.7728 92.6768C44.7111 92.4102 44.5975 92.1585 44.4385 91.9358C44.2795 91.7132 44.0783 91.524 43.8462 91.3792C43.6141 91.2343 43.3558 91.1366 43.0859 91.0916V91.0922Z" fill="black"/>
<path d="M93.7877 48.9957C93.2354 48.9823 92.7004 49.1887 92.3002 49.5696C91.9 49.9505 91.6674 50.4747 91.6536 51.027C91.62 52.3444 91.5245 53.6748 91.3676 54.983C91.3024 55.5317 91.4576 56.0839 91.7992 56.5182C92.1408 56.9525 92.6409 57.2334 93.1895 57.2993C93.2726 57.3085 93.3561 57.3133 93.4397 57.3135C93.9489 57.3127 94.4402 57.1256 94.8209 56.7873C95.2015 56.4491 95.4451 55.9832 95.5057 55.4776C95.6766 54.0403 95.7825 52.5784 95.8182 51.1309C95.8252 50.8574 95.7782 50.5851 95.6799 50.3298C95.5816 50.0744 95.4339 49.8409 95.2454 49.6426C95.0568 49.4443 94.831 49.2851 94.5809 49.1741C94.3308 49.0631 94.0613 49.0025 93.7877 48.9957Z" fill="black"/>
<path d="M87.3931 72.8251C86.9359 72.5152 86.3744 72.3993 85.8318 72.5028C85.2892 72.6064 84.8099 72.9209 84.499 73.3774C83.7583 74.4669 82.9577 75.5341 82.1175 76.5481C81.9389 76.7583 81.8037 77.0018 81.72 77.2646C81.6362 77.5273 81.6055 77.8041 81.6295 78.0789C81.6536 78.3536 81.732 78.6209 81.8601 78.8651C81.9883 79.1093 82.1637 79.3256 82.3762 79.5015C82.5886 79.6774 82.8339 79.8093 83.0977 79.8897C83.3615 79.97 83.6387 79.9971 83.9131 79.9695C84.1875 79.9418 84.4537 79.86 84.6963 79.7286C84.9388 79.5973 85.1528 79.4191 85.3259 79.2044C86.2495 78.0895 87.1316 76.9165 87.9452 75.7182C88.099 75.492 88.2066 75.2377 88.2621 74.9699C88.3175 74.7021 88.3197 74.426 88.2684 74.1573C88.2171 73.8886 88.1134 73.6327 87.9632 73.4041C87.8131 73.1755 87.6193 72.9788 87.3931 72.8251Z" fill="black"/>
<path d="M90.2641 39.2513C90.6018 40.5199 90.8827 41.823 91.0993 43.125C91.18 43.6113 91.4305 44.0533 91.8064 44.3723C92.1822 44.6914 92.659 44.8668 93.152 44.8675C93.2668 44.8673 93.3815 44.8578 93.4948 44.839C93.7647 44.7943 94.0232 44.6968 94.2555 44.5521C94.4877 44.4074 94.6892 44.2184 94.8484 43.9958C95.0075 43.7732 95.1213 43.5215 95.1831 43.2549C95.245 42.9884 95.2537 42.7123 95.2088 42.4423C94.9717 41.0101 94.662 39.5752 94.2909 38.1791C94.1487 37.6451 93.8002 37.1896 93.3221 36.9126C92.844 36.6356 92.2755 36.5598 91.7416 36.702C91.2076 36.8442 90.7521 37.1927 90.475 37.6708C90.198 38.1488 90.1223 38.7174 90.2645 39.2513H90.2641Z" fill="black"/>
<path d="M76.5126 82.1465C75.4943 82.9889 74.4273 83.7893 73.3419 84.5249C73.1155 84.6784 72.9215 84.8749 72.7711 85.1034C72.6206 85.3319 72.5167 85.5877 72.4651 85.8564C72.4135 86.125 72.4154 86.4012 72.4705 86.6691C72.5257 86.9371 72.6331 87.1915 72.7866 87.4179C72.9401 87.6444 73.1367 87.8383 73.3651 87.9888C73.5936 88.1392 73.8494 88.2432 74.1181 88.2948C74.3867 88.3464 74.6629 88.3445 74.9308 88.2894C75.1988 88.2342 75.4532 88.1268 75.6796 87.9733C76.874 87.1645 78.0468 86.2846 79.1677 85.359C79.5937 85.007 79.8624 84.5001 79.9147 83.9499C79.967 83.3997 79.7985 82.8513 79.4464 82.4253C79.0944 81.9992 78.5875 81.7306 78.0373 81.6783C77.4871 81.626 76.9387 81.7945 76.5126 82.1465Z" fill="black"/>
<path d="M92.3012 61.3703C91.7749 61.2031 91.2037 61.2516 90.7131 61.505C90.2224 61.7585 89.8523 62.1962 89.6841 62.7222C89.2852 63.9722 88.8194 65.2207 88.2995 66.4342C88.1858 66.6865 88.1236 66.9589 88.1164 67.2355C88.1092 67.5121 88.1572 67.7874 88.2576 68.0452C88.358 68.3031 88.5087 68.5384 88.7011 68.7373C88.8934 68.9363 89.1234 69.0949 89.3777 69.204C89.632 69.313 89.9055 69.3703 90.1822 69.3725C90.4589 69.3747 90.7333 69.3218 90.9893 69.2168C91.2453 69.1118 91.4778 68.9568 91.6732 68.7609C91.8687 68.565 92.0231 68.3322 92.1276 68.076C92.7014 66.7402 93.2141 65.364 93.6524 63.9877C93.7357 63.7271 93.7668 63.4527 93.7439 63.1801C93.7211 62.9075 93.6447 62.642 93.5193 62.399C93.3938 62.1559 93.2216 61.9399 93.0126 61.7634C92.8036 61.5869 92.5619 61.4533 92.3012 61.3703Z" fill="black"/>
<path d="M66.3937 88.3167C65.1924 88.8313 63.9431 89.2964 62.6808 89.6991C62.4202 89.7822 62.1785 89.9158 61.9695 90.0923C61.7605 90.2688 61.5883 90.4848 61.4628 90.7278C61.3372 90.9709 61.2608 91.2362 61.2378 91.5088C61.2149 91.7814 61.2458 92.0559 61.3289 92.3165C61.412 92.5771 61.5456 92.8188 61.7221 93.0278C61.8986 93.2368 62.1145 93.409 62.3576 93.5346C62.6006 93.6601 62.866 93.7365 63.1386 93.7595C63.4112 93.7825 63.6856 93.7515 63.9463 93.6685C65.3347 93.2259 66.7101 92.7143 68.0336 92.1477C68.5416 91.9302 68.9424 91.5197 69.1478 91.0067C69.3532 90.4936 69.3463 89.9199 69.1288 89.4119C68.9112 88.9039 68.5008 88.5031 67.9877 88.2977C67.4746 88.0923 66.901 88.0991 66.393 88.3167H66.3937Z" fill="black"/>
<path d="M32.3812 45.7433C32.3812 42.3289 30.136 39.5929 26.6612 38.7726C24.7523 38.3205 22.7465 38.5287 20.9712 39.3635C19.1959 40.1982 17.756 41.61 16.8864 43.3685C16.6429 43.8623 16.6048 44.4324 16.7804 44.9543C16.9559 45.4761 17.3309 45.9073 17.8234 46.1535C18.3158 46.3998 18.8857 46.4411 19.4085 46.2684C19.9313 46.0958 20.3646 45.7232 20.6136 45.2322C21.0584 44.3091 21.8066 43.5666 22.7331 43.129C23.6596 42.6914 24.7083 42.5851 25.7038 42.8279C26.2929 42.9667 28.2144 43.5882 28.2144 45.7433C28.2144 47.9162 25.7048 49.5921 23.0478 51.3667C20.056 53.3636 16.6665 55.6269 16.6665 59.3746C16.6665 59.9271 16.886 60.457 17.2767 60.8477C17.6674 61.2385 18.1974 61.458 18.7499 61.458H30.2978C30.573 61.4606 30.8461 61.4087 31.1012 61.3052C31.3563 61.2017 31.5884 61.0487 31.784 60.8549C31.9796 60.6612 32.1348 60.4307 32.2408 60.1766C32.3468 59.9225 32.4013 59.6499 32.4013 59.3747C32.4013 59.0994 32.3468 58.8268 32.2408 58.5727C32.1348 58.3186 31.9796 58.0881 31.784 57.8944C31.5884 57.7006 31.3563 57.5476 31.1012 57.4441C30.8461 57.3406 30.573 57.2887 30.2978 57.2914H22.0438C22.9167 56.4644 24.1505 55.6404 25.361 54.8316C28.6522 52.6343 32.3812 50.1441 32.3812 45.7433Z" fill="black"/>
<path d="M52.0833 52.6043C52.0833 52.0518 51.8638 51.5219 51.4731 51.1313C51.0824 50.7406 50.5525 50.5211 49.9999 50.5211H48.3072V39.4533C48.3071 39.0219 48.1731 38.6011 47.9236 38.249C47.6741 37.897 47.3215 37.6311 46.9145 37.488C46.5074 37.3449 46.066 37.3318 45.6511 37.4503C45.2362 37.5689 44.8684 37.8133 44.5984 38.1498L34.0515 51.3014C33.8061 51.6078 33.6523 51.9772 33.6077 52.3672C33.5631 52.7572 33.6296 53.1519 33.7995 53.5057C33.9693 53.8596 34.2357 54.1583 34.5679 54.3674C34.9001 54.5765 35.2846 54.6875 35.6771 54.6877H44.1406V60.5471C44.1379 60.8224 44.1898 61.0955 44.2933 61.3505C44.3968 61.6056 44.5499 61.8377 44.7436 62.0333C44.9373 62.2289 45.1679 62.3842 45.4219 62.4901C45.676 62.5961 45.9486 62.6507 46.2239 62.6507C46.4992 62.6507 46.7717 62.5961 47.0258 62.4901C47.2799 62.3842 47.5105 62.2289 47.7042 62.0333C47.8979 61.8377 48.0509 61.6056 48.1544 61.3505C48.2579 61.0955 48.3098 60.8224 48.3072 60.5471V54.6877H49.9999C50.5525 54.6877 51.0824 54.4682 51.4731 54.0775C51.8638 53.6868 52.0833 53.1569 52.0833 52.6043ZM44.1406 50.5211H40.0195L44.1406 45.3809V50.5211Z" fill="black"/>
<path d="M62.746 36.2385C62.4777 36.1842 62.2013 36.1835 61.9327 36.2364C61.6641 36.2892 61.4086 36.3946 61.1808 36.5464C60.9531 36.6982 60.7575 36.8936 60.6054 37.1211C60.4533 37.3487 60.3476 37.6041 60.2944 37.8726L55.6069 61.3101C55.4985 61.8519 55.6097 62.4145 55.9161 62.8743C56.2225 63.3341 56.699 63.6533 57.2407 63.7617C57.3758 63.7886 57.5132 63.8022 57.6509 63.8023C58.1321 63.8018 58.5982 63.6348 58.9702 63.3295C59.3422 63.0243 59.597 62.5997 59.6915 62.1279L64.379 38.6904C64.4329 38.4222 64.4334 38.146 64.3804 37.8776C64.3275 37.6091 64.2222 37.3538 64.0706 37.1261C63.9189 36.8984 63.7239 36.7028 63.4966 36.5505C63.2693 36.3982 63.0143 36.2922 62.746 36.2385Z" fill="black"/>
<path d="M73.4368 61.4598C73.8482 61.4595 74.2503 61.3376 74.5926 61.1093C74.9349 60.8811 75.202 60.5567 75.3604 60.177L83.1729 41.427C83.305 41.1104 83.3569 40.7661 83.3239 40.4246C83.2909 40.0832 83.1742 39.7552 82.9839 39.4697C82.7937 39.1843 82.5359 38.9502 82.2335 38.7884C81.931 38.6266 81.5933 38.5419 81.2502 38.542H70.7034C70.1543 38.5473 69.6296 38.7691 69.2432 39.1593C68.8569 39.5494 68.6401 40.0762 68.6401 40.6253C68.6401 41.1744 68.8569 41.7012 69.2432 42.0913C69.6296 42.4814 70.1543 42.7033 70.7034 42.7086H78.1252L71.5151 58.5746C71.3836 58.8912 71.3322 59.2353 71.3654 59.5765C71.3985 59.9177 71.5153 60.2454 71.7053 60.5307C71.8953 60.8161 72.1526 61.0502 72.4546 61.2123C72.7567 61.3745 73.094 61.4598 73.4368 61.4605V61.4598Z" fill="black"/>
</svg>
