<svg width="20" height="18" viewBox="0 0 20 18" fill="none" xmlns="http://www.w3.org/2000/svg">
<g clip-path="url(#clip0_536_2313)">
<path d="M11 7.16667H9.33333V5.5H11M11 13.8333H9.33333V8.83333H11M10.1667 1.33333C9.07232 1.33333 7.98868 1.54888 6.97764 1.96767C5.96659 2.38646 5.04793 3.00029 4.27411 3.77411C2.71131 5.33691 1.83333 7.45653 1.83333 9.66667C1.83333 11.8768 2.71131 13.9964 4.27411 15.5592C5.04793 16.333 5.96659 16.9469 6.97764 17.3657C7.98868 17.7845 9.07232 18 10.1667 18C12.3768 18 14.4964 17.122 16.0592 15.5592C17.622 13.9964 18.5 11.8768 18.5 9.66667C18.5 8.57232 18.2845 7.48868 17.8657 6.47764C17.4469 5.46659 16.833 4.54793 16.0592 3.77411C15.2854 3.00029 14.3667 2.38646 13.3557 1.96767C12.3446 1.54888 11.261 1.33333 10.1667 1.33333Z" fill="#2C2E35"/>
<path d="M9.33325 7.16667H10.9999V5.5H9.33325V7.16667Z" fill="#FFCE28"/>
<path d="M9.33325 13.8333H10.9999V8.83333H9.33325V13.8333Z" fill="#FFCE28"/>
</g>
<defs>
<clipPath id="clip0_536_2313">
<rect width="20" height="18" fill="white"/>
</clipPath>
</defs>
</svg>
