<svg width="512" height="512" viewBox="0 0 512 512" fill="none" xmlns="http://www.w3.org/2000/svg">
<path d="M494.933 309.525C488.727 338.229 477.091 364.604 462.351 388.653C435.976 378.568 410.376 380.895 394.861 396.41C379.345 412.701 377.018 438.301 387.103 464.677C363.83 479.416 337.455 491.053 308.751 497.259C297.891 471.659 277.721 454.592 255.224 454.592C232.727 454.592 213.333 471.659 201.697 497.259C173.77 491.053 147.394 479.416 123.345 464.677C133.43 438.301 131.103 412.701 115.588 397.186C100.073 380.895 74.4727 379.344 48.097 389.429C34.9091 364.604 23.2727 338.229 17.0667 309.525C42.6667 297.889 59.7333 278.495 59.7333 255.998C59.7333 233.501 42.6667 214.107 17.0667 202.471C23.2727 174.544 34.1333 147.392 49.6485 124.119C75.2485 134.204 101.624 131.877 117.139 116.362C132.655 100.071 134.982 74.4709 124.897 48.8709C148.17 34.1315 174.545 22.4951 203.248 16.2891C214.109 41.8891 234.279 58.9557 256.776 58.9557C279.273 58.9557 298.667 41.8891 310.303 16.2891C338.23 22.4951 364.606 33.3557 388.655 48.8709C378.57 75.2466 380.897 100.847 396.412 116.362C411.927 132.653 437.527 134.204 463.903 124.119C479.418 148.168 490.279 174.544 496.485 203.247C470.885 214.883 453.818 234.277 453.818 256.774C453.818 279.271 469.333 298.665 494.933 309.525Z" stroke="black" stroke-width="15.5152" stroke-miterlimit="10" stroke-linecap="round" stroke-linejoin="round"/>
<path d="M258.327 281.598C272.037 281.598 283.152 270.137 283.152 255.998C283.152 241.86 272.037 230.398 258.327 230.398C244.617 230.398 233.503 241.86 233.503 255.998C233.503 270.137 244.617 281.598 258.327 281.598Z" stroke="#FFBD00" stroke-width="15.5152" stroke-miterlimit="10" stroke-linecap="round" stroke-linejoin="round"/>
<path d="M256.776 112.484V124.896" stroke="black" stroke-width="15.5152" stroke-miterlimit="10" stroke-linecap="round" stroke-linejoin="round"/>
<path d="M256.776 387.102V399.514" stroke="black" stroke-width="15.5152" stroke-miterlimit="10" stroke-linecap="round" stroke-linejoin="round"/>
<path d="M185.406 131.102L191.612 142.738" stroke="black" stroke-width="15.5152" stroke-miterlimit="10" stroke-linecap="round" stroke-linejoin="round"/>
<path d="M321.164 369.258L328.145 380.894" stroke="black" stroke-width="15.5152" stroke-miterlimit="10" stroke-linecap="round" stroke-linejoin="round"/>
<path d="M131.879 184.629L143.515 191.611" stroke="black" stroke-width="15.5152" stroke-miterlimit="10" stroke-linecap="round" stroke-linejoin="round"/>
<path d="M368.485 321.938L379.345 328.919" stroke="black" stroke-width="15.5152" stroke-miterlimit="10" stroke-linecap="round" stroke-linejoin="round"/>
<path d="M113.261 256.773H125.673" stroke="black" stroke-width="15.5152" stroke-miterlimit="10" stroke-linecap="round" stroke-linejoin="round"/>
<path d="M386.327 256.773H398.739" stroke="black" stroke-width="15.5152" stroke-miterlimit="10" stroke-linecap="round" stroke-linejoin="round"/>
<path d="M132.655 328.146L144.291 321.164" stroke="black" stroke-width="15.5152" stroke-miterlimit="10" stroke-linecap="round" stroke-linejoin="round"/>
<path d="M369.261 190.837L380.121 183.855" stroke="black" stroke-width="15.5152" stroke-miterlimit="10" stroke-linecap="round" stroke-linejoin="round"/>
<path d="M185.406 380.894L191.612 369.258" stroke="black" stroke-width="15.5152" stroke-miterlimit="10" stroke-linecap="round" stroke-linejoin="round"/>
<path d="M321.164 142.738L328.145 131.102" stroke="black" stroke-width="15.5152" stroke-miterlimit="10" stroke-linecap="round" stroke-linejoin="round"/>
<path d="M258.327 230.401L257.552 162.91" stroke="#FFBD00" stroke-width="15.5152" stroke-miterlimit="10" stroke-linecap="round" stroke-linejoin="round"/>
<path d="M256 425.887C348.971 425.887 424.339 349.825 424.339 255.996C424.339 162.168 348.971 86.1055 256 86.1055C163.029 86.1055 87.6606 162.168 87.6606 255.996C87.6606 349.825 163.029 425.887 256 425.887Z" stroke="#FFBD00" stroke-width="15.5152" stroke-miterlimit="10" stroke-linecap="round" stroke-linejoin="round"/>
<path d="M256 349.088C306.984 349.088 348.315 307.41 348.315 255.997C348.315 204.584 306.984 162.906 256 162.906C205.016 162.906 163.685 204.584 163.685 255.997C163.685 307.41 205.016 349.088 256 349.088Z" stroke="#FFBD00" stroke-width="15.5152" stroke-miterlimit="10" stroke-linecap="round" stroke-linejoin="round"/>
</svg>
