<svg width="458" height="144" fill="none" xmlns="http://www.w3.org/2000/svg"><path d="M71.6 1h314c39.047 0 70.6 31.651 70.6 70.6 0 39.047-31.651 70.6-70.6 70.6h-314C32.553 142.2 1 110.549 1 71.6 1 32.652 32.652 1 71.6 1z" fill="#010202" stroke="#fff" stroke-width="2"/><path d="M71.6 1.4h314c38.8 0 70.2 31.4 70.2 70.2 0 38.8-31.4 70.2-70.2 70.2h-314c-38.8 0-70.2-31.4-70.2-70.2 0-38.8 31.4-70.2 70.2-70.2z" stroke="#fff" stroke-width="2.754"/><path d="M166.3 38.2v16.3h4.9c2.6 0 4.6-.8 6.2-2.3 1.6-1.5 2.3-3.5 2.3-5.9 0-2.4-.8-4.4-2.3-5.9-1.5-1.5-3.6-2.2-6.2-2.2h-4.9zm4.9 2.4c1.8 0 3.3.5 4.3 1.6 1.1 1 1.6 2.4 1.6 4.2 0 1.7-.5 3.1-1.6 4.2s-2.5 1.6-4.3 1.6h-2.4V40.6h2.4zM188 42.1c-1.7 0-3.2.6-4.4 1.8-1.2 1.2-1.8 2.7-1.8 4.5 0 1.8.6 3.3 1.8 4.5 1.2 1.2 2.6 1.8 4.4 1.9 1.7 0 3.2-.6 4.4-1.8 1.2-1.2 1.8-2.7 1.8-4.5 0-1.8-.6-3.3-1.8-4.5-1.3-1.3-2.7-1.9-4.4-1.9zm0 2.4c1 0 1.9.4 2.6 1.2.7.7 1 1.7 1 2.8 0 1.1-.4 2.1-1 2.8-.7.7-1.6 1.1-2.6 1.1s-1.9-.4-2.6-1.1c-.7-.8-1-1.7-1-2.8 0-1.1.3-2.1 1-2.8.7-.8 1.6-1.2 2.6-1.2zM208.9 50.2l-3.6-8.1h-.9l-3.5 8.2-3.1-7.9h-2.7l5.2 12.4h.9l3.7-8.1 3.7 8.1h.9l5.1-12.4h-2.7l-3 7.8zM222.6 42.1c-1.4 0-2.6.5-3.5 1.5v-1.2h-2.3v12.1h2.5v-7.2c0-1.7 1.1-2.8 2.7-2.8 1.5 0 2.5 1.1 2.5 2.8v7.2h2.5v-7.6c0-2.9-1.7-4.8-4.4-4.8zM230.4 36v18.5h2.5V36h-2.5zM241.9 42.1c-1.7 0-3.2.6-4.4 1.8-1.2 1.2-1.8 2.7-1.8 4.5 0 1.8.6 3.3 1.8 4.5 1.2 1.2 2.6 1.8 4.4 1.9 1.7 0 3.2-.6 4.4-1.8 1.2-1.2 1.8-2.7 1.8-4.5 0-1.8-.6-3.3-1.8-4.5-1.2-1.3-2.7-1.9-4.4-1.9zm.1 2.4c1 0 1.9.4 2.6 1.2.7.7 1 1.7 1 2.8 0 1.1-.4 2.1-1 2.8-.7.7-1.6 1.1-2.6 1.1s-1.9-.4-2.6-1.1c-.7-.8-1-1.7-1-2.8 0-1.1.3-2.1 1-2.8.6-.8 1.5-1.2 2.6-1.2zM255.5 42.1c-2.1 0-3.7.9-4.9 2.6l1.4 1.5c1-1.2 2.1-1.8 3.2-1.8 1.6 0 2.5.9 2.5 2.6v.8h-3.3c-2.6 0-4.3 1.4-4.3 3.5s1.6 3.5 4.1 3.5c1.6 0 2.8-.5 3.7-1.6v1.4h2.3v-7.3c0-3.4-1.9-5.2-4.7-5.2zm-.8 10.7c-1.2 0-2-.6-2-1.6s.7-1.5 2.1-1.5h3v.2c-.1 1.7-1.4 2.9-3.1 2.9zM272.5 43.9c-.9-1.2-2.2-1.8-3.9-1.8-1.6 0-3 .6-4.1 1.8-1.1 1.2-1.6 2.7-1.6 4.5 0 1.8.5 3.3 1.6 4.5 1.1 1.2 2.4 1.8 4.1 1.8 1.8 0 3.2-.7 4.1-2v1.7h2.3V35.9h-2.5v8zm-3.4 8.5c-1 0-1.9-.4-2.6-1.1-.7-.7-1-1.7-1-2.9s.3-2.1 1-2.8c.7-.7 1.5-1.1 2.6-1.1.9 0 1.8.3 2.5 1s1 1.7 1 2.9c0 2.7-1.6 4-3.5 4zM290.7 42.1c-1.7 0-3.2.6-4.4 1.8-1.2 1.2-1.8 2.7-1.8 4.5 0 1.8.6 3.3 1.8 4.5 1.2 1.2 2.6 1.8 4.4 1.9 1.7 0 3.2-.6 4.4-1.8 1.2-1.2 1.8-2.7 1.8-4.5 0-1.8-.6-3.3-1.8-4.5-1.3-1.3-2.7-1.9-4.4-1.9zm0 2.4c1 0 1.9.4 2.6 1.2.7.7 1 1.7 1 2.8 0 1.1-.4 2.1-1 2.8-.7.7-1.6 1.1-2.6 1.1s-1.9-.4-2.6-1.1c-.7-.8-1-1.7-1-2.8 0-1.1.3-2.1 1-2.8.7-.8 1.6-1.2 2.6-1.2zM305.5 42.1c-1.4 0-2.6.5-3.5 1.5v-1.2h-2.3v12.1h2.5v-7.2c0-1.7 1.1-2.8 2.7-2.8 1.5 0 2.5 1.1 2.5 2.8v7.2h2.5v-7.6c0-2.9-1.6-4.8-4.4-4.8zM325.4 52.4c-1.5 0-2.3-.5-2.3-2.1v-5.7h3.5v-2.2h-3.5v-3.2h-2.5v3.2h-1.9v2.2h1.9v5.9c0 2.8 1.6 4.2 4.3 4.2.6 0 1.3-.1 2.1-.3v-2.2c-.8.2-1.3.2-1.6.2zM335.3 42.1c-1.4 0-2.5.5-3.4 1.5V36h-2.5v18.5h2.5v-7.2c0-1.7 1.1-2.8 2.7-2.8 1.5 0 2.5 1.1 2.5 2.8v7.2h2.5v-7.6c0-2.8-1.6-4.8-4.3-4.8zM353.8 47.7c0-1.6-.5-2.9-1.5-4s-2.3-1.6-3.8-1.6c-1.7 0-3.1.6-4.3 1.9-1.2 1.2-1.7 2.7-1.7 4.5 0 1.8.6 3.3 1.8 4.5 1.2 1.2 2.7 1.8 4.5 1.8 1.8 0 3.3-.6 4.6-2l-1.2-1.8c-1 1-2.2 1.4-3.4 1.4-2 0-3.5-1.2-3.8-3.2h8.7c0-.5.1-1 .1-1.5zm-5.5-3.4c1.7 0 3 1.2 3 3H345c.3-1.8 1.6-3 3.3-3zM192.6 98l-13-31.1H178L165.1 98h5l2.1-5.1h13.2l2.1 5.1h5.1zm-18.7-9.3 4.9-12.7 4.8 12.7h-9.7zM208 74.7c-3.2 0-6 1.4-7.6 3.8v-3.2H196v31.1h4.7V95.3c1.7 2.2 4.2 3.2 7.3 3.2 3.1 0 5.7-1.1 7.7-3.4s3-5.1 3-8.5c0-3.4-1-6.2-3-8.5s-4.6-3.4-7.7-3.4zm-.8 19.3c-1.8 0-3.4-.6-4.7-1.9-1.3-1.3-1.9-3.1-1.9-5.6 0-4.9 3-7.4 6.6-7.4 1.9 0 3.5.7 4.8 2.1 1.3 1.4 1.9 3.2 1.9 5.4s-.6 3.9-1.9 5.3c-1.3 1.4-2.9 2.1-4.8 2.1zM235.1 74.7c-3.2 0-6 1.4-7.6 3.8v-3.2h-4.4v31.1h4.7V95.3c1.7 2.2 4.2 3.2 7.3 3.2 3.1 0 5.7-1.1 7.7-3.4s3-5.1 3-8.5c0-3.4-1-6.2-3-8.5s-4.6-3.4-7.7-3.4zm-.7 19.3c-1.8 0-3.4-.6-4.7-1.9-1.3-1.3-1.9-3.1-1.9-5.6 0-4.9 3-7.4 6.6-7.4 1.9 0 3.5.7 4.8 2.1 1.3 1.4 1.9 3.2 1.9 5.4s-.6 3.9-1.9 5.3c-1.4 1.4-2.9 2.1-4.8 2.1zM271.1 66.9c-2.6 0-4.8.8-6.6 2.3-1.8 1.5-2.7 3.5-2.7 6 0 3.9 2.5 6.4 6.8 8.5l3.2 1.6c3.1 1.5 4.3 2.4 4.3 4.6 0 2.6-2 4.3-5.1 4.3-3 0-5.5-1.6-7.7-4.9l-3.3 2.6c2.3 4.1 6.3 6.6 11.1 6.6 2.8 0 5.2-.8 7-2.4 1.9-1.6 2.8-3.8 2.8-6.4 0-4-2.3-6.4-7-8.7l-3.3-1.6c-3-1.5-4.1-2.3-4.1-4.4 0-2.4 2-3.7 4.4-3.7 2.5 0 4.6 1.3 6.2 3.7l3.3-2.6c-1.7-3.3-5.2-5.5-9.3-5.5zM295.7 94.1c-2.8 0-4.3-1-4.3-3.9V79.4h6.5v-4.2h-6.5v-6h-4.7v6h-3.6v4.2h3.6v11.1c0 5.3 3 7.9 8 7.9 1.1 0 2.4-.2 3.9-.5v-4.1c-1.3.2-2.2.3-2.9.3zM312.1 74.7c-3.2 0-6 1.2-8.2 3.4-2.2 2.3-3.3 5.1-3.3 8.4 0 3.3 1.1 6.2 3.3 8.4 2.2 2.3 4.9 3.4 8.2 3.5 3.2 0 5.9-1.2 8.2-3.4 2.3-2.3 3.4-5.1 3.4-8.5 0-3.3-1.2-6.2-3.4-8.4s-5-3.4-8.2-3.4zm.1 4.5c1.9 0 3.5.7 4.8 2.2 1.3 1.4 2 3.1 2 5.3 0 2.1-.7 3.8-2 5.3-1.3 1.4-2.9 2.1-4.8 2.1-2 0-3.6-.7-4.8-2.1-1.3-1.4-1.9-3.2-1.9-5.3 0-2.1.6-3.9 1.9-5.3 1.2-1.5 2.8-2.2 4.8-2.2zM338.9 75c-2.7 0-4.8 1.1-6.4 3.2v-3h-4.4v22.7h4.7V85.8c0-4 2.7-6.3 6.4-6.3h1.4v-4.3c-.4-.1-1-.2-1.7-.2zM363.6 85.1c0-3-1-5.5-2.9-7.5s-4.3-3-7.2-3c-3.2 0-5.9 1.2-8 3.5-2.2 2.3-3.2 5.1-3.2 8.4 0 3.4 1.1 6.2 3.3 8.5 2.2 2.3 5 3.4 8.4 3.4 3.3 0 6.2-1.2 8.7-3.7l-2.2-3.3c-2 1.8-4.1 2.7-6.4 2.7-3.8 0-6.5-2.2-7.1-6h16.3c.1-1 .3-2 .3-3zm-10.3-6.3c3.2 0 5.6 2.2 5.6 5.6H347c.7-3.4 3.2-5.6 6.3-5.6zM143.4 69.6c-.1-8.7 7.6-12.9 7.9-13.1-4.3-5.9-11.1-6.7-13.4-6.8-5.6-.6-11.1 3.2-14 3.2-2.9 0-7.4-3.1-12.1-3-6.1.1-11.9 3.4-15 8.6-6.5 10.5-1.7 26 4.6 34.5 3.1 4.2 6.7 8.8 11.5 8.7 4.7-.2 6.4-2.8 12-2.8s7.2 2.8 12.1 2.7c5-.1 8.2-4.2 11.2-8.4 3.6-4.8 5-9.5 5.1-9.7-.2-.1-9.8-3.5-9.9-13.9zm-9.2-25.4c2.5-2.9 4.2-6.9 3.7-11-3.6.1-8.2 2.3-10.8 5.2-2.3 2.5-4.4 6.7-3.8 10.6 4.1.3 8.3-2 10.9-4.8z" fill="#fff"/></svg>