<svg width="20" height="20" viewBox="0 0 20 20" fill="none" xmlns="http://www.w3.org/2000/svg">
<g clip-path="url(#clip0_536_2319)">
<path d="M3.75 5.625C3.75 4.58984 2.91016 3.75 1.875 3.75C0.839844 3.75 0 4.58984 0 5.625V14.375C0 17.4805 2.51953 20 5.625 20C8.73047 20 11.25 17.4805 11.25 14.375C11.25 11.2695 8.73047 8.75 5.625 8.75H5V12.5H5.625C6.66016 12.5 7.5 13.3398 7.5 14.375C7.5 15.4102 6.66016 16.25 5.625 16.25C4.58984 16.25 3.75 15.4102 3.75 14.375V5.625Z" fill="#2C2E35"/>
<path d="M8.75 2.5C8.05859 2.5 7.5 1.94141 7.5 1.25C7.5 0.558594 8.05859 0 8.75 0C14.9648 0 20 5.03516 20 11.25C20 11.9414 19.4414 12.5 18.75 12.5C18.0586 12.5 17.5 11.9414 17.5 11.25C17.5 6.41797 13.582 2.5 8.75 2.5Z" fill="#FFCE28"/>
<path d="M8.75 6.25C8.05859 6.25 7.5 5.69141 7.5 5C7.5 4.30859 8.05859 3.75 8.75 3.75C12.8906 3.75 16.25 7.10938 16.25 11.25C16.25 11.9414 15.6914 12.5 15 12.5C14.3086 12.5 13.75 11.9414 13.75 11.25C13.75 8.48828 11.5117 6.25 8.75 6.25Z" fill="#FFCE28"/>
</g>
<defs>
<clipPath id="clip0_536_2319">
<rect width="20" height="20" fill="white"/>
</clipPath>
</defs>
</svg>
