<svg width="18" height="18" viewBox="0 0 18 18" fill="none" xmlns="http://www.w3.org/2000/svg">
<path d="M16.1996 11.0002L15.9246 10.8502C15.8246 10.8002 15.7746 10.7002 15.7996 10.6002C15.8746 10.1252 15.9246 8.4752 13.3746 7.7252C13.3246 7.7002 13.2746 7.7002 13.2246 7.7002L8.32461 7.7252C8.22461 7.7252 8.12461 7.7502 8.04961 7.8002L5.47461 9.5252C5.42461 9.5502 5.37461 9.5752 5.32461 9.5752C4.84961 9.5502 4.39961 9.6002 3.92461 9.6752C2.57461 9.9502 2.02461 10.6752 1.82461 11.0502C1.77461 11.1252 1.77461 11.2252 1.77461 11.3002C1.79961 11.9002 1.39961 12.5752 1.99961 13.1252L6.84961 13.1002L11.9496 12.9752L15.9746 12.9252C16.1996 12.9002 16.5746 12.5752 16.6746 12.3752C17.0996 11.7002 16.2496 11.0252 16.1996 11.0002Z" fill="#FFCE28"/>
<path d="M4.3252 11.5996C3.7752 11.5996 3.3252 12.0496 3.3252 12.5996C3.3252 13.1496 3.7752 13.5996 4.3252 13.5996C4.8752 13.5996 5.3252 13.1496 5.3252 12.5996C5.3252 12.0496 4.8752 11.5996 4.3252 11.5996ZM14.2752 11.5996C13.7252 11.5996 13.2752 12.0496 13.2752 12.5996C13.2752 13.1496 13.7252 13.5996 14.2752 13.5996C14.8252 13.5996 15.2752 13.1496 15.2752 12.5996C15.2752 12.0496 14.8252 11.5996 14.2752 11.5996Z" fill="#5A5A5A"/>
<path d="M14.0254 9.8252V8.7502C14.0254 8.5252 13.8254 8.3252 13.6004 8.3252H8.30041C8.27541 8.3252 8.25041 8.3252 8.25041 8.3502L6.25041 9.7752C6.20041 9.8002 6.20041 9.8752 6.22541 9.9252C6.25041 9.9502 6.27541 9.9752 6.30041 9.9752C7.70041 9.9752 13.1004 9.9252 13.9004 9.9502C13.9754 9.9502 14.0254 9.9002 14.0254 9.8252C14.0254 9.8502 14.0254 9.8502 14.0254 9.8252Z" fill="#95999B"/>
<path d="M2.2252 10.125L3.2252 10.525L2.7002 11.25L1.4502 11.275L2.2252 10.125Z" fill="#2C2E35"/>
<path d="M11.9 12.7496L6.75 12.8496M2.025 12.8496C1.8 12.7996 1.6 12.7246 1.575 12.5996C1.55 12.3496 1.5 11.6496 1.5 11.3246C1.5 11.1996 1.525 11.0496 1.6 10.9496C1.875 10.4496 2.8 9.24961 5.325 9.34961L7.9 7.62461C8.025 7.54961 8.175 7.49961 8.3 7.49961L13.2 7.47461C13.275 7.47461 13.35 7.47461 13.425 7.49961C13.975 7.64961 16.35 8.49961 16.025 10.6496L16.3 10.7996C16.425 10.8496 16.525 10.9746 16.55 11.0996C16.65 11.4496 16.625 11.8246 16.5 12.1746" stroke="#2C2E35" stroke-width="0.5" stroke-linecap="round" stroke-linejoin="round"/>
<path d="M6.22461 9.9748L13.7746 9.9248V8.7998" stroke="#2C2E35" stroke-width="0.5" stroke-linecap="round" stroke-linejoin="round"/>
<path d="M4.3252 13.8496C5.01555 13.8496 5.5752 13.29 5.5752 12.5996C5.5752 11.9093 5.01555 11.3496 4.3252 11.3496C3.63484 11.3496 3.0752 11.9093 3.0752 12.5996C3.0752 13.29 3.63484 13.8496 4.3252 13.8496Z" stroke="#2C2E35" stroke-width="0.5" stroke-linecap="round" stroke-linejoin="round"/>
<path d="M14.2754 13.8496C14.9657 13.8496 15.5254 13.29 15.5254 12.5996C15.5254 11.9093 14.9657 11.3496 14.2754 11.3496C13.585 11.3496 13.0254 11.9093 13.0254 12.5996C13.0254 13.29 13.585 13.8496 14.2754 13.8496Z" stroke="#2C2E35" stroke-width="0.5" stroke-linecap="round" stroke-linejoin="round"/>
<path d="M3.0752 10.7243L2.6252 11.2743L1.7002 11.2493M4.5672 6.96504C4.98845 5.79004 5.9692 4.83954 7.2707 4.51229C7.82492 4.3723 8.40329 4.35692 8.96417 4.46724C9.52506 4.57755 10.0545 4.81083 10.5144 5.15029" stroke="#2C2E35" stroke-width="0.5" stroke-linecap="round" stroke-linejoin="round"/>
<path d="M3.5459 6.71325C4.0349 5.21175 5.2614 3.987 6.9059 3.57325C8.39015 3.2 9.8874 3.57 11.0041 4.44825" stroke="#2C2E35" stroke-width="0.5" stroke-linecap="round" stroke-linejoin="round"/>
<path d="M5.55469 7.18356C5.72486 6.76602 5.99102 6.39445 6.3316 6.09896C6.67217 5.80347 7.07757 5.59239 7.51494 5.48281C7.92617 5.379 8.35529 5.36762 8.77145 5.44949C9.1876 5.53136 9.58043 5.70445 9.92169 5.95631" stroke="#2C2E35" stroke-width="0.5" stroke-linecap="round" stroke-linejoin="round"/>
</svg>
