<svg width="89" height="89" viewBox="0 0 89 89" fill="none" xmlns="http://www.w3.org/2000/svg">
<path fill-rule="evenodd" clip-rule="evenodd" d="M7.41602 78.8019C6.67838 78.8019 5.97092 79.0952 5.44934 79.6167C4.92775 80.1383 4.63477 80.8458 4.63477 81.5832C4.63477 82.321 4.92775 83.0285 5.44934 83.5501C5.97092 84.0716 6.67838 84.3644 7.41602 84.3644H81.5827C82.3205 84.3644 83.0276 84.0716 83.5491 83.5501C84.0707 83.0285 84.3639 82.321 84.3639 81.5832C84.3639 80.8458 84.0707 80.1383 83.5491 79.6167C83.0276 79.0952 82.3205 78.8019 81.5827 78.8019H63.0409V59.3332C63.0409 52.3396 63.0409 48.8463 60.8679 46.6729C58.695 44.5 55.2018 44.5 48.2077 44.5H40.791C33.7971 44.5 30.3038 44.5 28.1308 46.6729C25.9577 48.8463 25.9577 52.3396 25.9577 59.3332V78.8019H7.41602ZM34.3014 55.625C34.3014 54.8872 34.5944 54.1801 35.116 53.6585C35.6376 53.1366 36.345 52.8437 37.0827 52.8437H51.9159C52.6537 52.8437 53.3612 53.1366 53.8828 53.6585C54.4043 54.1801 54.6971 54.8872 54.6971 55.625C54.6971 56.3628 54.4043 57.0699 53.8828 57.5915C53.3612 58.1134 52.6537 58.4062 51.9159 58.4062H37.0827C36.345 58.4062 35.6376 58.1134 35.116 57.5915C34.5944 57.0699 34.3014 56.3628 34.3014 55.625ZM34.3014 66.75C34.3014 66.0122 34.5944 65.3051 35.116 64.7835C35.6376 64.2616 36.345 63.9687 37.0827 63.9687H51.9159C52.6537 63.9687 53.3612 64.2616 53.8828 64.7835C54.4043 65.3051 54.6971 66.0122 54.6971 66.75C54.6971 67.4878 54.4043 68.1949 53.8828 68.7165C53.3612 69.2384 52.6537 69.5312 51.9159 69.5312H37.0827C36.345 69.5312 35.6376 69.2384 35.116 68.7165C34.5944 68.1949 34.3014 67.4878 34.3014 66.75Z" fill="#FFCE28"/>
<path d="M29.6667 16.6875C33.1636 16.6875 34.9103 16.6875 35.9968 17.7741C37.0833 18.8606 37.0833 20.6072 37.0833 24.1042V30.7495C37.6656 31.0351 38.1699 31.3911 38.6186 31.8397C40.1168 33.3379 40.584 35.4665 40.7286 38.9375V44.5C33.7792 44.5 30.2971 44.5076 28.1314 46.6729C25.9583 48.8463 25.9583 52.3396 25.9583 59.3332V78.8019H11.125V44.5C11.125 37.5061 11.125 34.0128 13.2981 31.8397C13.7446 31.3923 14.2637 31.0237 14.8333 30.7495V24.1042C14.8333 20.6072 14.8333 18.8606 15.9199 17.7741C17.0064 16.6875 18.7531 16.6875 22.25 16.6875H23.1771V11.125C23.1771 10.3874 23.4701 9.67995 23.9917 9.15837C24.5133 8.63678 25.2207 8.34375 25.9583 8.34375C26.696 8.34375 27.4034 8.63678 27.925 9.15837C28.4466 9.67995 28.7396 10.3874 28.7396 11.125V16.6875H29.6667ZM76.5547 19.4576C75.2348 17.5516 72.9057 16.6764 68.2483 14.9334C59.1441 11.5181 54.5939 9.81225 51.4011 12.0224C48.2082 14.24 48.2082 19.0979 48.2082 28.8212V44.5C55.2022 44.5 58.6955 44.5 60.8684 46.6729C63.0418 48.8463 63.0418 52.3396 63.0418 59.3332V78.8019H77.875V28.8212C77.875 23.852 77.875 21.3637 76.5547 19.4576Z" fill="#2C2E35"/>
</svg>
