<svg width="21" height="15" viewBox="0 0 21 15" fill="none" xmlns="http://www.w3.org/2000/svg">
<g clip-path="url(#clip0_1351_846)">
<path d="M14.9998 13.9997H5.32982C4.13797 13.8299 3.04742 13.2357 2.25847 12.3264C1.46952 11.417 1.03516 10.2536 1.03516 9.04968C1.03516 7.8458 1.46952 6.68234 2.25847 5.773C3.04742 4.86366 4.13797 4.26951 5.32982 4.09968C5.60782 4.10271 5.88523 4.1261 6.15982 4.16968C6.41992 3.1062 7.02938 2.16076 7.89061 1.48479C8.75183 0.808814 9.81499 0.441406 10.9098 0.441406C12.0046 0.441406 13.0678 0.808814 13.929 1.48479C14.7903 2.16076 15.3997 3.1062 15.6598 4.16968C16.8717 4.372 17.965 5.01778 18.7272 5.98146C19.4894 6.94514 19.8659 8.15783 19.7836 9.38372C19.7013 10.6096 19.166 11.7611 18.2819 12.6142C17.3977 13.4674 16.2279 13.9612 14.9998 13.9997ZM5.32982 5.16968C4.34398 5.21998 3.41511 5.64701 2.73512 6.36258C2.05513 7.07814 1.67597 8.02756 1.67597 9.01468C1.67597 10.0018 2.05513 10.9512 2.73512 11.6668C3.41511 12.3824 4.34398 12.8094 5.32982 12.8597H14.9998C15.99 12.8361 16.933 12.4318 17.6328 11.7308C18.3326 11.0298 18.7353 10.0861 18.7571 9.09587C18.779 8.10563 18.4184 7.14505 17.7503 6.41383C17.0822 5.68261 16.158 5.23702 15.1698 5.16968H14.7098L14.6498 4.71968C14.5076 3.81353 14.0417 2.98969 13.3383 2.40094C12.6349 1.8122 11.7419 1.49851 10.8249 1.51805C9.90787 1.53758 9.02904 1.88902 8.3514 2.50719C7.67375 3.12535 7.24328 3.9683 7.13982 4.87968L7.06982 5.53968L6.43982 5.34968C6.08066 5.23554 5.70665 5.17489 5.32982 5.16968Z" fill="#D7D9E0" stroke="#2C2E35" stroke-width="0.77" stroke-miterlimit="10"/>
</g>
<defs>
<clipPath id="clip0_1351_846">
<rect width="20.34" height="14.35" fill="white"/>
</clipPath>
</defs>
</svg>
