<svg width="20" height="20" viewBox="0 0 20 20" fill="none" xmlns="http://www.w3.org/2000/svg">
<path d="M14.1668 18.3333C13.9306 18.3333 13.7326 18.2533 13.5726 18.0933C13.4126 17.9333 13.3329 17.7355 13.3334 17.5V16.4583C12.7918 16.2777 12.3056 16.0033 11.8751 15.635C11.4445 15.2666 11.1043 14.8258 10.8543 14.3125C10.7431 14.1041 10.7431 13.8958 10.8543 13.6875C10.9654 13.4791 11.132 13.3264 11.3543 13.2291C11.5487 13.1458 11.7431 13.1527 11.9376 13.25C12.132 13.3472 12.2848 13.493 12.3959 13.6875C12.6181 14.0902 12.9237 14.4097 13.3126 14.6458C13.7015 14.8819 14.1251 15 14.5834 15H17.0834C17.4306 15 17.7259 15.1216 17.9693 15.365C18.2126 15.6083 18.334 15.9033 18.3334 16.25V17.5C18.3334 17.7361 18.2534 17.9341 18.0934 18.0941C17.9334 18.2541 17.7356 18.3339 17.5001 18.3333H14.1668ZM15.8334 14.1666C15.3751 14.1666 14.9826 14.0033 14.6559 13.6766C14.3293 13.35 14.1662 12.9577 14.1668 12.5C14.1668 12.0416 14.3301 11.6491 14.6568 11.3225C14.9834 10.9958 15.3756 10.8327 15.8334 10.8333C16.2918 10.8333 16.6843 10.9966 17.0109 11.3233C17.3376 11.65 17.5006 12.0422 17.5001 12.5C17.5001 12.9583 17.3368 13.3508 17.0101 13.6775C16.6834 14.0041 16.2912 14.1672 15.8334 14.1666ZM2.50008 9.16663C2.26397 9.16663 2.06592 9.08663 1.90592 8.92663C1.74592 8.76663 1.6662 8.56885 1.66675 8.33329V7.08329C1.66675 6.73607 1.78842 6.44079 2.03175 6.19746C2.27508 5.95413 2.57008 5.83274 2.91675 5.83329H5.41675C5.87508 5.83329 6.2987 5.71524 6.68758 5.47913C7.07647 5.24302 7.38203 4.92357 7.60425 4.52079C7.71536 4.32635 7.86814 4.16996 8.06258 4.05163C8.25703 3.93329 8.45842 3.90913 8.66675 3.97913C8.90286 4.04857 9.07647 4.18052 9.18758 4.37496C9.2987 4.56941 9.31258 4.76385 9.22925 4.95829C8.99314 5.51385 8.65286 5.99302 8.20842 6.39579C7.76397 6.79857 7.25008 7.09718 6.66675 7.29163V8.33329C6.66675 8.56941 6.58703 8.76718 6.42758 8.92663C6.26814 9.08607 6.07008 9.16607 5.83342 9.16663H2.50008ZM4.16675 4.99996C3.70842 4.99996 3.31592 4.83663 2.98925 4.50996C2.66258 4.18329 2.49953 3.79107 2.50008 3.33329C2.50008 2.87496 2.66342 2.48246 2.99008 2.15579C3.31675 1.82913 3.70897 1.66607 4.16675 1.66663C4.62508 1.66663 5.01758 1.82996 5.34425 2.15663C5.67092 2.48329 5.83397 2.87552 5.83342 3.33329C5.83342 3.79163 5.67008 4.18413 5.34342 4.51079C5.01675 4.83746 4.62453 5.00052 4.16675 4.99996Z" fill="#2C2E35"/>
<path d="M14.2291 5.87498C12.9235 6.04165 11.8088 6.59026 10.8849 7.52081C9.96099 8.45137 9.40905 9.56942 9.22905 10.875C9.20127 11.1111 9.10405 11.3022 8.93738 11.4483C8.77072 11.5944 8.56933 11.6672 8.33322 11.6666C8.09711 11.6666 7.89905 11.5866 7.73905 11.4266C7.57905 11.2666 7.51322 11.0758 7.54155 10.8541C7.73599 9.07637 8.46183 7.56942 9.71905 6.33331C10.9763 5.0972 12.4935 4.38887 14.2707 4.20831C14.4791 4.18053 14.6527 4.24665 14.7916 4.40665C14.9304 4.56665 14.9999 4.76442 14.9999 4.99998C14.9999 5.2222 14.9268 5.41665 14.7807 5.58331C14.6346 5.74998 14.4507 5.8472 14.2291 5.87498ZM14.3541 9.24998C13.9235 9.36109 13.5485 9.57276 13.2291 9.88498C12.9096 10.1972 12.6943 10.5689 12.5832 11C12.5277 11.1944 12.4132 11.3541 12.2399 11.4791C12.0666 11.6041 11.8754 11.6666 11.6666 11.6666C11.4304 11.6666 11.236 11.5936 11.0832 11.4475C10.9304 11.3014 10.8679 11.1314 10.8957 10.9375C11.0485 10.0625 11.441 9.31942 12.0732 8.70831C12.7054 8.0972 13.4588 7.71526 14.3332 7.56248C14.5277 7.5347 14.6874 7.60081 14.8124 7.76081C14.9374 7.92081 14.9999 8.11165 14.9999 8.33331C14.9999 8.54165 14.9407 8.73276 14.8224 8.90665C14.7041 9.08053 14.5479 9.19498 14.3541 9.24998Z" fill="#FFCE28"/>
</svg>
