<svg width="1440" height="560" viewBox="0 0 1440 560" fill="none" xmlns="http://www.w3.org/2000/svg">
    <g clip-path="url(#clip0_836_1043)">
        <g mask="url(#mask0_836_1043)">
            <path
                d="M1149 454.35C1149 469.03 1154.83 483.108 1165.21 493.488C1175.59 503.868 1189.67 509.7 1204.35 509.7C1219.03 509.7 1233.11 503.868 1243.49 493.488C1253.87 483.108 1259.7 469.03 1259.7 454.35C1259.7 439.67 1253.87 425.592 1243.49 415.212C1233.11 404.831 1219.03 399 1204.35 399C1189.67 399 1175.59 404.831 1165.21 415.212C1154.83 425.592 1149 439.67 1149 454.35Z"
                fill="#FFCE28" fill-opacity="0.4" class="triangle-float1" />
            <path
                d="M863 235.35C863 246.051 867.251 256.315 874.818 263.882C882.385 271.449 892.649 275.7 903.35 275.7C914.051 275.7 924.315 271.449 931.882 263.882C939.449 256.315 943.7 246.051 943.7 235.35C943.7 224.649 939.449 214.385 931.882 206.818C924.315 199.251 914.051 195 903.35 195C892.649 195 882.385 199.251 874.818 206.818C867.251 214.385 863 224.649 863 235.35Z"
                fill="#FFCE28" fill-opacity="0.4" class="triangle-float3" />
            <path
                d="M759.04 490.9C759.04 537.941 777.727 583.056 810.991 616.319C844.254 649.583 889.369 668.27 936.41 668.27C983.451 668.27 1028.57 649.583 1061.83 616.319C1095.09 583.056 1113.78 537.941 1113.78 490.9C1113.78 443.858 1095.09 398.744 1061.83 365.48C1028.57 332.217 983.451 313.53 936.41 313.53C889.369 313.53 844.254 332.217 810.991 365.48C777.727 398.744 759.04 443.858 759.04 490.9Z"
                fill="#FFCE28" fill-opacity="0.4" class="triangle-float3" />
            <path
                d="M1330.39 407.8C1330.39 435.149 1341.25 461.378 1360.59 480.717C1379.93 500.055 1406.16 510.92 1433.51 510.92C1460.86 510.92 1487.09 500.055 1506.43 480.717C1525.77 461.378 1536.63 435.149 1536.63 407.8C1536.63 380.451 1525.77 354.222 1506.43 334.883C1487.09 315.544 1460.86 304.68 1433.51 304.68C1406.16 304.68 1379.93 315.544 1360.59 334.883C1341.25 354.222 1330.39 380.451 1330.39 407.8Z"
                fill="#FFCE28" fill-opacity="0.4" class="triangle-float2" />
            <path
                d="M904.34 8.7899C904.34 47.8139 919.842 85.2395 947.436 112.834C975.031 140.428 1012.46 155.93 1051.48 155.93C1090.5 155.93 1127.93 140.428 1155.52 112.834C1183.12 85.2395 1198.62 47.8139 1198.62 8.7899C1198.62 -30.2341 1183.12 -67.6597 1155.52 -95.2538C1127.93 -122.848 1090.5 -138.35 1051.48 -138.35C1012.46 -138.35 975.031 -122.848 947.436 -95.2538C919.842 -67.6597 904.34 -30.2341 904.34 8.7899Z"
                fill="#FFCE28" fill-opacity="0.4" class="triangle-float3" />
            <path
                d="M1326.83 9.40979C1326.83 35.3029 1337.12 60.1354 1355.43 78.4446C1373.73 96.7538 1398.57 107.04 1424.46 107.04C1450.35 107.04 1475.19 96.7538 1493.49 78.4446C1511.8 60.1354 1522.09 35.3029 1522.09 9.40979C1522.09 -16.4833 1511.8 -41.3159 1493.49 -59.625C1475.19 -77.9342 1450.35 -88.2202 1424.46 -88.2202C1398.57 -88.2202 1373.73 -77.9342 1355.43 -59.625C1337.12 -41.3159 1326.83 -16.4833 1326.83 9.40979Z"
                fill="#FFCE28" fill-opacity="0.4" class="triangle-float1" />
        </g>
    </g>
    <defs>
        <style>
            @keyframes float1 {

                0%,
                to {
                    transform: translate(0, 0)
                }

                50% {
                    transform: translate(-20px, 0)
                }
            }

            @keyframes float2 {

                0%,
                to {
                    transform: translate(0, 0)
                }

                50% {
                    transform: translate(-10px, -10px)
                }
            }

            @keyframes float3 {

                0%,
                to {
                    transform: translate(0, 0)
                }

                50% {
                    transform: translate(0, -20px)
                }
            }

            .triangle-float1 {
                animation: float1 3s infinite
            }

            .triangle-float2 {
                animation: float2 2s infinite
            }

            .triangle-float3 {
                animation: float3 4s infinite
            }
        </style>
        <mask id="SvgjsMask1078">
            <path fill="#fff" d="M0 0h1440v560H0z" />
        </mask>
        <clipPath id="clip0_836_1043">
            <rect width="1440" height="560" fill="white" />
        </clipPath>
    </defs>
</svg>