<svg width="100" height="100" viewBox="0 0 100 100" fill="none" xmlns="http://www.w3.org/2000/svg">
<path d="M92.5781 87.703H77.9375V17.0155C77.9375 16.3905 77.5797 15.828 77 15.578L52.4062 4.89047C51.9219 4.68735 51.3594 4.73422 50.9219 5.01547C50.4844 5.31235 50.2188 5.79672 50.2188 6.32797V7.9686H18.1562C17.2969 7.9686 16.5938 8.67172 16.5938 9.5311V87.703H7.42188C6.5625 87.703 5.85938 88.4061 5.85938 89.2655C5.85938 90.1248 6.5625 90.828 7.42188 90.828H50.2188V93.6717C50.2188 94.1405 50.4219 94.5623 50.7656 94.8592C51.0625 95.1092 51.4219 95.2342 51.7797 95.2342C51.8594 95.2342 51.9516 95.2342 52.0297 95.2186L76.6234 91.1717C76.9516 91.1248 77.2328 90.9686 77.4516 90.7498C77.5922 90.7967 77.7469 90.828 77.9047 90.828H92.5766C93.4359 90.828 94.1391 90.1248 94.1391 89.2655C94.1406 88.4061 93.4375 87.703 92.5781 87.703ZM50.2188 87.703H26.2656V17.6405H50.2188V87.703ZM50.2188 14.5155H24.7031C23.8438 14.5155 23.1406 15.2186 23.1406 16.078V87.6248C23.1406 87.6561 23.1406 87.6717 23.1562 87.703H19.7188V11.0936H50.2188V14.5155ZM74.8125 88.2967L53.3438 91.828V8.70297L74.8125 18.0467V88.2967Z" fill="black"/>
<path d="M59.8594 45.9062C57.4375 45.9062 55.4688 47.875 55.4688 50.2969C55.4688 52.7187 57.4375 54.6875 59.8594 54.6875C62.2828 54.6875 64.2516 52.7187 64.2516 50.2969C64.25 47.875 62.2813 45.9062 59.8594 45.9062ZM59.8594 51.5625C59.1578 51.5625 58.5938 51 58.5938 50.2969C58.5938 49.5937 59.1563 49.0312 59.8594 49.0312C60.5625 49.0312 61.1266 49.5937 61.1266 50.2969C61.125 51 60.5625 51.5625 59.8594 51.5625Z" fill="black"/>
</svg>
