<svg width="18" height="18" viewBox="0 0 18 18" fill="none" xmlns="http://www.w3.org/2000/svg">
<path fill-rule="evenodd" clip-rule="evenodd" d="M9.335 1C13.9384 1 17.67 4.73158 17.67 9.335C17.67 13.9384 13.9384 17.67 9.335 17.67C4.73158 17.67 1 13.9384 1 9.335C1 4.73158 4.73158 1 9.335 1ZM2.83787 10.8436C3.12956 12.0959 3.77663 13.2372 4.70133 14.1306C5.62604 15.024 6.78903 15.6313 8.05058 15.8796C7.88971 13.6917 7.1704 12.3789 6.26189 11.653C5.39171 10.957 4.21148 10.6886 2.83787 10.8436ZM12.4081 11.6521C11.4996 12.3798 10.7803 13.6917 10.6194 15.8796C11.8811 15.6312 13.0441 15.0238 13.9689 14.1302C14.8936 13.2367 15.5406 12.0952 15.8321 10.8428C14.4585 10.6878 13.2783 10.9562 12.4081 11.6521ZM9.335 2.667C7.78137 2.66673 6.27641 3.20897 5.08 4.2001C3.88358 5.19123 3.0708 6.56903 2.78202 8.09559L2.74618 8.30229L4.58822 7.93389C5.07331 7.8372 5.53424 7.58132 6.04934 7.23375L6.44692 6.95703C7.11122 6.48526 8.09559 6.001 9.335 6.001C10.4919 6.001 11.4263 6.42275 12.0856 6.86284L12.6207 7.23375C13.0707 7.53797 13.4808 7.77135 13.9009 7.89054L14.0818 7.93389L15.9238 8.30229C15.6776 6.73177 14.8784 5.30089 13.6703 4.26762C12.4622 3.23435 10.9247 2.6667 9.335 2.667Z" fill="#2C2E35"/>
<path d="M17.8999 9.40039C17.8999 14.0948 14.0943 17.9004 9.3999 17.9004C4.70548 17.9004 0.899902 14.0948 0.899902 9.40039C0.899902 4.70597 4.70548 0.900391 9.3999 0.900391C14.0943 0.900391 17.8999 4.70597 17.8999 9.40039ZM2.99466 9.40039C2.99466 12.9379 5.86238 15.8056 9.3999 15.8056C12.9374 15.8056 15.8051 12.9379 15.8051 9.40039C15.8051 5.86287 12.9374 2.99515 9.3999 2.99515C5.86238 2.99515 2.99466 5.86287 2.99466 9.40039Z" fill="#FFCE28"/>
</svg>
