<svg width="20" height="18" viewBox="0 0 20 18" fill="none" xmlns="http://www.w3.org/2000/svg">
<rect width="20" height="18" fill="white" fill-opacity="0.01"/>
<path d="M10 17.5C14.6944 17.5 18.5 13.9183 18.5 9.5C18.5 5.08172 14.6944 1.5 10 1.5C5.30558 1.5 1.5 5.08172 1.5 9.5C1.5 13.9183 5.30558 17.5 10 17.5Z" fill="#2C2E35"/>
<path d="M9.2 13.5H10.8V11.9H9.2V13.5ZM10 4.5C8.3 4.5 7 5.8 7 7.5H8.6C8.6 6.7 9.2 6.1 10 6.1C10.8 6.1 11.4 6.7 11.4 7.5C11.4 9.1 9.2 9.3 9.2 11.1H10.8C10.8 9.8 13 9.6 13 7.5C13 5.8 11.6 4.5 10 4.5Z" fill="#FFCE28"/>
</svg>
