<svg width="100" height="100" viewBox="0 0 100 100" fill="none" xmlns="http://www.w3.org/2000/svg">
<path d="M28.4377 71.7772C23.5159 71.7772 19.5119 75.7811 19.5119 80.703C19.9612 92.5194 36.8948 92.4999 37.344 80.703C37.3635 75.7811 33.3596 71.7772 28.4377 71.7772ZM28.4377 87.4999C24.6877 87.4999 21.6213 84.453 21.6213 80.6835C21.9338 71.66 34.9221 71.66 35.2541 80.6835C35.2541 84.453 32.2073 87.4999 28.4377 87.4999ZM45.176 77.2655L42.051 76.7968C41.7776 75.8202 41.3869 74.8827 40.8987 73.9843L42.8127 71.4257C43.2815 70.8007 43.2229 69.9022 42.6565 69.3554L39.9221 66.621C39.3752 66.0741 38.4768 65.996 37.8518 66.4647L35.2932 68.3397C34.3557 67.8319 33.3791 67.4218 32.3635 67.1288L31.8948 63.9843C31.7776 63.203 31.1135 62.6366 30.3323 62.6366H26.4651C25.6838 62.6366 25.0002 63.2225 24.883 64.0038L24.4338 67.1679C23.4573 67.4608 22.5198 67.8514 21.6213 68.3397L19.0627 66.4647C18.4182 65.996 17.5588 66.0741 16.9924 66.621L14.258 69.3554C13.7112 69.9022 13.633 70.8007 14.1018 71.4257L16.0159 73.9843C15.5276 74.8827 15.1565 75.8202 14.8635 76.7968L11.7385 77.2655C10.9573 77.3827 10.3909 78.0468 10.3909 78.828V82.6952C10.3909 83.4764 10.9768 84.16 11.758 84.2772L14.9026 84.7264C15.1955 85.703 15.5862 86.6405 16.0745 87.539L14.1994 90.0975C13.7307 90.7421 13.8088 91.6014 14.3557 92.1679L17.0901 94.9022C17.6565 95.4686 18.5354 95.5272 19.1604 95.0585L21.6994 93.1444C22.5588 93.6132 23.4573 93.9843 24.3948 94.2577L24.844 97.4218C24.9612 98.203 25.6252 98.7889 26.426 98.7889H30.2932C31.0744 98.7889 31.7385 98.2225 31.8752 97.4413L32.344 94.3163C33.3205 94.0429 34.2776 93.6522 35.1565 93.164L37.6955 95.078C38.3205 95.5468 39.219 95.4882 39.7854 94.9218L42.5198 92.1874C43.0862 91.621 43.1448 90.7616 42.676 90.1171L40.801 87.5585C41.2893 86.66 41.6799 85.7225 41.9729 84.746L45.1174 84.2968C45.8987 84.1796 46.4846 83.5155 46.4846 82.7147V78.8475C46.5237 78.0468 45.9573 77.3827 45.176 77.2655ZM44.4143 82.2655L41.0159 82.7538C40.5862 82.8124 40.2541 83.1249 40.1369 83.5546C39.844 84.8046 39.3362 85.9765 38.6721 87.0507C38.4377 87.4218 38.4573 87.8905 38.7112 88.2225L40.7424 90.9764L38.633 93.0858L35.8791 91.035C35.5276 90.7811 35.0588 90.7616 34.7073 90.9764C33.6135 91.6405 32.4416 92.1288 31.1916 92.4218C30.7815 92.5194 30.4494 92.871 30.3909 93.2811L29.883 96.66H26.8948L26.4065 93.2616C26.3479 92.8319 26.0354 92.4804 25.6057 92.3827C24.3948 92.0897 23.2424 91.621 22.1877 90.9764C21.8166 90.7616 21.3479 90.7811 21.0159 91.035L18.2619 93.0858L16.1526 90.9764L18.1838 88.2225C18.4377 87.871 18.4573 87.4022 18.2229 87.0507C17.5393 85.9569 17.051 84.785 16.758 83.535C16.6604 83.1249 16.3088 82.8124 15.8791 82.7343L12.4807 82.246V79.2577L15.8596 78.7499C16.2893 78.6913 16.6213 78.3593 16.719 77.9491C17.0119 76.6991 17.4807 75.5077 18.1448 74.4335C18.3596 74.0624 18.3401 73.5936 18.0862 73.2616L16.0549 70.5077L18.1643 68.3983L20.9182 70.41C21.2698 70.664 21.7385 70.6835 22.0901 70.4491C23.1643 69.785 24.3557 69.2772 25.6057 68.9843C26.0159 68.8866 26.3284 68.535 26.4065 68.1054L26.8948 64.7069H29.883L30.3909 68.0858C30.4494 68.5155 30.7815 68.8475 31.1916 68.9452C32.4612 69.2382 33.6916 69.746 34.8049 70.4296C35.176 70.664 35.6448 70.6444 35.9768 70.3905L38.7307 68.3593L40.8401 70.4686L38.7893 73.2225C38.5354 73.5741 38.5159 74.0233 38.7307 74.3944C39.3948 75.4882 39.883 76.66 40.1565 77.91C40.2541 78.3397 40.6057 78.6522 41.0159 78.7108L44.3948 79.2186V82.2655H44.4143ZM77.2268 41.035C77.2268 37.4022 77.2268 13.4179 77.2268 10.4491C77.2268 7.53895 74.8635 5.17567 71.9534 5.17567H67.1487V3.98426C67.1877 2.53895 65.8791 1.21083 64.4143 1.24989C62.9104 1.24989 61.6799 2.48036 61.6799 3.98426V5.17567H53.887V3.98426C53.926 2.53895 52.6174 1.1913 51.1526 1.24989C49.6487 1.24989 48.4182 2.48036 48.4182 3.98426V5.17567H40.6252V3.98426C40.6643 2.49989 39.3557 1.21083 37.8909 1.24989C36.3869 1.24989 35.1565 2.48036 35.1565 3.98426V5.17567H27.3635V3.98426C27.4026 2.53895 26.094 1.21083 24.6291 1.24989C23.1252 1.24989 21.8948 2.48036 21.8948 3.98426V5.17567H12.5002C9.62914 5.17567 7.05101 7.28505 6.62133 9.98036L0.254137 51.2304C-0.234144 54.0429 2.09008 56.4257 4.92211 56.3671H12.051C12.7737 58.6522 14.7463 60.2538 17.051 60.2538H47.969C43.2034 76.6991 56.3284 93.9843 73.4963 93.7108C106.348 92.6757 109.395 46.5624 77.2268 41.035ZM11.758 10.4491V54.2577H4.92211C3.34008 54.2968 2.09007 53.1249 2.34398 51.5624L8.71117 10.2929C8.98461 8.53505 10.9377 7.1288 12.8127 7.26551C12.1877 8.16395 11.758 9.3163 11.758 10.4491ZM63.7698 3.98426C63.7698 3.18348 65.0393 3.12489 65.0393 3.98426V8.3788C65.0393 9.21864 63.7698 9.21864 63.7698 8.3788V3.98426ZM50.4885 3.98426C50.4885 3.16395 51.758 3.14442 51.758 3.98426V8.3788C51.758 9.19911 50.4885 9.21864 50.4885 8.3788V3.98426ZM37.2268 3.98426C37.2268 3.14442 38.4963 3.14442 38.4963 3.98426V8.3788C38.4963 9.21864 37.2268 9.21864 37.2268 8.3788V3.98426ZM23.9455 3.98426C23.9455 3.18348 25.2151 3.12489 25.2151 3.98426V8.3788C25.2151 8.73036 24.9416 9.02333 24.5705 9.02333C24.219 9.02333 23.926 8.73036 23.926 8.3788V3.98426H23.9455ZM13.8674 10.4491C13.8674 8.6913 15.2932 7.26551 17.051 7.26551H21.8557V8.3788C21.8557 9.8827 23.0862 11.1132 24.5901 11.1132C26.094 11.1132 27.3244 9.8827 27.3244 8.3788V7.26551H35.1174V8.3788C35.1174 9.8827 36.3479 11.1132 37.8518 11.1132C39.3557 11.1132 40.5862 9.8827 40.5862 8.3788V7.26551H48.3791V8.3788C48.3791 9.8827 49.6096 11.1132 51.1135 11.1132C52.6174 11.1132 53.8479 9.8827 53.8479 8.3788V7.26551H61.6409V8.3788C61.6409 9.8827 62.8713 11.1132 64.3752 11.1132C65.8791 11.1132 67.1096 9.8827 67.1096 8.3788V7.26551H71.9143C73.6721 7.26551 75.0979 8.6913 75.0979 10.4491V14.3358H13.8674V10.4491ZM17.0315 58.1444C15.4885 58.1444 14.1799 56.8944 13.9065 55.1366C13.8674 54.9218 13.8479 54.7265 13.8479 54.4921V16.4452H75.0979V40.8202C74.5705 40.8007 74.0627 40.7811 73.5354 40.7811C62.6174 40.6054 52.2463 47.871 48.5744 58.1444H17.0315ZM49.1213 67.2265C49.1213 57.9491 54.7463 49.121 63.1448 45.1757C78.8088 37.5194 98.1252 49.6288 97.8518 67.2265C96.5041 99.5507 50.4494 99.5507 49.1213 67.2265ZM26.3869 21.3671H22.7737C21.4846 21.3671 20.4494 22.4022 20.4494 23.6913V27.3046C20.4494 28.5936 21.4846 29.6288 22.7737 29.6288H26.3869C27.676 29.6288 28.7112 28.5936 28.7112 27.3046V23.6913C28.7112 22.4218 27.676 21.3671 26.3869 21.3671ZM26.6018 27.3046C26.6018 27.4218 26.5041 27.5194 26.3869 27.5194H22.7737C22.6565 27.5194 22.5588 27.4218 22.5588 27.3046V23.6913C22.5588 23.5741 22.6565 23.4765 22.7737 23.4765H26.3869C26.5041 23.4765 26.6018 23.5741 26.6018 23.6913V27.3046ZM39.6682 21.3671H36.0549C34.7659 21.3671 33.7307 22.4022 33.7307 23.6913V27.3046C33.7307 28.5936 34.7659 29.6288 36.0549 29.6288H39.6682C40.9573 29.6288 41.9924 28.5936 41.9924 27.3046V23.6913C41.9924 22.4218 40.9377 21.3671 39.6682 21.3671ZM39.883 27.3046C39.883 27.4218 39.7854 27.5194 39.6682 27.5194H36.0549C35.9377 27.5194 35.8401 27.4218 35.8401 27.3046V23.6913C35.8401 23.5741 35.9377 23.4765 36.0549 23.4765H39.6682C39.7854 23.4765 39.883 23.5741 39.883 23.6913V27.3046ZM49.3362 29.6288H52.9299C54.219 29.6288 55.2541 28.5936 55.2541 27.3046V23.6913C55.2541 22.4022 54.219 21.3671 52.9299 21.3671H49.3166C48.0276 21.3671 46.9924 22.4022 46.9924 23.6913V27.3046C47.012 28.5936 48.0471 29.6288 49.3362 29.6288ZM49.1018 23.6913C49.1018 23.5741 49.1994 23.4765 49.3166 23.4765H52.9299C53.0471 23.4765 53.1448 23.5741 53.1448 23.6913V27.3046C53.1448 27.4218 53.0471 27.5194 52.9299 27.5194H49.3166C49.1994 27.5194 49.1018 27.4218 49.1018 27.3046V23.6913ZM62.5979 29.6288H66.2112C67.5002 29.6288 68.5354 28.5936 68.5354 27.3046V23.6913C68.5354 22.4022 67.5002 21.3671 66.2112 21.3671H62.5979C61.3088 21.3671 60.2737 22.4022 60.2737 23.6913V27.3046C60.2737 28.5936 61.3284 29.6288 62.5979 29.6288ZM62.383 23.6913C62.383 23.5741 62.4807 23.4765 62.5979 23.4765H66.2112C66.3284 23.4765 66.426 23.5741 66.426 23.6913V27.3046C66.426 27.4218 66.3284 27.5194 66.2112 27.5194H62.5979C62.4807 27.5194 62.383 27.4218 62.383 27.3046V23.6913ZM26.3869 33.164H22.7737C21.4846 33.164 20.4494 34.1991 20.4494 35.4882V39.1015C20.4494 40.3905 21.4846 41.4257 22.7737 41.4257H26.3869C27.676 41.4257 28.7112 40.3905 28.7112 39.1015V35.4882C28.7112 34.2186 27.676 33.164 26.3869 33.164ZM26.6018 39.1015C26.6018 39.2186 26.5041 39.3163 26.3869 39.3163H22.7737C22.6565 39.3163 22.5588 39.2186 22.5588 39.1015V35.4882C22.5588 35.371 22.6565 35.2733 22.7737 35.2733H26.3869C26.5041 35.2733 26.6018 35.371 26.6018 35.4882V39.1015ZM39.6682 33.164H36.0549C34.7659 33.164 33.7307 34.1991 33.7307 35.4882V39.1015C33.7307 40.3905 34.7659 41.4257 36.0549 41.4257H39.6682C40.9573 41.4257 41.9924 40.3905 41.9924 39.1015V35.4882C41.9924 34.2186 40.9377 33.164 39.6682 33.164ZM39.883 39.1015C39.883 39.2186 39.7854 39.3163 39.6682 39.3163H36.0549C35.9377 39.3163 35.8401 39.2186 35.8401 39.1015V35.4882C35.8401 35.371 35.9377 35.2733 36.0549 35.2733H39.6682C39.7854 35.2733 39.883 35.371 39.883 35.4882V39.1015ZM55.2541 35.4882C55.2541 34.1991 54.219 33.164 52.9299 33.164H49.3166C48.0276 33.164 46.9924 34.1991 46.9924 35.4882V39.1015C46.9924 40.3905 48.0276 41.4257 49.3166 41.4257H52.9299C54.219 41.4257 55.2541 40.3905 55.2541 39.1015V35.4882ZM53.1643 39.1015C53.1643 39.2186 53.0666 39.3163 52.9495 39.3163H49.3362C49.219 39.3163 49.1213 39.2186 49.1213 39.1015V35.4882C49.1213 35.371 49.219 35.2733 49.3362 35.2733H52.9299C53.0471 35.2733 53.1448 35.371 53.1448 35.4882V39.1015H53.1643ZM26.3869 44.9608H22.7737C21.4846 44.9608 20.4494 45.996 20.4494 47.285V50.8983C20.4494 52.1874 21.4846 53.2225 22.7737 53.2225H26.3869C27.676 53.2225 28.7112 52.1874 28.7112 50.8983V47.285C28.7112 46.0155 27.676 44.9608 26.3869 44.9608ZM26.6018 50.8983C26.6018 51.0155 26.5041 51.1132 26.3869 51.1132H22.7737C22.6565 51.1132 22.5588 51.0155 22.5588 50.8983V47.285C22.5588 47.1679 22.6565 47.0702 22.7737 47.0702H26.3869C26.5041 47.0702 26.6018 47.1679 26.6018 47.285V50.8983ZM39.6682 44.9608H36.0549C34.7659 44.9608 33.7307 45.996 33.7307 47.285V50.8983C33.7307 52.1874 34.7659 53.2225 36.0549 53.2225H39.6682C40.9573 53.2225 41.9924 52.1874 41.9924 50.8983V47.285C41.9924 46.0155 40.9377 44.9608 39.6682 44.9608ZM39.883 50.8983C39.883 51.0155 39.7854 51.1132 39.6682 51.1132H36.0549C35.9377 51.1132 35.8401 51.0155 35.8401 50.8983V47.285C35.8401 47.1679 35.9377 47.0702 36.0549 47.0702H39.6682C39.7854 47.0702 39.883 47.1679 39.883 47.285V50.8983ZM73.4768 45.3515C61.4065 45.3515 51.6018 55.1757 51.6018 67.2265C52.8127 96.2499 94.1604 96.2499 95.3713 67.2265C95.3518 55.1757 85.5471 45.3515 73.4768 45.3515ZM73.4768 87.0116C62.5784 87.0116 53.6916 78.1444 53.6916 67.2265C54.7854 40.996 92.1682 40.996 93.2424 67.2265C93.2619 78.1444 84.3752 87.0116 73.4768 87.0116ZM74.5315 80.6835V82.8515C74.5315 83.4374 74.0627 83.9061 73.4768 83.9061C72.8909 83.9061 72.4221 83.4374 72.4221 82.8515V80.6835C72.4221 80.0975 72.8909 79.6288 73.4768 79.6288C74.0627 79.6288 74.5315 80.1171 74.5315 80.6835ZM72.4221 53.7694V51.6015C72.4221 51.0155 72.8909 50.5468 73.4768 50.5468C74.0627 50.5468 74.5315 51.0155 74.5315 51.6015V53.7694C74.5315 54.3554 74.0627 54.8241 73.4768 54.8241C72.8909 54.8241 72.4221 54.3554 72.4221 53.7694ZM60.0198 68.2811H57.8518C56.4846 68.2811 56.4846 66.1913 57.8518 66.1718H60.0198C61.3869 66.1913 61.3869 68.2811 60.0198 68.2811ZM90.1565 67.2265C90.1565 67.8124 89.6877 68.2811 89.1018 68.2811H86.9338C86.3479 68.2811 85.8791 67.8124 85.8791 67.2265C85.8791 66.6405 86.3479 66.1718 86.9338 66.1718H89.1018C89.6877 66.1718 90.1565 66.6405 90.1565 67.2265ZM82.5588 52.871C82.0705 52.5585 81.426 52.7147 81.1135 53.203L74.1213 64.2382C71.6409 63.6327 69.512 66.5429 70.8401 68.7108L65.0979 75.5468C64.7268 75.996 64.7854 76.66 65.2346 77.0311C65.6838 77.4022 66.3479 77.3436 66.719 76.8944L72.4612 70.0585C75.2541 71.1522 77.7932 67.6561 75.8987 65.3515L82.8909 54.2968C83.1838 53.8475 83.0471 53.1835 82.5588 52.871ZM73.4768 68.1835C72.2463 68.1444 72.2268 66.3085 73.4768 66.2889C74.7073 66.2889 74.7073 68.164 73.4768 68.1835Z" fill="black"/>
</svg>
