<svg width="102" height="49" viewBox="0 0 102 49" fill="none" xmlns="http://www.w3.org/2000/svg">
<path fill-rule="evenodd" clip-rule="evenodd" d="M31.9 25.223V5.927C31.9 5.411 32.094 4.929 32.484 4.479C32.8488 4.03745 33.3259 3.70236 33.865 3.509V3.319H32.286C31.71 3.319 31.014 3.459 30.197 3.739L29.68 1H40.019C42.169 1 43.781 2.009 44.855 4.027C45.925 6.045 46.459 9.02 46.459 12.951C46.459 21.133 44.195 25.223 39.665 25.223H31.9ZM34.754 47.81V36.484C34.754 35.914 34.559 35.444 34.17 35.077C33.775 34.715 33.287 34.534 32.706 34.534C32.124 34.534 31.661 34.715 31.316 35.077C30.97 35.445 30.798 35.914 30.798 36.484V47.81H26.775V34.469C26.775 34.029 26.735 33.663 26.652 33.366C26.5785 33.0801 26.485 32.7997 26.372 32.527H30.7L30.798 34.37L31.868 33.054C32.158 32.703 32.449 32.527 32.74 32.527H36.367C37.146 32.527 37.754 32.736 38.193 33.153C38.626 33.569 38.843 34.107 38.843 34.765V47.81H34.754ZM66.051 47.81V34.469C66.051 33.964 65.917 33.317 65.648 32.527H70.238V47.81H66.051ZM70.616 28.152C70.616 28.788 70.369 29.309 69.876 29.714C69.3967 30.1148 68.7898 30.3308 68.165 30.323C67.5353 30.3293 66.9236 30.1137 66.437 29.714C65.933 29.309 65.681 28.788 65.681 28.152C65.681 27.559 65.933 27.058 66.438 26.646C66.9244 26.2469 67.5358 26.0316 68.165 26.038C68.812 26.038 69.382 26.241 69.875 26.646C70.369 27.058 70.616 27.559 70.616 28.152ZM72.86 47.81V34.436C72.86 33.822 72.715 33.186 72.424 32.527H76.784L76.916 34.304L78.19 33.153C78.596 32.736 79.079 32.527 79.638 32.527H81.209C81.681 32.527 82.039 32.621 82.287 32.807C82.533 32.993 82.679 33.207 82.723 33.449L80.641 36.451C80.483 35.414 79.857 34.896 78.766 34.896C78.229 34.896 77.787 35.066 77.442 35.406C77.091 35.752 76.916 36.199 76.916 36.747V47.81H72.86ZM88.858 47.81C87.811 47.81 86.912 47.623 86.161 47.25C85.4245 46.8854 84.7953 46.3358 84.335 45.655C83.863 44.964 83.515 44.122 83.29 43.13C83.07 42.143 82.961 41.046 82.961 39.84C82.961 38.37 83.095 37.142 83.364 36.155C83.633 35.162 84.047 34.381 84.606 33.81C85.16 33.24 85.851 32.834 86.679 32.593C87.507 32.352 88.48 32.231 89.599 32.231C90.608 32.231 91.485 32.363 92.231 32.626C92.982 32.889 93.607 33.317 94.106 33.909C94.611 34.502 94.986 35.289 95.233 36.269C95.48 37.246 95.603 38.436 95.603 39.839H87.05C87.072 40.959 87.13 41.929 87.223 42.751C87.311 43.579 87.489 44.257 87.757 44.783C88.0117 45.2956 88.4321 45.7072 88.95 45.951C89.471 46.203 90.192 46.329 91.113 46.329C91.738 46.329 92.788 46.231 94.263 46.033L94.601 47.81H88.858ZM91.441 37.866C91.441 37.383 91.417 36.895 91.367 36.401C91.3311 35.9412 91.2259 35.4894 91.055 35.061C90.8992 34.6861 90.6565 34.3536 90.347 34.091C90.046 33.838 89.648 33.711 89.155 33.711C88.442 33.711 87.913 34.074 87.567 34.798C87.217 35.527 87.041 36.55 87.041 37.866H91.441ZM59.281 47.81V36.418H52.43V47.81H48.268C48.268 35.382 48.441 23.924 48.441 12.145C48.441 11.542 48.301 10.92 48.021 10.278H52.208L52.331 12.014L53.557 10.887C53.947 10.481 54.409 10.278 54.947 10.278H56.46C56.91 10.278 57.253 10.368 57.488 10.549C57.724 10.73 57.864 10.939 57.908 11.175L55.909 14.111C55.761 13.102 55.161 12.598 54.108 12.598C53.592 12.598 53.168 12.762 52.833 13.091C52.498 13.426 52.331 13.861 52.331 14.399C52.331 20.979 52.43 27.337 52.43 33.942H59.282V26.128C59.282 24.335 59.422 22.558 59.422 20.79V12.096C59.422 11.602 59.224 11.051 58.969 10.278H63.386C63.386 22.797 63.411 35.275 63.411 47.81H59.281ZM38.644 22.674C39.242 22.674 39.769 22.504 40.224 22.164C40.674 21.818 41.049 21.259 41.351 20.486C41.647 19.712 41.871 18.709 42.025 17.476C42.173 16.241 42.247 14.733 42.247 12.951C42.247 11.125 42.146 9.59 41.943 8.345C41.74 7.1 41.438 6.105 41.038 5.359C40.643 4.619 40.144 4.09 39.541 3.772C38.943 3.448 38.247 3.287 37.451 3.287H35.938V22.674H38.644ZM63.731 5.993C63.731 6.613 63.496 7.123 63.024 7.523C62.5655 7.91307 61.9809 8.12343 61.379 8.115C60.759 8.115 60.209 7.917 59.726 7.523C59.243 7.123 59.002 6.613 59.002 5.993C59.002 5.411 59.243 4.923 59.726 4.529C60.208 4.129 60.759 3.929 61.379 3.929C62.004 3.929 62.552 4.129 63.024 4.529C63.496 4.923 63.731 5.411 63.731 5.993ZM69.785 25.223L65.985 12.433C65.8768 12.0782 65.7362 11.7341 65.565 11.405C65.395 11.06 65.204 10.684 64.99 10.278H69.464L72.138 19.745L74.458 12.433C74.6583 11.8311 74.758 11.2003 74.753 10.566V10.278H77.163L72.557 25.223H69.785ZM83.185 25.223C82.175 25.223 81.311 25.04 80.593 24.673C79.8831 24.3131 79.2792 23.7744 78.841 23.11C78.386 22.435 78.051 21.615 77.838 20.65C77.624 19.68 77.517 18.605 77.517 17.426C77.517 15.989 77.646 14.786 77.903 13.815C78.161 12.85 78.559 12.088 79.096 11.528C79.634 10.975 80.3 10.577 81.095 10.336C81.89 10.1 82.822 9.982 83.891 9.982C84.862 9.982 85.707 10.111 86.425 10.369C87.1287 10.6166 87.7514 11.0515 88.226 11.627C88.709 12.208 89.068 12.976 89.304 13.93C89.54 14.884 89.657 16.05 89.657 17.426H81.45C81.472 18.523 81.524 19.474 81.606 20.28C81.694 21.08 81.866 21.739 82.124 22.254C82.3654 22.7529 82.7681 23.1556 83.267 23.397C83.772 23.644 84.465 23.767 85.348 23.767C85.946 23.767 86.955 23.672 88.375 23.48L88.696 25.223H83.185ZM85.66 15.493C85.66 15.021 85.64 14.544 85.602 14.062C85.5663 13.6125 85.4611 13.1712 85.29 12.754C85.1444 12.3889 84.9128 12.0644 84.615 11.808C84.325 11.561 83.944 11.438 83.472 11.438C82.787 11.438 82.277 11.791 81.942 12.498C81.608 13.206 81.44 14.204 81.44 15.493H85.66ZM91.525 25.223V12.145C91.525 11.542 91.385 10.92 91.105 10.278H95.292L95.423 12.014L96.649 10.887C97.033 10.481 97.493 10.278 98.031 10.278H99.544C99.999 10.278 100.345 10.368 100.581 10.549C100.816 10.73 100.956 10.939 101 11.175L99.001 14.111C98.848 13.102 98.245 12.598 97.191 12.598C96.676 12.598 96.254 12.762 95.925 13.091C95.591 13.426 95.423 13.861 95.423 14.399V25.223H91.525Z" fill="white"/>
<path d="M50.308 20.1321H51.032V16.8671H50.308V20.1321ZM61.576 20.1321H62.299V16.8671H61.576V20.1321ZM61.576 43.3271H62.299V40.0541H61.576V43.3271ZM62.3 47.1851V43.9101H61.576V47.1841H62.299L62.3 47.1851ZM50.308 47.1851H51.032V43.9101H50.308V47.1851ZM50.308 16.0611V16.0691C50.308 16.2341 50.358 16.2831 50.522 16.2831H51.032V13.0101H50.308V16.0611ZM61.576 16.0611C61.576 16.2341 61.625 16.2831 61.789 16.2831H62.299V13.0101H61.576V16.0611ZM50.308 20.9381V23.9901H51.032V20.7161H50.522C50.357 20.7161 50.308 20.7661 50.308 20.9301V20.9381ZM61.576 20.9381V23.9901H62.299V20.7161H61.789C61.625 20.7161 61.576 20.7661 61.576 20.9381ZM50.308 39.2561V39.2641C50.308 39.4291 50.358 39.4781 50.522 39.4781H51.032V36.2041H50.308V39.2561ZM50.308 43.1131V43.1221C50.308 43.2781 50.358 43.3271 50.522 43.3271H51.032V40.0541H50.308V43.1131ZM50.308 35.4061C50.308 35.7271 51.032 35.7271 51.032 35.4061V32.3461H50.308V35.4061ZM61.576 35.4061C61.576 35.7271 62.299 35.7271 62.299 35.4061V32.3461H61.576V35.4061ZM61.576 39.2561C61.576 39.5851 62.299 39.5851 62.299 39.2561V36.2041H61.576V39.2561ZM50.308 24.7881V27.8401H51.032V24.7881C51.032 24.4681 50.308 24.4681 50.308 24.7881ZM61.576 24.7881V27.8401H62.299V24.7881C62.299 24.4681 61.576 24.4681 61.576 24.7881ZM61.576 31.6971H62.299V28.4971H61.576V31.6971ZM62.304 11.8501H61.58C61.58 12.2781 61.465 12.4421 61.942 12.4421C62.189 12.4421 62.279 12.4011 62.304 12.2941V11.8501ZM50.308 12.0641V12.1211C50.308 12.4671 50.324 12.4261 50.818 12.4261C51.089 12.4261 51.032 12.2611 51.032 11.8501H50.472C50.357 11.8661 50.308 11.9241 50.308 12.0641ZM50.308 31.6971H51.032V28.4971H50.308V31.6971Z" fill="#2C2E35"/>
<path d="M5.12601 45.696C5.48601 45.854 6.18801 46.372 6.62701 46.636C10.112 48.725 14.598 48.54 18.101 46.626L19.558 45.582L18.514 44.52C18.162 44.66 17.688 45.081 17.267 45.31C14.265 46.96 10.534 47.022 7.52201 45.345C7.06601 45.09 6.59201 44.73 6.23201 44.555L5.12601 45.696Z" fill="#FFCE28"/>
<path d="M8.25001 42.5089L7.22301 43.5709C7.93301 44.5189 10.769 45.2739 12.367 45.2659C14.307 45.2659 16.387 44.5189 17.52 43.5979L16.432 42.4559C14.465 43.6239 12.525 44.1509 10.093 43.3519C9.34701 43.1149 8.78501 42.6929 8.25001 42.5089ZM11.7 35.7759C9.15401 36.6539 10.365 40.3409 12.902 39.6119C13.807 39.3569 14.579 38.3119 14.237 37.1019C13.973 36.2059 12.902 35.3629 11.7 35.7759Z" fill="#FFCE28"/>
<path d="M9.118 41.6492C10.215 42.7992 13.727 42.9922 15.597 41.6752L14.49 40.5342C12.77 41.3242 11.9 41.1572 10.189 40.5422L9.118 41.6502V41.6492Z" fill="#FFCE28"/>
<path d="M20.511 33.502C19.344 33.678 17.702 33.414 16.499 33.3C13.567 33.028 10.793 33.063 7.879 33.309C7.149 33.379 6.088 33.511 5.149 33.555L3.287 33.994C2.76 34.125 1.812 34.459 1.277 34.239C0.557001 37.374 1.259 40.745 3.173 43.405C3.489 43.835 3.849 44.177 4.095 44.581C4.49 44.397 5.131 43.694 5.35 43.396C4.876 42.931 2.585 40.174 3.568 38.989C4.464 37.9 7.308 39.182 8.353 40.341L9.573 39.173C9.467 38.69 9.16 38.348 9.133 37.637C9.10084 37.0749 9.23548 36.5158 9.52 36.03C10.67 33.985 13.576 34.064 14.69 35.907C15.402 37.075 15.174 37.944 14.709 39.085L15.99 40.375C18.659 37.496 23.935 37.856 19.028 43.395C19.203 43.589 19.388 43.747 19.572 43.958C19.747 44.151 19.941 44.423 20.064 44.59C20.38 44.493 20.318 44.59 20.66 44.107C21.16 43.387 21.293 43.457 21.96 42.237C23.443 39.551 23.777 36.461 22.934 33.581C22.469 33.923 21.775 33.739 21.257 33.642L20.511 33.502Z" fill="white"/>
<path d="M1.688 33.8102C1.89 33.9422 3.005 33.6082 3.304 33.5382L6.534 32.7662C8.29 32.3972 7.447 31.4662 7.702 29.9922C7.886 28.8942 10.292 28.7982 11.126 28.6662L12.302 28.6222C13.417 28.6312 14.426 28.6402 15.568 28.9822C16.428 29.2372 16.525 29.6762 16.542 30.3162C16.595 32.0992 16.419 32.2562 18.315 32.5732L21.546 33.1702C22.846 33.4242 23.346 33.5382 22.213 31.1602C20.826 28.2362 18.087 25.9882 14.979 25.2162C13.469 24.8472 11.617 24.7512 10.081 25.0932C6.868 25.8042 4.225 27.6212 2.575 30.5802C2.312 31.0632 1.109 33.4422 1.688 33.8102Z" fill="#FFCE28"/>
</svg>
