<svg width="20" height="25" viewBox="0 0 20 25" fill="none" xmlns="http://www.w3.org/2000/svg">
<g clip-path="url(#clip0_536_1988)">
<path d="M6.4906 8.59619H13.5088M13.0859 8.59619L12.7193 9.2928V9.63278C12.7193 10.3541 12.4328 11.0458 11.9227 11.5558C11.4127 12.0658 10.721 12.3524 9.99968 12.3524C9.27841 12.3524 8.58668 12.0658 8.07666 11.5558C7.56663 11.0458 7.2801 10.3541 7.2801 9.63278V9.2928L6.91352 8.59619M13.5088 16.1085H6.4906" stroke="#2C2E35" stroke-linecap="round" stroke-linejoin="round"/>
<path d="M6.91357 16.1085L7.28013 15.4119V15.0719C7.28013 14.3506 7.56666 13.6589 8.07668 13.1489C8.58671 12.6388 9.27846 12.3523 9.99974 12.3523C10.721 12.3523 11.4128 12.6388 11.9228 13.1489C12.4328 13.6589 12.7193 14.3506 12.7193 15.0719V15.4119L13.0859 16.1085" fill="#FFCE28"/>
<path d="M6.91357 16.1085L7.28013 15.4119V15.0719C7.28013 14.3506 7.56666 13.6589 8.07668 13.1489C8.58671 12.6388 9.27846 12.3523 9.99974 12.3523C10.721 12.3523 11.4128 12.6388 11.9228 13.1489C12.4328 13.6589 12.7193 14.3506 12.7193 15.0719V15.4119L13.0859 16.1085H6.91357Z" stroke="#2C2E35" stroke-linecap="round" stroke-linejoin="round"/>
<path d="M10.5206 0.471515C12.5553 2.24185 14.8117 2.70812 16.6378 1.36133C16.7679 1.27171 16.9221 1.22362 17.0801 1.2234C17.238 1.22318 17.3923 1.27084 17.5227 1.36009L19.3556 2.55394C19.535 2.67093 19.6606 2.85436 19.7049 3.06394C19.7491 3.27353 19.7083 3.49211 19.5915 3.67161C18.7691 4.86417 18.2831 6.25622 18.1846 7.70147C18.1846 10.0471 19.6125 11.9512 19.6125 14.6026C19.6125 18.739 17.3976 21.1539 15.2384 21.7756C11.1026 22.9651 11.7262 24.4271 9.99983 24.4271C8.27344 24.4271 8.897 22.9657 4.76125 21.7756C2.60143 21.1546 0.387118 18.739 0.387118 14.6026C0.387118 11.9512 1.81441 10.0471 1.81441 7.70147C1.71608 6.25628 1.23032 4.86425 0.408171 3.67161C0.291587 3.49208 0.251015 3.27358 0.295365 3.06417C0.339712 2.85472 0.465357 2.67144 0.644712 2.55456L2.47759 1.36009C2.60786 1.27097 2.76207 1.22339 2.91992 1.22362C3.07775 1.22383 3.2318 1.27185 3.36183 1.36133C5.18789 2.70812 7.4443 2.24123 9.47905 0.471515C9.6238 0.346574 9.80861 0.277832 9.99983 0.277832C10.191 0.277832 10.3759 0.346574 10.5206 0.471515Z" stroke="#2C2E35" stroke-linecap="round" stroke-linejoin="round"/>
</g>
<defs>
<clipPath id="clip0_536_1988">
<rect width="20" height="24.7222" fill="white"/>
</clipPath>
</defs>
</svg>
