<svg width="16" height="18" viewBox="0 0 16 18" fill="none" xmlns="http://www.w3.org/2000/svg">
<path d="M5.49992 0.666626H6.33325C8.68992 0.666626 9.86909 0.666626 10.6008 1.39913C11.3333 2.13079 11.3333 3.30996 11.3333 5.66663V12.3333C11.3333 14.69 11.3333 15.8691 10.6008 16.6008C9.86909 17.3333 8.68992 17.3333 6.33325 17.3333H5.49992C3.14325 17.3333 1.96409 17.3333 1.23242 16.6008C0.499919 15.8691 0.499919 14.69 0.499919 12.3333V5.66663C0.499919 3.30996 0.499919 2.13079 1.23242 1.39913C1.96409 0.666626 3.14325 0.666626 5.49992 0.666626Z" fill="#2C2E35"/>
<path opacity="0.4" d="M11.3333 5.66667C11.3333 4.385 11.3333 3.4525 11.2158 2.75H11.3333C13.2975 2.75 14.28 2.75 14.89 3.36C15.5 3.97 15.5 4.9525 15.5 6.91667V11.0833C15.5 13.0475 15.5 14.0292 14.89 14.64C14.28 15.25 13.2975 15.25 11.3333 15.25H11.2158C11.3333 14.5475 11.3333 13.615 11.3333 12.3333V5.66667Z" fill="#2C2E35"/>
<path fill-rule="evenodd" clip-rule="evenodd" d="M5.89159 8.55834C5.77454 8.67553 5.7088 8.83438 5.7088 9.00001C5.7088 9.16563 5.77454 9.32448 5.89159 9.44167L7.55825 11.1083C7.61547 11.1697 7.68447 11.219 7.76114 11.2532C7.8378 11.2873 7.92056 11.3057 8.00448 11.3072C8.0884 11.3086 8.17176 11.2932 8.24958 11.2618C8.32741 11.2303 8.3981 11.1836 8.45745 11.1242C8.5168 11.0649 8.56359 10.9942 8.59502 10.9163C8.62646 10.8385 8.64189 10.7552 8.64041 10.6712C8.63893 10.5873 8.62056 10.5046 8.5864 10.4279C8.55224 10.3512 8.50299 10.2822 8.44159 10.225L7.84159 9.62501H13.8333C13.999 9.62501 14.158 9.55916 14.2752 9.44195C14.3924 9.32474 14.4583 9.16577 14.4583 9.00001C14.4583 8.83425 14.3924 8.67528 14.2752 8.55806C14.158 8.44085 13.999 8.37501 13.8333 8.37501H7.84159L8.44159 7.77501C8.50299 7.71779 8.55224 7.64879 8.5864 7.57212C8.62056 7.49546 8.63893 7.41269 8.64041 7.32877C8.64189 7.24486 8.62646 7.1615 8.59502 7.08367C8.56359 7.00585 8.5168 6.93516 8.45745 6.87581C8.3981 6.81646 8.32741 6.76967 8.24958 6.73824C8.17176 6.7068 8.0884 6.69137 8.00448 6.69285C7.92056 6.69433 7.8378 6.7127 7.76114 6.74686C7.68447 6.78102 7.61547 6.83027 7.55825 6.89167L5.89159 8.55834Z" fill="#FFCE28"/>
</svg>
