<svg width="54" height="54" viewBox="0 0 54 54" fill="none" xmlns="http://www.w3.org/2000/svg">
<path d="M53.209 52.418H49.5117V22.6794H50.2122C50.6492 22.6794 51.0032 22.3252 51.0032 21.8884C51.0032 21.4515 50.6492 21.0973 50.2122 21.0973H49.5117V19.3148C49.5117 18.0063 48.4471 16.9418 47.1386 16.9418H46.0364V14.2599C46.0364 13.1715 45.2996 12.2525 44.2987 11.974V9.2051C44.2987 7.89655 43.2341 6.83205 41.9256 6.83205H39.0857V5.74298C39.0857 4.43443 38.0211 3.36994 36.7126 3.36994H35.1399L34.9664 3.20182C32.8373 1.13706 30.0081 0 27 0C23.9919 0 21.1627 1.13706 19.0335 3.20171L18.86 3.36983H17.2873C15.9788 3.36983 14.9142 4.43433 14.9142 5.74288V6.83195H12.0743C10.7658 6.83195 9.70123 7.89645 9.70123 9.205V11.9739C8.70043 12.2524 7.96352 13.1714 7.96352 14.2598V16.9417H6.86137C5.55293 16.9417 4.48833 18.0062 4.48833 19.3147V21.0972H3.7878C3.35085 21.0972 2.99679 21.4514 2.99679 21.8882C2.99679 22.3251 3.35085 22.6793 3.7878 22.6793H4.48833V52.418H0.791016C0.354059 52.418 0 52.7721 0 53.209C0 53.6458 0.354059 54 0.791016 54H53.209C53.6459 54 54 53.6458 54 53.209C54 52.7721 53.6459 52.418 53.209 52.418ZM43.6633 13.4689C44.0995 13.4689 44.4543 13.8237 44.4543 14.2599V16.9418H35.6105V13.4689H43.6633ZM16.4963 5.74298C16.4963 5.30677 16.8511 4.95197 17.2873 4.95197H19.1805C19.3861 4.95197 19.5835 4.87192 19.7312 4.7288L20.1347 4.33751C21.9672 2.56057 24.4053 1.58203 27 1.58203C29.5947 1.58203 32.0328 2.56057 33.8653 4.33751L34.2688 4.7288C34.4164 4.87192 34.6138 4.95197 34.8195 4.95197H36.7127C37.1489 4.95197 37.5037 5.30677 37.5037 5.74298V6.83205H16.4963V5.74298ZM11.2833 9.2051C11.2833 8.76888 11.6381 8.41409 12.0743 8.41409H41.9256C42.3618 8.41409 42.7166 8.76888 42.7166 9.2051V11.8869H11.2833V9.2051ZM34.0284 13.4689V16.9418H19.9716V13.4689H34.0284ZM9.54566 14.2599C9.54566 13.8237 9.90046 13.4689 10.3367 13.4689H18.3896V16.9418H9.54566V14.2599ZM14.9142 52.418H6.07036V50.5379H14.9143V52.418H14.9142ZM14.9142 48.9559H6.07036V40.4282H14.9143V48.9559H14.9142ZM14.9142 38.8461H6.07036V33.6884H14.9143V38.8461H14.9142ZM18.3895 52.418H16.4963V27.626C16.4963 27.1897 16.8511 26.8349 17.2873 26.8349H26.209V28.8654C21.8308 29.2552 18.3895 32.8443 18.3895 37.202V52.418ZM37.5037 52.418H35.6105V44.7336C35.6105 44.2968 35.2564 43.9426 34.8195 43.9426C34.3825 43.9426 34.0284 44.2968 34.0284 44.7336V52.418H19.9716V37.2019C19.9716 33.4571 23.1246 30.4105 27 30.4105C30.8754 30.4105 34.0284 33.4571 34.0284 37.2019V41.5695C34.0284 42.0063 34.3825 42.3605 34.8195 42.3605C35.2564 42.3605 35.6105 42.0063 35.6105 41.5695V37.2019C35.6105 32.8442 32.1693 29.2551 27.791 28.8653V26.8348H36.7127C37.1489 26.8348 37.5037 27.1896 37.5037 27.6259V52.418ZM47.9296 52.418H39.0857V50.5379H47.9296V52.418ZM47.9296 48.9559H39.0857V40.4282H47.9296V48.9559ZM47.9296 38.8461H39.0857V33.6884H47.9296V38.8461ZM47.9296 21.0973H34.8195C34.3825 21.0973 34.0284 21.4515 34.0284 21.8884C34.0284 22.3252 34.3825 22.6794 34.8195 22.6794H47.9297V32.1064H39.0858V27.626C39.0858 26.3174 38.0212 25.2529 36.7127 25.2529H17.2873C15.9788 25.2529 14.9142 26.3174 14.9142 27.626V32.1064H6.07036V22.6794H31.1813C31.6183 22.6794 31.9723 22.3252 31.9723 21.8884C31.9723 21.4515 31.6183 21.0973 31.1813 21.0973H6.07036V19.3148C6.07036 18.8786 6.42516 18.5238 6.86137 18.5238H47.1387C47.575 18.5238 47.9297 18.8786 47.9297 19.3148V21.0973H47.9296ZM43.5078 30.3185C44.9021 30.3185 46.0365 29.2078 46.0365 27.8425C46.0365 26.4773 44.9021 25.3665 43.5078 25.3665C42.1135 25.3665 40.979 26.4772 40.979 27.8425C40.979 29.2078 42.1135 30.3185 43.5078 30.3185ZM43.5078 26.9485C44.0297 26.9485 44.4544 27.3495 44.4544 27.8425C44.4544 28.3354 44.0298 28.7364 43.5078 28.7364C42.9857 28.7364 42.5611 28.3354 42.5611 27.8425C42.5611 27.3495 42.9857 26.9485 43.5078 26.9485ZM10.4922 25.3665C9.09795 25.3665 7.96352 26.4772 7.96352 27.8425C7.96352 29.2078 9.09795 30.3185 10.4922 30.3185C11.8865 30.3185 13.021 29.2078 13.021 27.8425C13.021 26.4772 11.8865 25.3665 10.4922 25.3665ZM10.4922 28.7364C9.97028 28.7364 9.54555 28.3354 9.54555 27.8425C9.54555 27.3496 9.97017 26.9485 10.4922 26.9485C11.0143 26.9485 11.4389 27.3495 11.4389 27.8425C11.4389 28.3354 11.0143 28.7364 10.4922 28.7364Z" fill="#2C2E35"/>
</svg>
