<svg width="105" height="105" viewBox="0 0 105 105" fill="none" xmlns="http://www.w3.org/2000/svg">
<circle cx="52.5" cy="52.5" r="52.5" fill="url(#paint0_linear_2755_2724)"/>
<mask id="mask0_2755_2724" style="mask-type:luminance" maskUnits="userSpaceOnUse" x="19" y="14" width="66" height="66">
<path d="M85 14H19V80H85V14Z" fill="white"/>
</mask>
<g mask="url(#mask0_2755_2724)">
<path d="M80.875 73.8125V51.125H78.8125V47H66.4375V38.75C66.4375 37.2444 65.2206 35.9141 63.3438 35.0375V32.5625H61.2812V35.0375C59.4044 35.9141 58.1875 37.2341 58.1875 38.75V40.8125H45.8125V38.75C45.8125 37.2444 44.5956 35.9141 42.7188 35.0375V32.5625H40.6562V35.0375C38.7794 35.9141 37.5625 37.2341 37.5625 38.75V47H25.1875V51.125H23.125V73.8125H19V75.875H85V73.8125H80.875ZM33.4375 73.8125H29.3125V63.5C29.3125 62.9638 30.0137 62.18 31.375 61.5819C32.7363 62.18 33.4375 62.9638 33.4375 63.5V73.8125ZM37.5625 73.8125H35.5V63.5C35.5 61.7262 33.8294 60.2 31.375 59.375C28.9206 60.2 27.25 61.7262 27.25 63.5V73.8125H25.1875V53.1875H26.7344V55.25H28.7969V53.1875H30.3438V55.25H32.4062V53.1875H33.9531V55.25H36.0156V53.1875H37.5625V73.8125ZM37.5625 51.125H27.25V49.0625H37.5625V51.125ZM39.625 38.75C39.625 38.2138 40.3262 37.43 41.6875 36.8319C43.0488 37.43 43.75 38.2138 43.75 38.75V40.8125H39.625V38.75ZM39.625 49.0625H43.75V51.125H39.625V49.0625ZM43.75 73.8125H39.625V69.6875H43.75V73.8125ZM58.1875 73.8125H45.8125V63.5C45.8125 60.7156 48.3391 58.2303 52 57.3125C55.6609 58.1787 58.1875 60.6641 58.1875 63.5V73.8125ZM64.375 73.8125H60.25V69.6875H64.375V73.8125ZM64.375 67.625H60.25V63.5C60.25 59.5297 56.7437 56.1988 52 55.25C47.2563 56.1988 43.75 59.5297 43.75 63.5V67.625H39.625V53.1875H64.375V67.625ZM45.8125 49.0625H47.3594V51.125H45.8125V49.0625ZM49.4219 49.0625H50.9688V51.125H49.4219V49.0625ZM53.0312 49.0625H54.5781V51.125H53.0312V49.0625ZM56.6406 49.0625H58.1875V51.125H56.6406V49.0625ZM64.375 51.125H60.25V49.0625H64.375V51.125ZM64.375 47H39.625V42.875H64.375V47ZM64.375 40.8125H60.25V38.75C60.25 38.2138 60.9512 37.43 62.3125 36.8319C63.6738 37.43 64.375 38.2138 64.375 38.75V40.8125ZM66.4375 49.0625H76.75V51.125H66.4375V49.0625ZM74.6875 73.8125H70.5625V63.5C70.5625 62.9638 71.2637 62.18 72.625 61.5819C73.9863 62.18 74.6875 62.9638 74.6875 63.5V73.8125ZM76.75 73.8125V63.5C76.75 61.7262 75.0794 60.2 72.625 59.375C70.1706 60.2 68.5 61.7262 68.5 63.5V73.8125H66.4375V53.1875H67.9844V55.25H70.0469V53.1875H71.5938V55.25H73.6562V53.1875H75.2031V55.25H77.2656V53.1875H78.8125V73.8125H76.75Z" fill="#333333"/>
<path d="M28.2813 57.3125C28.0773 57.3125 27.8779 57.373 27.7083 57.4863C27.5387 57.5996 27.4066 57.7607 27.3285 57.9491C27.2504 58.1375 27.23 58.3449 27.2698 58.5449C27.3096 58.745 27.4078 58.9287 27.552 59.073C27.6963 59.2172 27.88 59.3154 28.0801 59.3552C28.2801 59.395 28.4875 59.3746 28.6759 59.2965C28.8643 59.2184 29.0254 59.0863 29.1387 58.9167C29.252 58.7471 29.3125 58.5477 29.3125 58.3438C29.3125 58.0702 29.2039 57.8079 29.0105 57.6145C28.8171 57.4211 28.5548 57.3125 28.2813 57.3125Z" fill="#333333"/>
<path d="M34.4688 57.3125C34.2648 57.3125 34.0654 57.373 33.8958 57.4863C33.7262 57.5996 33.5941 57.7607 33.516 57.9491C33.4379 58.1375 33.4175 58.3449 33.4573 58.5449C33.4971 58.745 33.5953 58.9287 33.7395 59.073C33.8838 59.2172 34.0675 59.3154 34.2676 59.3552C34.4676 59.395 34.675 59.3746 34.8634 59.2965C35.0518 59.2184 35.2129 59.0863 35.3262 58.9167C35.4395 58.7471 35.5 58.5477 35.5 58.3438C35.5 58.0702 35.3914 57.8079 35.198 57.6145C35.0046 57.4211 34.7423 57.3125 34.4688 57.3125Z" fill="#333333"/>
<path d="M44.7813 55.25C44.5773 55.25 44.3779 55.3105 44.2083 55.4238C44.0387 55.5371 43.9066 55.6982 43.8285 55.8866C43.7504 56.075 43.73 56.2824 43.7698 56.4824C43.8096 56.6825 43.9078 56.8662 44.052 57.0105C44.1963 57.1547 44.38 57.2529 44.5801 57.2927C44.7801 57.3325 44.9875 57.3121 45.1759 57.234C45.3643 57.1559 45.5254 57.0238 45.6387 56.8542C45.752 56.6846 45.8125 56.4852 45.8125 56.2812C45.8125 56.0077 45.7039 55.7454 45.5105 55.552C45.3171 55.3586 45.0548 55.25 44.7813 55.25Z" fill="#333333"/>
<path d="M59.2188 55.25C59.0148 55.25 58.8154 55.3105 58.6458 55.4238C58.4762 55.5371 58.3441 55.6982 58.266 55.8866C58.1879 56.075 58.1675 56.2824 58.2073 56.4824C58.2471 56.6825 58.3453 56.8662 58.4895 57.0105C58.6338 57.1547 58.8175 57.2529 59.0176 57.2927C59.2176 57.3325 59.425 57.3121 59.6134 57.234C59.8018 57.1559 59.9629 57.0238 60.0762 56.8542C60.1895 56.6846 60.25 56.4852 60.25 56.2812C60.25 56.0077 60.1414 55.7454 59.948 55.552C59.7546 55.3586 59.4923 55.25 59.2188 55.25Z" fill="#333333"/>
<path d="M69.5312 57.3125C69.3273 57.3125 69.1279 57.373 68.9583 57.4863C68.7887 57.5996 68.6566 57.7607 68.5785 57.9491C68.5004 58.1375 68.48 58.3449 68.5198 58.5449C68.5596 58.745 68.6578 58.9287 68.802 59.073C68.9463 59.2172 69.13 59.3154 69.3301 59.3552C69.5301 59.395 69.7375 59.3746 69.9259 59.2965C70.1143 59.2184 70.2754 59.0863 70.3887 58.9167C70.502 58.7471 70.5625 58.5477 70.5625 58.3438C70.5625 58.0702 70.4539 57.8079 70.2605 57.6145C70.0671 57.4211 69.8048 57.3125 69.5312 57.3125Z" fill="#333333"/>
<path d="M75.7188 57.3125C75.5148 57.3125 75.3154 57.373 75.1458 57.4863C74.9762 57.5996 74.8441 57.7607 74.766 57.9491C74.6879 58.1375 74.6675 58.3449 74.7073 58.5449C74.7471 58.745 74.8453 58.9287 74.9895 59.073C75.1338 59.2172 75.3175 59.3154 75.5176 59.3552C75.7176 59.395 75.925 59.3746 76.1134 59.2965C76.3018 59.2184 76.4629 59.0863 76.5762 58.9167C76.6895 58.7471 76.75 58.5477 76.75 58.3438C76.75 58.0702 76.6414 57.8079 76.448 57.6145C76.2546 57.4211 75.9923 57.3125 75.7188 57.3125Z" fill="#333333"/>
</g>
<defs>
<linearGradient id="paint0_linear_2755_2724" x1="52.5" y1="0" x2="52.5" y2="105" gradientUnits="userSpaceOnUse">
<stop stop-color="#FFCE28"/>
<stop offset="0.5" stop-color="#FFCE28" stop-opacity="0.5"/>
<stop offset="1" stop-color="#FFCE28" stop-opacity="0.2"/>
</linearGradient>
</defs>
</svg>
