<svg width="12" height="15" viewBox="0 0 12 15" fill="none" xmlns="http://www.w3.org/2000/svg">
<path d="M2.56961 12H12.0001C11.9979 12.6975 11.9836 13.2173 11.9154 13.6275C11.8329 14.1173 11.6829 14.376 11.4534 14.5605C11.2231 14.745 10.9006 14.8658 10.2909 14.931C9.66311 14.9985 8.83136 15 7.63886 15H4.31636C3.12386 15 2.29136 14.9993 1.66436 14.931C1.05461 14.8658 0.732106 14.745 0.501856 14.5605C0.272356 14.376 0.122356 14.1172 0.0398561 13.6282C0.033806 13.5906 0.0283055 13.5528 0.0233563 13.515C-0.00664374 13.2968 -0.0216438 13.1872 0.0728562 12.93C0.168106 12.672 0.208606 12.6323 0.291106 12.5513C0.558992 12.2973 0.892996 12.1239 1.25486 12.051C1.47236 12.0045 1.75736 12 2.56961 12Z" fill="#2C2E35"/>
<path opacity="0.5" d="M0.54525 0.54975C0.77475 0.31875 1.09575 0.16875 1.70325 0.08625C2.32875 0.00150001 3.15675 0 4.34475 0H7.65525C8.84325 0 9.67125 0.00150001 10.2968 0.08625C10.9043 0.16875 11.2253 0.31875 11.4548 0.54975C11.6835 0.78075 11.8327 1.10475 11.9145 1.7175C11.9985 2.3475 12 3.18375 12 4.3815V12H2.5695C1.7565 12 1.473 12.0045 1.25475 12.051C0.87 12.1335 0.53475 12.3113 0.291 12.5513C0.2085 12.6323 0.168 12.672 0.0727501 12.93C0.0272916 13.0395 0.00262093 13.1565 0 13.275V4.3815C0 3.18375 0.00149988 2.34825 0.0854999 1.7175C0.16725 1.1055 0.3165 0.78075 0.54525 0.54975Z" fill="#2C2E35"/>
<path d="M2.4375 3.75C2.4375 3.60082 2.49676 3.45774 2.60225 3.35225C2.70774 3.24676 2.85082 3.1875 3 3.1875H9C9.14918 3.1875 9.29226 3.24676 9.39775 3.35225C9.50324 3.45774 9.5625 3.60082 9.5625 3.75C9.5625 3.89918 9.50324 4.04226 9.39775 4.14775C9.29226 4.25324 9.14918 4.3125 9 4.3125H3C2.85082 4.3125 2.70774 4.25324 2.60225 4.14775C2.49676 4.04226 2.4375 3.89918 2.4375 3.75ZM3 5.8125C2.85082 5.8125 2.70774 5.87176 2.60225 5.97725C2.49676 6.08274 2.4375 6.22582 2.4375 6.375C2.4375 6.52418 2.49676 6.66726 2.60225 6.77275C2.70774 6.87824 2.85082 6.9375 3 6.9375H6.75C6.89918 6.9375 7.04226 6.87824 7.14775 6.77275C7.25324 6.66726 7.3125 6.52418 7.3125 6.375C7.3125 6.22582 7.25324 6.08274 7.14775 5.97725C7.04226 5.87176 6.89918 5.8125 6.75 5.8125H3Z" fill="#FFCE28"/>
</svg>
