<svg width="21" height="22" viewBox="0 0 21 22" fill="none" xmlns="http://www.w3.org/2000/svg">
<path d="M10.0514 11.5129C13.2306 11.5129 15.8078 8.93567 15.8078 5.75646C15.8078 2.57726 13.2306 0 10.0514 0C6.87218 0 4.29492 2.57726 4.29492 5.75646C4.29492 8.93567 6.87218 11.5129 10.0514 11.5129Z" fill="#FFCE28"/>
<path fill-rule="evenodd" clip-rule="evenodd" d="M20.0473 20.5117C20.0588 20.5856 20.0452 20.6612 20.0087 20.7264C19.9722 20.7916 19.9148 20.8427 19.8458 20.8715C18.1174 21.5867 15.5716 21.5867 11.4903 21.5867H8.61205C4.53216 21.5867 1.98492 21.5867 0.256545 20.87C0.1878 20.8413 0.130625 20.7905 0.0941168 20.7256C0.0576083 20.6606 0.0438633 20.5853 0.0550693 20.5117C0.67245 16.2505 4.91208 12.952 10.0512 12.952C15.1902 12.952 19.4299 16.2505 20.0473 20.5117Z" fill="#2C2E35"/>
</svg>
