<svg width="25" height="22" viewBox="0 0 25 22" fill="none" xmlns="http://www.w3.org/2000/svg">
<g clip-path="url(#clip0_536_2008)">
<path d="M16.3677 21.5668H5.10289C3.68275 21.5668 2.45901 21.1899 1.56312 20.477C0.540616 19.6624 0 18.4546 0 16.9839C0 15.5666 0.582018 14.3723 1.68492 13.5303C2.38536 12.9945 3.29329 12.6219 4.24599 12.4712C4.53771 10.6939 5.30123 9.17217 6.4744 8.04231C7.73528 6.82924 9.41894 6.15481 11.1686 6.16192C12.725 6.16192 14.1605 6.67463 15.3202 7.64417C16.1942 8.38143 16.8699 9.32555 17.2858 10.3906C18.5942 10.6063 19.7693 11.1454 20.6344 11.9349C21.7484 12.9497 22.3371 14.3371 22.3371 15.9441C22.3371 17.5255 21.7051 18.9707 20.556 20.0129C19.454 21.0152 17.966 21.5668 16.3677 21.5668Z" fill="#2C2E35"/>
<path d="M18.3876 9.04704C19.6633 9.38063 20.7946 9.97711 21.6924 10.7964C21.8173 10.9107 21.9371 11.0285 22.052 11.1498C23.2753 10.264 24.241 8.98732 24.6675 7.71352C23.8857 8.05387 22.9676 8.18771 22.0607 8.18771C18.5262 8.18771 16.4798 6.14127 16.4798 2.6068C16.4798 1.69984 16.6136 0.781799 16.9539 0C15.0086 0.651338 13.0546 2.56059 12.5 4.72401C13.9107 4.9437 15.2345 5.545 16.3281 6.46285C17.1803 7.17803 17.8806 8.05673 18.3876 9.04704Z" fill="#FFCE28"/>
</g>
<defs>
<clipPath id="clip0_536_2008">
<rect width="25" height="21.831" fill="white"/>
</clipPath>
</defs>
</svg>
