<svg width="100" height="100" viewBox="0 0 100 100" fill="none" xmlns="http://www.w3.org/2000/svg">
<path fill-rule="evenodd" clip-rule="evenodd" d="M51.0002 19.833V22.5413C43.3752 24.083 36.771 28.4163 32.2502 34.4163H21.8335C20.6877 34.4163 19.7502 35.3538 19.7502 36.4997C19.7502 37.6455 20.6877 38.583 21.8335 38.583H29.6043C28.896 39.9163 28.2918 41.3122 27.771 42.7497H17.6668C16.521 42.7497 15.5835 43.6872 15.5835 44.833C15.5835 45.9788 16.521 46.9163 17.6668 46.9163H26.6252C26.3543 48.2705 26.1668 49.6663 26.0627 51.083H11.4168C10.271 51.083 9.3335 52.0205 9.3335 53.1663C9.3335 54.3122 10.271 55.2497 11.4168 55.2497H26.0627C26.1668 56.6663 26.3543 58.0622 26.6252 59.4163H17.6668C16.521 59.4163 15.5835 60.3538 15.5835 61.4997C15.5835 62.6455 16.521 63.583 17.6668 63.583H27.771C28.2918 65.0205 28.896 66.4163 29.6043 67.7497H21.8335C20.6877 67.7497 19.7502 68.6872 19.7502 69.833C19.7502 70.9788 20.6877 71.9163 21.8335 71.9163H32.2502C37.9585 79.4997 47.021 84.4163 57.2502 84.4163C60.0835 84.4163 62.8127 84.0413 65.4377 83.333C67.9585 87.708 72.6877 90.6664 78.0835 90.6664C86.1252 90.6664 92.6668 84.1247 92.6668 76.083C92.6668 71.1663 90.2293 66.8122 86.5002 64.1663C87.7918 60.7497 88.5002 57.0413 88.5002 53.1663C88.5002 38.0622 77.7502 25.4372 63.5002 22.5413V19.833H65.5835C69.0418 19.833 71.8335 17.0413 71.8335 13.583C71.8335 10.1247 69.0418 7.33301 65.5835 7.33301H48.9168C45.4585 7.33301 42.6668 10.1247 42.6668 13.583C42.6668 17.0413 45.4585 19.833 48.9168 19.833H51.0002ZM78.0835 65.6663C83.8335 65.6663 88.5002 70.333 88.5002 76.083C88.5002 81.833 83.8335 86.4997 78.0835 86.4997C72.3335 86.4997 67.6668 81.833 67.6668 76.083C67.6668 70.333 72.3335 65.6663 78.0835 65.6663ZM72.4377 77.5622L76.6043 81.7288C77.0835 82.208 77.7502 82.4164 78.4168 82.3122C79.0835 82.208 79.646 81.7914 79.9377 81.1872L84.1043 72.8539C84.6252 71.833 84.2085 70.5622 83.1668 70.0622C82.146 69.5413 80.8752 69.958 80.3752 70.9997L77.5002 76.7497L75.3752 74.6247C74.5627 73.8122 73.2502 73.8122 72.4168 74.6247C71.6043 75.4372 71.6043 76.7497 72.4168 77.583L72.4377 77.5622ZM82.7502 62.2705C83.771 59.4372 84.3127 56.3538 84.3127 53.1663C84.3127 38.2288 72.1668 26.083 57.2293 26.083C42.2918 26.083 30.146 38.2288 30.146 53.1663C30.146 68.1038 42.2918 80.2497 57.2293 80.2497C59.521 80.2497 61.7502 79.958 63.8752 79.4372C63.6252 78.3539 63.4793 77.2497 63.4793 76.083C63.4793 75.7913 63.4793 75.4997 63.5002 75.208C61.5002 75.7705 59.396 76.083 57.2293 76.083C44.5835 76.083 34.3127 65.8122 34.3127 53.1663C34.3127 40.5205 44.5835 30.2497 57.2293 30.2497C69.8752 30.2497 80.146 40.5205 80.146 53.1663C80.146 56.1038 79.5835 58.9163 78.5835 61.4997C80.0418 61.5413 81.4377 61.8122 82.7502 62.2497V62.2705ZM73.6877 62.1663C75.1668 59.4997 76.0002 56.4163 76.0002 53.1663C76.0002 42.8122 67.6043 34.4163 57.2502 34.4163C46.896 34.4163 38.5002 42.8122 38.5002 53.1663C38.5002 63.5205 46.896 71.9163 57.2502 71.9163C59.8752 71.9163 62.3752 71.3747 64.646 70.3955C66.3127 66.4997 69.6043 63.458 73.6877 62.1663ZM11.4168 59.4163C12.5627 59.4163 13.5002 60.3538 13.5002 61.4997C13.5002 62.6455 12.5627 63.583 11.4168 63.583C10.271 63.583 9.3335 62.6455 9.3335 61.4997C9.3335 60.3538 10.271 59.4163 11.4168 59.4163ZM55.1668 38.583V53.1663C55.1668 53.7288 55.396 54.2497 55.771 54.6455L62.021 60.8955C62.8335 61.708 64.146 61.708 64.9793 60.8955C65.7918 60.083 65.7918 58.7705 64.9793 57.9372L59.3335 52.2913V38.5622C59.3335 37.4163 58.396 36.4788 57.2502 36.4788C56.1043 36.4788 55.1668 37.4163 55.1668 38.5622V38.583ZM11.4168 42.7497C12.5627 42.7497 13.5002 43.6872 13.5002 44.833C13.5002 45.9788 12.5627 46.9163 11.4168 46.9163C10.271 46.9163 9.3335 45.9788 9.3335 44.833C9.3335 43.6872 10.271 42.7497 11.4168 42.7497ZM59.3335 21.9788V19.833H55.1668V21.9788C55.8543 21.9372 56.5418 21.9163 57.2502 21.9163C57.9585 21.9163 58.646 21.9372 59.3335 21.9788ZM67.6668 13.583C67.6668 14.7288 66.7293 15.6663 65.5835 15.6663H48.9168C47.771 15.6663 46.8335 14.7288 46.8335 13.583C46.8335 12.4372 47.771 11.4997 48.9168 11.4997H65.5835C66.7293 11.4997 67.6668 12.4372 67.6668 13.583Z" fill="#222222"/>
</svg>
