<svg width="29" height="31" viewBox="0 0 29 31" fill="none" xmlns="http://www.w3.org/2000/svg">
<rect y="0.88147" width="28.3883" height="29.2517" rx="14.1942" fill="white"/>
<path d="M7.12579 24.6962C7.48573 24.8542 8.18804 25.3721 8.62698 25.6355C12.1122 27.7249 16.5982 27.5405 20.101 25.6267L21.5582 24.582L20.5136 23.5198C20.1624 23.6602 19.6884 24.0816 19.267 24.3099C16.2646 25.9603 12.5336 26.0218 9.52243 24.345C9.06593 24.0904 8.59187 23.7305 8.23193 23.5549L7.12579 24.6962Z" fill="#FFCE28" stroke="#2C2E35" stroke-width="0.2"/>
<path d="M10.2497 21.509L9.22256 22.5712C9.93365 23.5193 12.7692 24.2743 14.367 24.2655C16.3071 24.2655 18.3877 23.5193 19.5202 22.5976L18.4316 21.4563C16.4651 22.6239 14.525 23.1506 12.0933 22.3518C11.3471 22.1147 10.7852 21.6933 10.2497 21.509Z" fill="#FFCE28" stroke="#2C2E35" stroke-width="0.2"/>
<path d="M13.6996 14.7758C11.1537 15.6537 12.3652 19.3408 14.9023 18.6121C15.8065 18.3575 16.5791 17.3128 16.2367 16.1014C15.9733 15.2059 14.9023 14.3632 13.6996 14.7758Z" fill="#FFCE28" stroke="#2C2E35" stroke-width="0.2"/>
<path d="M11.1177 20.6486C12.215 21.7986 15.7266 21.9918 17.5965 20.6749L16.4903 19.5337C14.7697 20.3238 13.9006 20.157 12.1887 19.5425L11.1177 20.6486Z" fill="#FFCE28" stroke="#2C2E35" stroke-width="0.2"/>
<path d="M22.5113 12.5021C21.3437 12.6777 19.7021 12.4143 18.4994 12.3002C15.5672 12.028 12.7931 12.0631 9.87851 12.3089C9.14986 12.3792 8.08762 12.5109 7.14828 12.5548L5.28716 12.9937C4.76043 13.1254 3.81231 13.459 3.2768 13.2395C2.55693 16.3736 3.25924 19.7446 5.17304 22.4046C5.48908 22.8348 5.84901 23.1772 6.09482 23.581C6.48987 23.3967 7.13072 22.6944 7.3502 22.3959C6.87614 21.9306 4.58485 19.174 5.56809 17.9889C6.46353 16.9003 9.30789 18.182 10.3526 19.3408L11.5728 18.1732C11.4675 17.6904 11.1602 17.348 11.1339 16.6369C11.1076 16.0049 11.248 15.5132 11.5202 15.0304C12.6702 12.9849 15.576 13.0639 16.6909 14.9075C17.402 16.0751 17.1738 16.9442 16.7085 18.0854L17.9902 19.3759C20.659 16.4965 25.9351 16.8564 21.0277 22.3959C21.2033 22.589 21.3876 22.747 21.572 22.9577C21.7475 23.1509 21.9407 23.423 22.0636 23.5898C22.3796 23.4932 22.3182 23.5898 22.6605 23.107C23.1609 22.3871 23.2926 22.4573 23.9598 21.2371C25.4435 18.5507 25.777 15.4606 24.9343 12.5811C24.469 12.9235 23.7755 12.7391 23.2575 12.6425L22.5113 12.5021Z" fill="#2C2E35" stroke="#2C2E35" stroke-width="0.2"/>
<path d="M3.6882 12.8105C3.89011 12.9422 5.00503 12.6086 5.30351 12.5383L8.53414 11.7658C10.2899 11.3971 9.44714 10.4665 9.70172 8.99166C9.88608 7.89431 12.2915 7.79775 13.1255 7.66607L14.3019 7.62218C15.4168 7.63095 16.4263 7.63972 17.5676 7.9821C18.4279 8.23668 18.5245 8.67564 18.542 9.3165C18.5947 11.0986 18.4191 11.2566 20.3154 11.5727L23.546 12.1696C24.8453 12.4242 25.3457 12.5383 24.2132 10.1593C22.8261 7.2359 20.0871 4.98851 16.9794 4.21597C15.4694 3.84726 13.6171 3.7507 12.0808 4.09308C8.86773 4.80416 6.22529 6.62139 4.57486 9.57987C4.3115 10.0627 3.10879 12.4418 3.6882 12.8105Z" fill="#FFCE28" stroke="#2C2E35" stroke-width="0.2"/>
</svg>
