<svg width="305" height="201" fill="none" xmlns="http://www.w3.org/2000/svg"><path d="m70.85 131.655.256-1.033.057.014-.313 1.019zM71.726 128.498l.706-2.095.235.093-.784 2.059-.157-.057zM73.201 124.329l.848-2.045.37.171-.897 2.01-.32-.136zM74.961 120.267l.97-1.988.463.243-1.02 1.952-.413-.207zM76.97 116.321l1.105-1.917.52.32-1.125 1.882-.5-.285zM79.258 112.522l1.247-1.839.527.378-1.247 1.81-.527-.349zM81.816 108.895l1.376-1.738.527.442-1.375 1.703-.528-.407zM84.638 105.474l1.525-1.617.506.492-1.504 1.596-.527-.471zM87.766 102.312l1.668-1.468.427.513-1.631 1.461-.464-.506zM91.172 99.453l1.796-1.297.364.513-1.768 1.304-.391-.52zM94.835 96.945l1.931-1.105.278.506-1.881 1.119-.328-.52zM98.761 94.85l2.038-.883.179.427-1.996.927-.22-.47zM102.88 93.204l2.117-.655.099.335-2.08.698-.136-.378zM107.156 92.021l2.173-.406.029.164-2.145.492-.057-.25zM111.567 91.316l1.061-.093-1.054.157-.007-.064zM155.319 76.437l.542-.912.057.028-.599.884zM157.008 73.779l1.218-1.69.2.158-1.283 1.631-.135-.1zM159.502 70.444l1.332-1.596.307.263-1.375 1.554-.264-.221zM162.231 67.287l1.432-1.51.371.363-1.468 1.468-.335-.321zM165.153 64.31l1.532-1.419.406.456-1.546 1.383-.392-.42zM168.267 61.53l1.624-1.318.399.513-1.624 1.29-.399-.485zM171.559 58.95l1.71-1.211.378.57-1.696 1.183-.392-.542zM175.008 56.584l1.788-1.09.356.613-1.767 1.076-.377-.599zM178.62 54.475l1.86-.955.3.591-1.832.97-.328-.606zM182.369 52.623l1.924-.827.242.577-1.896.84-.27-.59zM186.238 51.033l1.974-.684.185.542-1.945.712-.214-.57zM190.214 49.743l2.024-.534.114.449-1.988.584-.15-.499zM194.269 48.74l2.052-.386.064.343-2.024.441-.092-.399zM198.387 48.048l2.067-.228.021.164-2.052.32-.036-.256zM202.584 47.657l1.069-.043-1.061.107-.008-.064zM223.848 107.976l-.264-1.033.022-.007.242 1.04zM222.993 104.919l-.67-1.995.078-.029.642 2.01-.05.014zM221.589 100.943l-.791-1.952.142-.057.763 1.966-.114.043zM219.957 97.059l-.89-1.91.199-.1.869 1.931-.178.079zM218.126 93.261l-.983-1.86.263-.142.955 1.888-.235.114zM216.116 89.562l-1.076-1.817.314-.185 1.047 1.838-.285.164zM213.936 85.957l-1.155-1.76.335-.22 1.141 1.78-.321.2zM211.592 82.458l-1.233-1.71.356-.256 1.219 1.724-.342.242zM209.09 79.074l-1.304-1.653.371-.3 1.297 1.675-.364.278zM206.439 75.803l-1.382-1.589.385-.335 1.375 1.604-.378.32zM203.639 72.66l-1.454-1.525.399-.385 1.447 1.547-.392.363zM200.703 69.653l-1.525-1.453.414-.435 1.51 1.475-.399.413zM197.632 66.775l-1.582-1.39.406-.463 1.582 1.404-.406.449zM194.447 64.03l-1.639-1.325.385-.484 1.646 1.332-.392.478zM191.14 61.423l-1.695-1.247.37-.513 1.703 1.26-.378.5zM187.72 58.964l-1.746-1.168.357-.549 1.752 1.19-.363.527zM184.2 56.656l-1.789-1.097.342-.57 1.803 1.111-.356.556z" fill="#37474F"/><path d="m180.594 54.497-1.831-1.026.321-.592 1.845 1.034-.335.584zM176.903 52.48l-1.874-.947.306-.62 1.882.962-.314.605zM173.133 50.614l-1.909-.877.285-.641 1.924.89-.3.628zM169.293 48.889l-1.939-.813.264-.655 1.953.82-.278.648zM165.395 47.3l-1.967-.749.242-.656 1.981.749-.256.655zM161.447 45.846l-1.995-.677.214-.656 2.002.677-.221.656zM157.45 44.527l-2.017-.612.192-.649 2.024.613-.199.648zM153.409 43.338l-2.03-.549.163-.634 2.046.542-.179.641zM149.333 42.276l-2.045-.485.143-.627 2.059.477-.157.635zM145.229 41.343l-2.067-.428.122-.62 2.073.42-.128.628zM141.096 40.523l-2.074-.363.1-.613 2.081.356-.107.62zM136.942 39.818l-2.088-.306.085-.606 2.095.306-.092.606zM132.766 39.227l-2.095-.264.071-.577 2.102.25-.078.59zM128.583 38.72l-2.095-.206.043-.535 2.109.193-.057.549zM124.386 38.329l-2.102-.164.035-.499 2.11.143-.043.52zM120.182 38.022l-2.11-.114.022-.456 2.116.093-.028.477zM115.97 37.816l-2.109-.071.007-.42 2.117.05-.015.44zM111.752 37.695l-2.109-.029v-.377l2.116.007-.007.399zM107.533 37.658l-2.116.014v-.335l2.109-.035.007.356zM103.308 37.694l-2.11.05-.007-.264 2.11-.078.007.292zM99.096 37.808l-2.109.086-.014-.193 2.11-.12.013.227zM94.878 37.994l-2.11.12-.007-.127 2.103-.15.014.157zM90.66 38.25l-2.103.156-.007-.057 2.102-.185.007.086zM86.291 38.592l-1.069.092 1.062-.114.007.022zM174.081 117.753l.734-.77.043.05-.777.72zM176.319 115.565l1.582-1.332.164.214-1.632 1.254-.114-.136zM179.54 112.965l1.696-1.183.235.356-1.725 1.126-.206-.299zM182.989 110.67l1.788-1.041.264.478-1.81.983-.242-.42zM186.616 108.66l1.888-.869.242.57-1.867.84-.263-.541zM190.421 106.999l1.959-.698.207.627-1.938.677-.228-.606zM194.361 105.682l2.017-.528.157.684-1.988.499-.186-.655zM198.416 104.734l2.052-.314.093.684-2.024.328-.121-.698zM202.542 104.206l2.073-.114.022.641-2.038.136-.057-.663zM206.696 104.078l2.074.086-.036.598-2.045-.064.007-.62zM210.836 104.364l2.059.292-.078.484-2.038-.235.057-.541zM214.933 105.047l2.01.485-.086.356-2.009-.42.085-.421zM218.931 106.109l1.96.67-.057.171-1.981-.57.078-.271zM222.865 107.548l.983.428-1.012-.364.029-.064z" fill="#37474F"/><path d="m85.222 38.685 1.062-.1v.05l-1.062.05zM88.43 38.5l2.144.029-.007.213-2.138-.1V38.5zM92.726 38.649l2.138.207-.05.356-2.117-.27.029-.293zM96.994 39.155l2.124.378-.093.449-2.095-.42.064-.407zM101.22 39.988l2.088.535-.15.52-2.059-.57.121-.485zM105.374 41.128l2.045.692-.213.577-2.017-.706.185-.563zM109.429 42.582l1.988.84-.257.585-1.966-.84.235-.585zM113.377 44.329l1.923.983-.32.591-1.896-.983.293-.591zM117.189 46.352l1.845 1.105-.37.598-1.824-1.111.349-.592zM120.844 48.64l1.76 1.247-.406.556-1.753-1.219.399-.584zM124.322 51.19l1.674 1.361-.427.514-1.668-1.34.421-.535zM127.621 53.97l1.575 1.467-.435.456-1.568-1.44.428-.484zM130.728 56.955l1.482 1.56-.442.407-1.482-1.54.442-.427zM133.628 60.14l1.375 1.654-.384.32-1.404-1.617.413-.356zM136.329 63.49l1.275 1.738-.327.236-1.312-1.69.364-.284zM138.837 66.996l1.169 1.795-.25.164-1.218-1.753.299-.206zM141.124 70.63l1.076 1.86-.121.071-1.14-1.817.185-.114zM143.255 74.435l.492.948-.535-.927.043-.02z" fill="#37474F"/><path d="M279.971 108.368h-61.026v61.026h61.026v-61.026z" fill="#fff"/><path d="M280.32 169.75h-61.731v-61.738h61.731v61.738zm-61.018-.713h60.305v-60.313h-60.305v60.313z" fill="#EBEBEB"/><path d="M225.644 111.995a1.801 1.801 0 0 1-1.114 1.654c-.328.135-.689.17-1.037.099a1.792 1.792 0 0 1-.642-3.253 1.796 1.796 0 0 1 2.793 1.5z" fill="#A6A6A6"/><path d="M232.976 111.995a1.793 1.793 0 0 1-2.15 1.753 1.79 1.79 0 0 1-1.407-1.412 1.796 1.796 0 1 1 3.557-.341z" fill="#EBEBEB"/><path d="M240.308 111.995a1.798 1.798 0 0 1-3.068 1.26 1.798 1.798 0 0 1 1.273-3.063 1.795 1.795 0 0 1 1.795 1.803z" fill="#FFC727"/><path d="M279.971 115.152h-61.026v.712h61.026v-.712z" fill="#EBEBEB"/><path d="M258.857 148.109c-2.672 3.812-17.537 16.289-30.776 17.023-4.497.243-18.349-18.049-21.178-25.182-2.031-5.117 8.907-8.551 12.114-8.017 3.99.663 11.515 16.496 14.322 16.575 4.511.114 12.919-3.1 22.261-5.074 4.789-1.019 5.323 1.739 3.257 4.675z" fill="#DD6A57"/><path d="M258.878 149.463c-3.285 4.938-14.251 13.04-14.251 13.04l-1.596-3.385-5.145-11.18s10.133-3.242 16.802-4.732a14.692 14.692 0 0 1 2.387-.356c4.255-.292 4.639 2.373 1.803 6.613z" fill="#455A64"/><path d="M246.337 146.049a5.577 5.577 0 0 1 0 2.851 5.368 5.368 0 0 1 0-2.851zM244.969 151.822a5.577 5.577 0 0 1-2.851 0 4.679 4.679 0 0 1 1.426-.186c.481-.008.961.054 1.425.186zM259.42 143.841a5.595 5.595 0 0 1-2.85 0 4.933 4.933 0 0 1 1.425-.186c.481-.004.961.058 1.425.186zM251.532 149.633a5.547 5.547 0 0 1 2.016 2.017 5.547 5.547 0 0 1-2.016-2.017zM246.045 156.438a5.17 5.17 0 0 1 1.14.877c.348.333.644.718.876 1.14a5.157 5.157 0 0 1-1.133-.876 4.99 4.99 0 0 1-.883-1.141z" fill="#fff"/><path d="M258.878 149.463c-3.285 4.938-14.251 13.04-14.251 13.04l-1.596-3.385a1965.176 1965.176 0 0 1 14.016-16.268c4.283-.292 4.667 2.373 1.831 6.613z" fill="#263238"/><path d="M246.593 160.222c-.855-2.059-4.653-10.347-5.6-12.114-.065-.121-.157-.114-.1 0a120.679 120.679 0 0 0 5.622 12.114c.014.078.078.05.078 0z" fill="#263238"/><path d="M207.266 140.741c-.834-1.518-4.04-8.836-4.475-11.074-.435-2.237-1.226-8.757.456-9.263 1.682-.506 2.06 1.425 2.06 1.425s.106-2.808 1.838-3.171c1.732-.364 2.237 2.608 2.237 2.608s.321-2.85 2.074-3.107c1.753-.256 1.76 2.85 1.76 2.85s.171-2.643 1.696-2.223c1.839.499.983 5.337 1.646 7.774.15.549 3.862 10.974 3.862 10.974l-13.154 3.207z" fill="#DD6A57"/><path d="M213.209 120.682c-.62 3.563-.278 5.223 1.076 8.515 0 .064-.064.121-.1.057-1.617-3.107-2.344-5.13-1.147-8.608.064-.178.207-.128.171.036zM209.439 120.945c-.327 3.748 0 5.558 1.19 9.107 0 .049-.064.085-.085.035-1.425-3.385-2.138-5.423-1.297-9.135.036-.164.207-.185.192-.007zM205.371 121.965c-.05 3.655.256 5.65 1.824 8.957a.065.065 0 0 1 .006.049.07.07 0 0 1-.031.04.067.067 0 0 1-.05.006.067.067 0 0 1-.039-.031 12.11 12.11 0 0 1-1.817-9.014c.035-.228.114-.242.107-.007z" fill="#263238"/><path d="M222.936 138.952c.1-2.179.04-4.363-.178-6.534-.357-2.003-4.447-8.979-6-8.188-2.01 1.033-.449 5.523.605 7.625 0 0-4.653 2.38-4.225 5.843.427 3.463 9.798 1.254 9.798 1.254z" fill="#DD6A57"/><path d="M216.295 124.694c-1.155 2.266.406 4.931 1.275 7.047.014.031.02.064.018.098a.202.202 0 0 1-.028.095.204.204 0 0 1-.068.072.21.21 0 0 1-.093.034c-1.888 1.126-4.218 3.264-4.375 5.573 0 .064-.107.071-.107 0-.164-2.501 1.952-4.789 4.097-5.886-.926-2.138-2.373-4.903-.712-7.041-.015-.014 0-.007-.007.008z" fill="#263238"/><path d="M279.657 169.009v-3.235c-3.684-8.109-9.449-18.093-17.43-24.271-1.881-1.425-5.871-.833-8.401.642-.905.52-3.948 5.437-4.617 9.94-.335 2.287-1.162 9.869-1.718 16.924h32.166z" fill="#455A64"/><path d="M256.926 153.831c.066.473.066.952 0 1.425a4.817 4.817 0 0 1-.385 1.383 4.8 4.8 0 0 1 0-1.426c.059-.477.189-.943.385-1.382zM271.641 162.231a5.16 5.16 0 0 1 0 1.426 5.492 5.492 0 0 1-.385 1.389 5.076 5.076 0 0 1 0-1.425 4.84 4.84 0 0 1 .385-1.39zM265.32 158.335a5.076 5.076 0 0 1-1.425 0 5.417 5.417 0 0 1-1.39-.385 5.32 5.32 0 0 1 2.815.385zM259.94 143.655a5.076 5.076 0 0 1-1.425 0 5.347 5.347 0 0 1-1.382-.384 5.003 5.003 0 0 1 1.425 0c.476.065.941.195 1.382.384zM264.593 146.185c.382.295.721.643 1.005 1.033.298.378.538.798.713 1.247a5.063 5.063 0 0 1-1.005-1.026 5.156 5.156 0 0 1-.713-1.254zM277.056 164.021c.382.293.72.638 1.005 1.026.298.381.538.803.713 1.254a5.496 5.496 0 0 1-1.711-2.28h-.007zM253.299 162.354a5.705 5.705 0 0 1 1.717 2.287 5.705 5.705 0 0 1-1.717-2.287zM251.332 148.258c.382.293.72.638 1.005 1.026.295.383.535.805.712 1.255a5.124 5.124 0 0 1-1.004-1.034 4.964 4.964 0 0 1-.713-1.247zM248.596 158.947c.292-.382.638-.72 1.026-1.005a4.928 4.928 0 0 1 1.254-.713 5.072 5.072 0 0 1-1.033 1.005 5.231 5.231 0 0 1-1.247.713zM269.261 155.384a5.098 5.098 0 0 1 1.033-1.005 4.837 4.837 0 0 1 1.247-.712c-.293.381-.638.72-1.026 1.004a5.123 5.123 0 0 1-1.254.713zM263.097 166.785c.295-.382.643-.72 1.033-1.005a4.991 4.991 0 0 1 1.247-.712 5.09 5.09 0 0 1-1.026 1.005 5.134 5.134 0 0 1-1.254.712z" fill="#fff"/><path d="M255.565 149.633c2.316-.107 5.095-4.482 5.8-7.589.05-.213-.791-2.073-1.696-4.382-.548-1.425-1.126-2.986-1.546-4.461-.085-.299-.955.549-.955.549l-1.781 1.005-5.879 3.334a24.198 24.198 0 0 1 2.508 5.416c.054.203.092.411.114.62a.32.32 0 0 0 0 .107c.164 1.176 1.197 5.501 3.435 5.401z" fill="#DD6A57"/><path d="M252.13 144.126a.32.32 0 0 0 0 .107c.326-.048.648-.122.962-.221 6.2-1.917 4.717-10.062 4.717-10.062l-2.437.805-5.878 3.335a24.242 24.242 0 0 1 2.508 5.416c.059.203.102.41.128.62z" fill="#263238"/><path d="M256.178 122.776c1.852 3.05 2.537 13.055.712 15.784-2.629 3.955-8.137 5.701-11.8 2.238-3.563-3.328-4.219-16.39-2.081-18.976 3.157-3.841 10.432-3.549 13.169.954z" fill="#DD6A57"/><path d="M248.653 131.306s.057 0 .057.057c0 .67.171 1.425.798 1.617v.043c-.777-.05-.941-1.076-.855-1.717z" fill="#263238"/><path d="M249.202 130.557c1.076-.164 1.318 2.003.32 2.138-.997.135-1.225-2.002-.32-2.138zM244.527 131.676s-.05.043-.043.064c.093.67.093 1.426-.491 1.746v.036c.741-.185.734-1.226.534-1.846z" fill="#263238"/><path d="M243.85 131.043c-1.09.043-.933 2.216.078 2.18 1.012-.035.834-2.209-.078-2.18zM249.943 129.474c-.3-.043-.578-.135-.87-.206a1.43 1.43 0 0 1-.848-.371.462.462 0 0 1 0-.563 1.147 1.147 0 0 1 1.133-.249c.41.07.78.288 1.041.613a.495.495 0 0 1 .017.532.503.503 0 0 1-.473.244zM242.888 130.053c.292-.086.556-.214.834-.321a1.46 1.46 0 0 0 .791-.492.464.464 0 0 0-.086-.556 1.16 1.16 0 0 0-1.154-.085c-.4.124-.738.394-.948.755a.493.493 0 0 0 .563.699zM249.9 137.25c-.143.178-.278.406-.52.456a1.743 1.743 0 0 1-.713-.086s-.043 0 0 .036a.903.903 0 0 0 .891.27.71.71 0 0 0 .456-.655c-.043-.036-.093-.05-.114-.021zM248.966 135.318a2.29 2.29 0 0 1-1.425 1.19 2.8 2.8 0 0 1-.812.128h-.314a.156.156 0 0 1-.149-.135.212.212 0 0 1 0-.071v-.057c-.072-.513-.114-1.304-.114-1.304-.178.114-1.091.655-1.105.384a34.443 34.443 0 0 1 .107-7.011c0-.017.007-.034.019-.046a.064.064 0 0 1 .109.046c.2 2.137 0 4.332.178 6.505a4.001 4.001 0 0 1 1.041-.448c.078 0 .05 1.532.1 1.76a3.184 3.184 0 0 0 2.28-.998c.064-.036.121 0 .085.057z" fill="#263238"/><path d="M247.014 136.344a2.77 2.77 0 0 0 1.183.713c.236.058.485.043.712-.043.521-.199.485-.712.335-1.104a3.053 3.053 0 0 0-.313-.613 3.56 3.56 0 0 1-1.917 1.047z" fill="#263238"/><path d="M248.197 137.064c.236.058.485.043.712-.042.521-.2.485-.713.335-1.105a1.27 1.27 0 0 0-1.047 1.147z" fill="#FF99BA"/><path d="M257.104 131.043c-1.703.221-2.316-3.926-2.316-3.926s-2.658 0-4.575-3.264c0 0-2.914 2.694-5.779 2.708-4.496 0-5.437-5.637-4.026-7.09 1.995-2.06 6.542-.464 6.542-.464s5.886-2.893 8.551.955a3.247 3.247 0 0 1 2.298.609 3.249 3.249 0 0 1 1.265 2.014c.741 3.028-.692 8.301-1.96 8.458z" fill="#263238"/><path d="M255.479 127.487a5.876 5.876 0 0 1-3.563-1.162 4.372 4.372 0 0 1-1.703-3.619c0-.072-.114-.079-.114 0a4.986 4.986 0 0 0 1.461 3.99 4.062 4.062 0 0 0 3.948.919c.05-.021.05-.128-.029-.128zM258.921 120.752c-1.062-.926-2.401-.848-3.684-.563-.071 0-.043.136 0 .114a3.667 3.667 0 0 1 3.563 1.141c.841.897.933 2.209.884 3.384a9.174 9.174 0 0 1-2.587 6.05s0 .071.036.043a9.148 9.148 0 0 0 2.935-6.641c.007-1.226-.171-2.673-1.147-3.528zM247.164 119.178a4.324 4.324 0 0 0-2.73-1.376 5.162 5.162 0 0 0-3.563 1.041 2.908 2.908 0 0 0-1.047 2.729 5.137 5.137 0 0 0 1.739 2.986s.057 0 0-.036a5.16 5.16 0 0 1-1.426-2.743 2.688 2.688 0 0 1 1.112-2.623c1.632-1.126 4.276-1.489 5.772.107.107.05.192-.028.143-.085z" fill="#263238"/><path d="M256.121 131.085s1.425-3.613 3.035-3.164c1.611.449 1.005 5.33-.506 6.328a1.731 1.731 0 0 1-2.465-.378l-.064-2.786z" fill="#DD6A57"/><path d="M258.95 129.318s.042 0 0 .043a4.325 4.325 0 0 0-1.575 3.171.943.943 0 0 1 .929-.674.936.936 0 0 1 .396.097c.036 0 0 .064 0 .071a1.07 1.07 0 0 0-1.054.62 4.983 4.983 0 0 0-.328 1.055c-.036.114-.235.099-.221 0-.364-1.525.306-3.87 1.853-4.383z" fill="#263238"/><path d="M272.432 169.008c-1.262-8.75-3.955-18.748-6.57-22.047-2.188-2.765-5.815-1.789-5.744 8.337 0 3.748-.335 9.093-.776 13.71h13.09z" fill="#DD6A57"/><path d="M260.182 150.632c1.112-9.521 5.402-8.551 8.494-.563a136.041 136.041 0 0 1 4.988 17.102l-15.498.712s1.311-11.159 2.016-17.251z" fill="#455A64"/><path d="M271.641 162.231a5.16 5.16 0 0 1 0 1.426 5.492 5.492 0 0 1-.385 1.389 5.076 5.076 0 0 1 0-1.425 4.84 4.84 0 0 1 .385-1.39zM265.32 158.335a5.076 5.076 0 0 1-1.425 0 5.417 5.417 0 0 1-1.39-.385 5.32 5.32 0 0 1 2.815.385zM264.593 146.185c.382.295.721.643 1.005 1.033.298.378.538.798.713 1.247a5.063 5.063 0 0 1-1.005-1.026 5.156 5.156 0 0 1-.713-1.254zM269.261 155.384a5.098 5.098 0 0 1 1.033-1.005 4.837 4.837 0 0 1 1.247-.712c-.293.381-.638.72-1.026 1.004a5.123 5.123 0 0 1-1.254.713zM263.097 166.785c.295-.382.643-.72 1.033-1.005a4.991 4.991 0 0 1 1.247-.712 5.09 5.09 0 0 1-1.026 1.005 5.134 5.134 0 0 1-1.254.712z" fill="#fff"/><path d="M259.684 153.588c-.164 1.255-.364 2.502-.556 3.749a17.544 17.544 0 0 0-.285-1.604h-.036c.057.428.093.855.157 1.283l.085.62v.128c-.149.976-.292 1.946-.413 2.929-.15 1.161-.264 2.33-.385 3.499-.121 1.168-.135 2.551-.299 3.755.504.028 1.01.009 1.511-.057.142 0 .156-.15 0-.121-.157.028-1.326-.036-1.347-.043.121-1.169.363-2.337.513-3.506.15-1.169.314-2.33.442-3.499.256-2.373.377-4.76.627-7.125.035-.036-.014-.036-.014-.008zM271.063 155.164c0 .463 0 .933.05 1.425 0 .192 0 .377.05.57-.446-1.482-.898-2.96-1.354-4.432.613 2.465 1.219 4.923 1.874 7.368a71.624 71.624 0 0 0 1.989 6.976 8.85 8.85 0 0 0-1.362.242 6.33 6.33 0 0 0 1.597-.078 75.935 75.935 0 0 0-1.953-7.375c-.192-.67-.392-1.333-.591-2.003-.057-.435-.079-.869-.107-1.311-.029-.442-.1-.926-.157-1.39.014-.021-.036-.021-.036.008z" fill="#263238"/><path d="M272.339 165.232c-2.223-.036-11.344.164-13.311.335-.143 0-.164.099 0 .107 4.447.123 8.898.004 13.332-.357.029-.007.036-.085-.021-.085z" fill="#263238"/><path d="M266.66.968h-61.026v61.025h61.026V.968z" fill="#fff"/><path d="M267.016 62.35h-61.752V.61h61.738l.014 61.738zm-61.025-.713h60.312V1.324h-60.327l.015 60.313z" fill="#EBEBEB"/><path d="M212.333 4.588a1.799 1.799 0 0 1-2.146 1.76 1.794 1.794 0 0 1-.648-3.253 1.799 1.799 0 0 1 2.268.223c.336.337.526.793.526 1.27z" fill="#C7C7C7"/><path d="M217.869 6.383a1.796 1.796 0 1 0 0-3.591 1.796 1.796 0 0 0 0 3.591z" fill="#EBEBEB"/><path d="M225.209 6.383a1.796 1.796 0 1 0 0-3.591 1.796 1.796 0 0 0 0 3.591z" fill="#FFC727"/><path d="M266.66 7.751h-61.026v.713h61.026V7.75z" fill="#EBEBEB"/><path d="M266.66.968h-61.026v61.025h61.026V.968z" fill="#fff"/><path d="M267.016 62.35h-61.752V.61h61.738l.014 61.738zm-61.025-.713h60.312V1.324h-60.327l.015 60.313z" fill="#EBEBEB"/><path d="M212.333 4.588a1.799 1.799 0 0 1-2.146 1.76 1.794 1.794 0 0 1-.648-3.253 1.799 1.799 0 0 1 2.268.223c.336.337.526.793.526 1.27z" fill="#A6A6A6"/><path d="M217.869 6.383a1.796 1.796 0 1 0 0-3.591 1.796 1.796 0 0 0 0 3.591z" fill="#EBEBEB"/><path d="M225.209 6.383a1.796 1.796 0 1 0 0-3.591 1.796 1.796 0 0 0 0 3.591z" fill="#FFC727"/><path d="M266.66 7.751h-61.026v.713h61.026V7.75z" fill="#EBEBEB"/><path d="M232.655 10.53c-3.434 4.433-3.733 11.038-3.733 11.038s-2.951 6.998-1.426 10.383a6.485 6.485 0 0 0 4.661 3.826l-.627-1.902s1.589 2.344 5.957 2.85c4.368.506 9.805-1.56 12.534-3.413a11.27 11.27 0 0 0 3.798-4.318l-.712 2.978a8.496 8.496 0 0 0 5.971-5.366c1.881-4.688-5.95-10.076-6.72-11.351-.769-1.276-2.793-11.052-12.962-8.01-.028-.035-4.368.236-6.741 3.285z" fill="#263238"/><path d="M230.603 35.72a6.738 6.738 0 0 1-3.114-2.522 6.086 6.086 0 0 1-1.154-3.805c.179-1.615.65-3.184 1.389-4.632.663-1.532 1.425-3.014 2.074-4.553.036-.086-.093-.136-.143-.071a37.996 37.996 0 0 0-2.137 3.733 17.486 17.486 0 0 0-1.589 3.749 6.52 6.52 0 0 0 0 3.698 6.405 6.405 0 0 0 1.646 2.565c.909.77 1.916 1.42 2.993 1.931.064.036.106-.07.035-.092zM259.342 21.96c-1.711-3.477-5.274-5.358-7.668-8.273-1.304-1.574-2.38-3.37-3.969-4.681-.043 0-.107.043-.064.078 1.318 1.19 2.195 2.722 3.221 4.148a27.219 27.219 0 0 0 3.641 3.912c2.38 2.201 5.216 4.802 5.195 8.315 0 1.625-.713 3.513-2.302 4.219-.057 0 0 .128.05.092a5.166 5.166 0 0 0 2.487-3.227 6.55 6.55 0 0 0-.591-4.582z" fill="#263238"/><path d="M259.619 22.915a6.776 6.776 0 0 0-1.425-3.827 9.638 9.638 0 0 0-3.327-2.38c-1.426-.712-2.886-1.34-3.891-2.608-.043-.05-.114 0-.071.072 1.596 2.095 4.225 2.85 6.149 4.51 2.209 1.924 2.615 5.088 1.611 7.746a11.071 11.071 0 0 1-2.979 4.218v.036c2.309-1.931 4.133-4.682 3.933-7.767z" fill="#263238"/><path d="m215.995 16.98 3.741 16.353c.164.478-.085.862-.555.848l-8.388-.185a1.35 1.35 0 0 1-1.147-.89l-3.734-16.348c-.164-.484.086-.862.549-.855l8.394.186a1.339 1.339 0 0 1 1.14.89z" fill="#A6A6A6"/><path d="m215.005 16.951 3.734 16.347c.164.484-.086.862-.549.855l-8.394-.185a1.363 1.363 0 0 1-1.148-.89l-3.733-16.39c-.164-.478.085-.862.555-.848l8.387.185a1.347 1.347 0 0 1 1.148.926z" fill="#DBDBDB"/><path d="M212.689 17.642a.715.715 0 0 0 .851.699.708.708 0 0 0 .56-.56.708.708 0 0 0-.303-.732.712.712 0 0 0-1.108.593z" fill="#455A64"/><path d="M242.503 42.197c-4.888 10.055-15.719 23.045-20.137 23.045-2.102 0-5.858.45-8.551-1.995-5.943-5.344-10.831-15.477-11.779-21.256-.335-2.045 9.641-6.32 11.123-4.668 3.392 3.948 7.297 11.672 7.91 11.637 2.259-.143 11.187-7.383 17.422-12.477 7.561-6.186 5.965 1.71 4.012 5.714zM201.907 31.395c1.112-4.147 2.031-5.045 1.112-9.043-.606-2.622.812-4.133 2.637-2.009 2.985 3.47 2.679 9.121 2.002 11.052h-5.751z" fill="#EB9481"/><path d="M202.478 43.786s-1.782-5.822-1.034-10.36c.513-3.136 2.395-9.834 11.245-13.269 2.095-.812 5.665-.485 2.722 2.088-2.095 1.831-3.969 2.359-4.988 3.641 0 0 4.489.955 5.223 3.093a41.413 41.413 0 0 1 1.518 5.7 9.139 9.139 0 0 1-1.04.378s.612 2.038-.884 4.888l-12.762 3.841z" fill="#EB9481"/><path d="M202.413 30.511c1.283-1.061 4.048-3.263 6.934-4.275 3.199-1.126 9.677-2.437 10.489-.064.591 1.745-1.838 2.458-1.838 2.458s2.793 0 2.985 1.717c.171 1.54-1.738 1.981-1.738 1.981s1.688.307 1.574 1.817c-.142 1.825-3.662.891-5.401 2.608-.392.385-13.005-6.242-13.005-6.242z" fill="#EB9481"/><path d="M209.974 29.82a13.483 13.483 0 0 1 7.974-1.24c.064 0 .092.071 0 .071a33.358 33.358 0 0 0-7.995 1.197s.007-.021.021-.028zM211.207 33.02a15.147 15.147 0 0 1 8.03-.763c.072 0 .093.078 0 .078a35.51 35.51 0 0 0-8.052.713s.007-.022.022-.029z" fill="#263238"/><path d="m227.632 44.257 10.346 7.674s5.038-6.79 6.228-12.826c1.19-6.036-1.895-6.093-6.555-2.394-4.661 3.698-10.019 7.546-10.019 7.546z" fill="#FFC727"/><path d="M229.948 43.16c.598.285 5.622 3.898 8.964 6.584.043.043 0 .107-.05.079-1.91-1.02-6.634-4.61-8.971-6.599-.043-.036.014-.085.057-.064z" fill="#263238"/><path d="M244.206 39.07c-1.183 6.07-6.228 12.826-6.228 12.826l-6.912-5.124 10.425-12.434c2.331-.756 3.535.57 2.715 4.731z" fill="#263238"/><path d="M266.239 57.824c-4.068-8.48-9.156-17.707-13.795-22.154-.221-.214-.449-.42-.67-.606l-.128-.114c-4.511-3.826-9.264-2.002-12.307 1.147-.712.784-8.729 13.718-9.071 18.37-.213 2.908 1.311 5.78 2.224 7.22h33.747v-3.863z" fill="#FFC727"/><path d="M266.239 45.333c-4.346-4.04-8.871-7.575-11.836-9.314-3.349-1.96-9.228-3.249-3.563 5.63 3.321 5.187 8.715 14.7 11.281 20.038h4.104l.014-16.354z" fill="#EB9481"/><path d="m255.144 51.604 9.378-8.808s-5.765-6.185-11.522-8.444c-5.758-2.259-6.335.763-3.563 6.007 2.772 5.245 5.707 11.245 5.707 11.245z" fill="#FFC727"/><path d="M254.432 49.138c.385-.541 4.853-4.831 8.095-7.632.05-.035.107 0 .071.064-1.354 1.696-5.736 5.701-8.116 7.632-.05.007-.05.007-.05-.064z" fill="#263238"/><path d="M256.171 50.556c-.072 0-1.012.62-1.069.67-.072-.164-.164-.32-.25-.492l-.548-1.097a78.404 78.404 0 0 0-1.297-2.387c-.877-1.54-1.832-3.064-2.637-4.646 0-.064-.128 0-.093.064.442.834.856 1.696 1.255 2.558-.065-.057-.998-.805-1.148-.955-.149-.15-.135.036-.078.086.164.12 1.425 1.39 1.489 1.425l.763 1.625c.375.793.767 1.577 1.175 2.351.193.363.385.713.585 1.083.199.37.598 1.033.606 1.048.469-.386.914-.8 1.332-1.24a.074.074 0 0 0-.002-.037.076.076 0 0 0-.083-.056z" fill="#263238"/><path d="M245.033 31.908c-1.874.193-4.083 1.51-5.836 3.884-1.539 2.088-2.95 5.06-1.888 5.7 1.218.713 3.634-1.973 3.634-1.973s-.613 4.368 1.71 4.147c2.715-.257 5.195-4.033 5.651-6.591.484-2.765-.007-5.502-3.271-5.167z" fill="#fff"/><path d="M247.705 34.246c-.185.634-3.484 4.653-6.413 4.36-.955-.1-.656-5.344-.656-5.344l-.064-.392-.926-5.494 6.591-3.755.955-.492s.15 1.518.328 3.414v.27c0 .107 0 .207.035.307 0 .285.057.57.079.862.021.292 0 .428.05.663l.042.712a36.917 36.917 0 0 1-.021 4.889z" fill="#EB9481"/><path d="M247.506 26.52a11.2 11.2 0 0 1-6.948 6.328l-.926-5.494 6.591-3.755.955-.492s.128 1.518.328 3.413z" fill="#263238"/><path d="M231.487 19.437c-.499 9.763 5.294 11.16 7.403 11.266 1.91.093 8.43.171 9.927-9.484 1.496-9.656-2.886-12.976-7.24-13.425-4.354-.45-9.599 1.881-10.09 11.643z" fill="#EB9481"/><path d="M233.361 18.041c.221-.035.44-.085.655-.15.24-.02.466-.12.642-.284a.34.34 0 0 0 0-.42.861.861 0 0 0-.855-.186 1.226 1.226 0 0 0-.784.463.365.365 0 0 0 .134.545.362.362 0 0 0 .208.032zM240.13 18.12a5.297 5.297 0 0 1-.669-.129 1.083 1.083 0 0 1-.649-.257.34.34 0 0 1 0-.42.852.852 0 0 1 .848-.22c.312.038.597.193.798.434a.37.37 0 0 1-.328.591zM238.876 20.614s.05 0 .05.057c0 .663.057 1.425.663 1.653v.043c-.741-.107-.834-1.126-.713-1.753z" fill="#263238"/><path d="M239.468 19.922c1.076-.078 1.147 2.067.156 2.138-.99.072-1.054-2.066-.156-2.137z" fill="#263238"/><path d="M239.895 19.993c.193.122.385.328.613.342.228.015.449-.213.613-.441h.036c0 .406-.122.833-.556.912-.435.078-.713-.285-.82-.713-.021-.007.036-.1.114-.1zM234.693 20.456s-.049 0-.049.058c.049.67 0 1.425-.592 1.681.734-.064.798-1.119.641-1.739z" fill="#263238"/><path d="M234.073 19.787c-1.076-.036-1.068 2.137-.071 2.137.998 0 .969-2.109.071-2.137z" fill="#263238"/><path d="M233.624 19.929c-.171.114-.334.32-.541.335-.207.014-.406-.214-.556-.435h-.036c0 .413.129.84.521.92.392.078.627-.286.712-.713.043-.043-.028-.15-.1-.107zM238.755 25.73c-.15.163-.292.392-.527.434-.243.01-.485-.029-.713-.114 0 0-.043 0 0 .036a.901.901 0 0 0 .877.292.715.715 0 0 0 .47-.627c-.064-.057-.107-.057-.107-.021zM235.905 23.385s-.114.997-.107 1.468c0 .043.114.064.278.064a2.211 2.211 0 0 0 2.137-.884c.036-.042.001-.092-.071-.057-.59.42-1.299.64-2.023.627-.036-.128.256-1.703.178-1.703-.362.043-.716.131-1.055.264.178-2.08.713-4.119.834-6.2 0-.07-.107-.092-.129 0a33.786 33.786 0 0 0-1.175 6.642c-.029.242.926-.136 1.133-.221z" fill="#263238"/><path d="M236.119 24.746c.283.372.656.666 1.083.855.238.096.499.113.748.05.541-.135.556-.627.463-1.054a2.992 2.992 0 0 0-.235-.649 3.564 3.564 0 0 1-2.059.798z" fill="#263238"/><path d="M237.202 25.601c.238.096.499.113.748.05.541-.135.556-.627.463-1.054a1.276 1.276 0 0 0-1.211 1.004z" fill="#FF99BA"/><path d="M247.947 21.69c-2.401 0-3.349-7.354-3.456-8.26.036.57.221 3.607 0 3.735a2.359 2.359 0 0 1-.762-.114 7.294 7.294 0 0 0-.121-1.083c0-.171-.05.363-.121 1.026l-.449-.114a8.687 8.687 0 0 0-.307-2.302c-.078-.278-.114 1.012-.349 2.138a28.997 28.997 0 0 0-6.32-.898c-.599 0-1.119 0-1.575.057.033-.548.033-1.098 0-1.646a8.437 8.437 0 0 0-.314 1.675l-.712.078c-.1-1.268.434-3.306.242-2.993a8.779 8.779 0 0 0-1.119 3.164c-.862.192-1.097.37-1.126.15a10.546 10.546 0 0 1 2.993-6.656c2.907-2.929 8.865-3.834 12.385.4 0 0 2.85 1.724 3.377 4.63.528 2.908-.876 7.013-2.266 7.013z" fill="#263238"/><path d="M246.886 21.69s2.023-3.129 3.434-2.416c1.411.713 0 5.188-1.631 5.85a1.662 1.662 0 0 1-2.252-.805l.449-2.63z" fill="#EB9481"/><path d="M249.878 20.549v.043a4.192 4.192 0 0 0-2.066 2.686.928.928 0 0 1 .612-.462.919.919 0 0 1 .749.163s0 .071-.036.064a1.017 1.017 0 0 0-1.104.399 5.016 5.016 0 0 0-.499.92c-.05.106-.235.056-.199-.065-.072-1.454.983-3.549 2.543-3.748z" fill="#263238"/><path d="M173.661 76.438h-61.026v61.025h61.026V76.438z" fill="#fff"/><path d="M174.017 137.819h-61.738V76.081h61.738v61.738zm-61.025-.713h60.313V76.794h-60.313v60.312z" fill="#EBEBEB"/><path d="M119.334 80.064a1.801 1.801 0 0 1-1.114 1.655 1.797 1.797 0 1 1 1.114-1.654z" fill="#A6A6A6"/><path d="M126.666 80.064a1.793 1.793 0 0 1-2.15 1.754 1.799 1.799 0 0 1-1.407-1.413 1.794 1.794 0 0 1 3.034-1.615 1.796 1.796 0 0 1 .523 1.274z" fill="#EBEBEB"/><path d="M132.203 81.86a1.796 1.796 0 1 0 0-3.591 1.796 1.796 0 0 0 0 3.591z" fill="#FFC727"/><path d="M173.661 83.22h-61.026v.713h61.026v-.712z" fill="#EBEBEB"/><path d="M173.298 101.52c-2.017-4.354-4.839-7.226-5.395-7.026-.712.25-8.65 18.263-9.491 18.904-.841.642-4.81-1.047-12.228-4.147-7.418-3.1-7.055 2.523-1.917 8.252 5.138 5.729 13.539 11.301 19.952 10.268 3.848-.613 7.076-6.684 9.05-11.715l.029-14.536z" fill="#263238"/><path d="M157.891 127.03c-4.952-1.674-10.075-5.558-13.624-9.527-4.489-4.988-5.337-9.919-.535-9.014l14.159 18.541z" fill="#455A64"/><path d="M142.706 113.535c-2.137.784-6.363-2.181-8.187-4.767-.121-.179-.057-2.202-.1-4.661 0-1.496-.093-3.156-.264-4.674-.042-.307 1.083.142 1.083.142l2.01.25 6.655.84a24.404 24.404 0 0 0-.256 5.908c.025.21.07.418.135.62a.546.546 0 0 1 0 .099c.349 1.155 1.019 5.494-1.076 6.243z" fill="#F7A9A0"/><path d="M143.782 107.192a.557.557 0 0 1 0 .1 7.027 7.027 0 0 1-.969.164c-6.413.577-8.123-7.454-8.123-7.454l2.537-.178 6.655.841a24.343 24.343 0 0 0-.256 5.907c.032.212.084.419.156.62z" fill="#263238"/><path d="M131.961 87.76c-.891 3.428 1.311 13.126 3.812 15.2 3.62 3.014 9.349 3.071 11.85-1.233 2.43-4.176-.662-16.767-3.434-18.627-4.083-2.75-10.896-.399-12.228 4.66z" fill="#F7A9A0"/><path d="M140.284 93.561s-.043.043-.036.071c.164.649.242 1.425-.299 1.767v.036c.712-.264.598-1.29.335-1.874z" fill="#263238"/><path d="M139.55 93.005c-1.069.156-.713 2.28.306 2.137 1.019-.142.563-2.266-.306-2.137zM144.267 92.712s.057 0 .057.05c.1.663.328 1.425.962 1.518v.036c-.748.035-1.033-.927-1.019-1.604z" fill="#263238"/><path d="M144.73 91.921c1.041-.27 1.511 1.839.542 2.088-.969.25-1.418-1.86-.542-2.088zM138.531 92.185a7.41 7.41 0 0 0 .769-.442c.298-.114.549-.325.713-.599a.463.463 0 0 0-.171-.527 1.128 1.128 0 0 0-1.147.085 1.666 1.666 0 0 0-.813.884.49.49 0 0 0 .132.508.481.481 0 0 0 .517.09zM145.357 90.703c-.306 0-.584-.043-.883-.072a1.426 1.426 0 0 1-.891-.235.463.463 0 0 1-.078-.555 1.14 1.14 0 0 1 1.075-.414c.414.005.811.166 1.112.45a.487.487 0 0 1 .106.523.483.483 0 0 1-.441.303zM140.961 99.668c.185.12.384.306.627.284.255-.047.497-.147.712-.292.043 0 0 0 0 0a.912.912 0 0 1-.776.506.71.71 0 0 1-.62-.491c-.022-.007.028-.029.057-.007z" fill="#263238"/><path d="M141.295 97.565a2.273 2.273 0 0 0 1.682.713c.275.004.548-.032.813-.107l.149-.05.143-.042a.178.178 0 0 0 .107-.172.173.173 0 0 0 0-.064v-.057a19.361 19.361 0 0 0-.264-1.275c.199.057 1.218.313 1.161.05a34.915 34.915 0 0 0-2.102-6.635c0-.064-.142 0-.121.043.428 2.138 1.219 4.126 1.682 6.235a3.993 3.993 0 0 0-1.119-.135c-.064.036.392 1.468.406 1.703a3.133 3.133 0 0 1-2.451-.3c-.093-.006-.135.05-.086.093z" fill="#263238"/><path d="M143.44 98.063a2.718 2.718 0 0 1-.962.977c-.217.12-.465.172-.712.15-.549-.072-.627-.556-.585-.984a3.2 3.2 0 0 1 .15-.67c.63.394 1.368.58 2.109.527z" fill="#263238"/><path d="M142.478 99.04c-.217.12-.465.172-.712.15-.549-.072-.627-.556-.585-.984a1.253 1.253 0 0 1 1.297.834z" fill="#FF99BA"/><path d="M132.859 95.143c2.237-.435 1.895-4.59 1.895-4.59s3.734-1.367 3.741-4.375c0 0 4.097 1.64 6.77.05 2.672-1.589 1.596-5.088 1.14-5.7-1.055-1.426-3.05 1.054-3.05 1.054a14.325 14.325 0 0 0-8.074-.306c-3.278.969-4.354 4.44-4.354 4.44s-1.724.712-2.066 2.094c-.342 1.383 2.572 7.61 3.998 7.333z" fill="#263238"/><path d="M133.856 90.753c3.057-.171 4.653-2.53 4.539-5.466h.057c.421 2.68-1.496 6.114-4.596 5.608a.07.07 0 0 1-.05-.02.069.069 0 0 1-.021-.051c0-.019.007-.037.021-.05a.07.07 0 0 1 .05-.021zM130.991 85.623s.065.036 0 .057c-.762.542-1.66 1.019-2.102 1.888-.534 1.055-.149 2.23.314 3.221.712 1.54 1.952 3.478 3.563 4.147.017.01.03.026.036.044a.075.075 0 0 1-.002.057.079.079 0 0 1-.098.042c-1.931-.713-3.456-3.22-4.055-5.074-.627-2.08.463-3.548 2.344-4.382zM141.908 86.328a4.162 4.162 0 0 0 4.525-.977c1.347-1.503.649-3.406-.328-4.916-.05-.072.043-.179.107-.115 1.19 1.262 1.668 3.442.62 4.931a4.362 4.362 0 0 1-4.988 1.297c-.164-.05-.071-.285.064-.22z" fill="#263238"/><path d="M140.041 97.13a2.92 2.92 0 0 1-1.601-5.525 2.922 2.922 0 0 1 4.031 1.606 2.924 2.924 0 0 1-1.724 3.748 3.188 3.188 0 0 1-.706.171zm-.577-5.415a2.54 2.54 0 0 0-2.166 3.25 2.534 2.534 0 0 0 3.005 1.744 2.539 2.539 0 0 0 1.927-2.891 2.538 2.538 0 0 0-2.766-2.103zM146.561 95.612c-1.104.122-2.237-.912-2.572-2.394a3.515 3.515 0 0 1 .15-2.138 1.926 1.926 0 0 1 1.325-1.197 1.914 1.914 0 0 1 1.71.513 3.558 3.558 0 0 1 1.055 1.853c.356 1.568-.307 3.064-1.475 3.328l-.193.035zm-.869-5.365h-.142a1.577 1.577 0 0 0-1.055.976 3.167 3.167 0 0 0-.128 1.888c.313 1.354 1.339 2.288 2.301 2.067.962-.221 1.482-1.497 1.176-2.85a3.068 3.068 0 0 0-.926-1.647 1.633 1.633 0 0 0-1.226-.434z" fill="#FFC727"/><path d="m142.45 93.56-.314-.235c.35-.456 1.24-1.175 2.138-.584l-.221.32c-.784-.527-1.575.457-1.603.5zM130.521 97.145l-.377-.1c.042-.178.47-1.732 1.289-2.06.82-.327 5.387-.961 5.608-.99l.05.385a51.935 51.935 0 0 0-5.515.969c-.542.214-.948 1.368-1.055 1.796z" fill="#FFC727"/><path d="M134.39 95.634s-2.408-3.014-3.79-2.138c-1.383.877.563 5.345 2.287 5.872a1.709 1.709 0 0 0 2.23-1.069l-.727-2.665z" fill="#F7A9A0"/><path d="M154.521 137.071c-1.311-7.397-2.886-14.729-4.34-18.413a74.46 74.46 0 0 0-5.401-10.468c-.292-.385-.036-1.881-.321-2.138-.285-.256-10.318-.662-10.624-.406-.307.257.271 2.68-.171 3.328-4.632 3.72-9.428 16.389-12.955 28.09l33.812.007z" fill="#263238"/><path d="M134.818 106.315a7.14 7.14 0 0 1 0 2.288 7.696 7.696 0 0 1 0-2.288zM136.072 106.315a7.14 7.14 0 0 1 0 2.288 7.696 7.696 0 0 1 0-2.288zM137.326 106.315c.114.759.114 1.53 0 2.288a7.696 7.696 0 0 1 0-2.288zM138.581 106.315c.114.759.114 1.53 0 2.288a7.083 7.083 0 0 1 0-2.288zM139.835 106.315c.114.759.114 1.53 0 2.288a7.083 7.083 0 0 1 0-2.288zM141.089 106.315c.114.759.114 1.53 0 2.288a7.14 7.14 0 0 1 0-2.288zM142.343 106.315c.114.759.114 1.53 0 2.288a6.805 6.805 0 0 1-.093-1.14c.003-.385.034-.768.093-1.148zM143.597 106.315c.114.759.114 1.53 0 2.288a6.805 6.805 0 0 1-.093-1.14c.003-.385.034-.768.093-1.148z" fill="#455A64"/><path d="M128.156 112.886a140.107 140.107 0 0 0-15.193 16.446v7.739h18.25c-3.727-.841-8.551-1.746-8.551-1.746a65.402 65.402 0 0 0 10.631-17.316c4.468-10.667.884-10.368-5.137-5.123z" fill="#263238"/><path d="M134.12 119.32c-.501.36-.977.753-1.425 1.176-.129.121-.25.257-.371.378a83.638 83.638 0 0 0 1.703-3.014.062.062 0 0 0 .006-.05.064.064 0 0 0-.031-.039.06.06 0 0 0-.049-.006.062.062 0 0 0-.04.031c-1.632 2.586-3.228 5.187-4.895 7.752-1.668 2.566-3.349 5.038-5.045 7.54-.962 1.425-1.889 2.85-2.851 4.275-.035.05.05.114.086.064.94-1.204 1.895-2.373 2.793-3.613.898-1.24 1.717-2.43 2.551-3.662a158.704 158.704 0 0 0 4.874-7.746l.456-.784.406-.342a13.837 13.837 0 0 0 1.853-1.931s.007-.05-.021-.029z" fill="#455A64"/><path d="M182.198 86.67c.712 1.917-1.953 1.668-1.953 1.668s3.748 1.29 3.727 3.563c-.022 2.273-3.242 1.76-3.47 1.731.192.072 3.612 1.34 3.349 3.613-.264 2.273-3.421 1.382-3.627 1.318.171.121 2.337 1.81 1.746 3.492-1.012 2.85-6.677-1.275-9.1-.798l.185 3.912c0 .128 0 .321-.035.442l-1.832.256a26.347 26.347 0 0 0-2.059-3.563c-.934-1.425-1.782-2.85-1.867-3.897a2.239 2.239 0 0 1 1.332-2.316s-1.895-1.048-1.745-2.85c.078-.92 1.617-1.611 1.617-1.611a2.671 2.671 0 0 1-1.254-2.487c.178-1.261 1.696-1.76 1.696-1.76s-1.026-1.532-.42-2.765c1.211-2.465 12.17-2.045 13.71 2.052z" fill="#F7A9A0"/><path d="m172.699 101.762.42 3.307c0 .128 0 .427-.042.555-.528 4.397-5.217 7.354-5.765 4.226-.421-2.373 2.594-5.159 1.81-7.532l3.577-.556z" fill="#F7A9A0"/><path d="M169.136 87.282c-.036 0-.043-.05 0-.057a19.04 19.04 0 0 1 11.259 1.105c.114.057.078.256-.05.228a38.828 38.828 0 0 0-11.209-1.276zM168.409 91.63c-.043 0-.043-.072 0-.08a17.816 17.816 0 0 1 12.214 1.968c.128.078.164.278 0 .2-2.573-1.305-8.672-2.26-12.214-2.089zM180.43 98.791c-3.641-2.01-7.56-2.65-11.679-2.73-.057 0-.05-.078 0-.092 2.024-.506 4.646-.178 6.663.243a10.96 10.96 0 0 1 5.088 2.458c.057.05.007.164-.072.121z" fill="#263238"/><path d="M173.198 103.167c-.136-.713-.228-1.34-.349-2.031 0-.064-.114-.043-.114 0 0 .976.114 1.931.142 2.914a8.937 8.937 0 0 1-.406 2.972 6.944 6.944 0 0 1-1.261 2.287 3.65 3.65 0 0 1-2.345 1.504 1.48 1.48 0 0 1-1.442-1.067 1.475 1.475 0 0 1-.04-.637c.141-.9.487-1.756 1.012-2.501a9.592 9.592 0 0 0 1.055-2.651 3.717 3.717 0 0 0-.485-2.408c-.257-.513-.527-1.026-.791-1.539a5.493 5.493 0 0 1-.606-1.333 2.308 2.308 0 0 1 1.105-2.565.065.065 0 0 0 .019-.012.061.061 0 0 0 .012-.019.056.056 0 0 0 .001-.044.065.065 0 0 0-.012-.019.058.058 0 0 0-.063-.013 3.199 3.199 0 0 0-1.646 1.753 3.061 3.061 0 0 0 .442 2.508c.271.521.541 1.034.819 1.547.343.513.531 1.114.542 1.731a8.732 8.732 0 0 1-1.326 3.285 4.46 4.46 0 0 0-.712 2.751 2.064 2.064 0 0 0 1.425 1.795c1.938.521 3.67-1.603 4.404-3.128a7.486 7.486 0 0 0 .57-3.342 9.802 9.802 0 0 0 .05-1.738z" fill="#263238"/><path d="M176.148 101.877a4.995 4.995 0 0 0-1.318-.598 6.264 6.264 0 0 0-1.426-.293 3.618 3.618 0 0 0-1.354.107c-.404.13-.767.364-1.054.677a.058.058 0 0 0-.006.067.054.054 0 0 0 .027.023.056.056 0 0 0 .036.003c.382-.1.77-.179 1.161-.235.41-.071.825-.107 1.24-.107.446.009.89.061 1.326.157.449.085.883.235 1.339.292a.062.062 0 0 0 .032-.009.05.05 0 0 0 .019-.026.053.053 0 0 0-.001-.033.057.057 0 0 0-.021-.025zM168.502 95.948l-.193-.129c-.129-.1-.251-.209-.363-.328-.114-.12-.235-.242-.342-.37l-.178-.192a1.07 1.07 0 0 0-.093-.093 1.436 1.436 0 0 1-.085-.135c-.043-.065-.143 0-.1.057a.761.761 0 0 1 .135.27c.036.086.079.171.121.257.093.167.206.323.335.463.126.13.276.235.442.306a.715.715 0 0 0 .25.079.413.413 0 0 0 .228 0v-.05a.768.768 0 0 0-.157-.135z" fill="#263238"/><path d="M122.505 130.03a2.466 2.466 0 0 1 2.544 1.389s.919-2.052 2.793-2.052c.962 0 1.803 1.546 1.803 1.546a2.795 2.795 0 0 1 2.48-1.51c1.325.092 1.966 1.617 1.966 1.617s1.504-1.182 2.851-.662c2.686 1.054 3.149 12.448-.977 14.387-1.924.898-1.881-1.896-1.881-1.896s-1.026 4.005-3.37 4.162c-2.345.156-2.081-3.471-2.081-3.471s-1.026 3.87-3.477 3.784c-2.452-.085-1.661-3.662-1.661-3.662s-1.61 2.6-3.477 2.137c-3.071-.812.406-6.206-.292-8.686h-6.385s4.625-6.492 9.164-7.083z" fill="#F7A9A0"/><path d="M137.248 133.294c2.565.42 4.945-3.121 7.454-3.071 3.406.071 1.24 5.814-3.449 6.826h-3.991l-.014-3.755z" fill="#F7A9A0"/><path d="M129.666 130.857c0-.043.071-.05.086 0a18.529 18.529 0 0 1-1.041 12.827c-.071.142-.27.199-.199 0 1.14-2.765 1.617-9.171 1.154-12.827zM123.232 143.912c1.781-3.94 2.137-8.059 1.866-12.335 0-.057.079-.057.093 0 .713 2.06.577 4.803.299 6.934a11.402 11.402 0 0 1-2.137 5.472c-.036.05-.164 0-.121-.071z" fill="#263238"/><path d="M115.479 134.334c-.043.043 0 .107.071.072 1.931-1.682 7.617-6.556 9.584-2.851.071.128.2.185.157 0-.649-2.309-3.093-3.727-9.812 2.779z" fill="#263238"/><path d="M127.251 129.14a2.956 2.956 0 0 0-2.138 2.487c0 .085.128.128.157.049a3.445 3.445 0 0 1 1.524-1.923c1.233-.635 2.217.199 2.851 1.211a.103.103 0 0 0 .052.035.094.094 0 0 0 .064-.004.1.1 0 0 0 .062-.102 2.302 2.302 0 0 0-2.572-1.753z" fill="#263238"/><path d="M132.239 129.133a2.73 2.73 0 0 0-2.573 1.689c-.078.171.107.171.121.156.713-.712 1.425-1.567 2.516-1.354a3.37 3.37 0 0 1 1.845 1.475c.043.058.121 0 .107-.064a2.278 2.278 0 0 0-2.016-1.902z" fill="#263238"/><path d="M139.058 137.085c0 .035-.064.042-.071 0-.463-2.053-.642-6.684-3.043-6.684a2.71 2.71 0 0 0-1.689.712h-.043a2.02 2.02 0 0 1 1.424-1.1 2.014 2.014 0 0 1 1.733.48l.05.05c1.482 1.326 1.739 5.259 1.639 6.542z" fill="#263238"/><path d="M81.16 139.23H20.136v61.026h61.026V139.23z" fill="#fff"/><path d="M81.517 200.612H19.78v-61.738h61.738v61.738zm-61.025-.713h60.313v-60.313H20.492v60.313z" fill="#EBEBEB"/><path d="M26.834 142.85a1.799 1.799 0 0 1-1.109 1.659 1.797 1.797 0 0 1-2.346-2.346 1.794 1.794 0 0 1 3.455.687z" fill="#A6A6A6"/><path d="M34.166 142.85a1.8 1.8 0 0 1-1.108 1.659 1.797 1.797 0 0 1-2.347-2.346 1.795 1.795 0 0 1 3.455.687z" fill="#EBEBEB"/><path d="M41.506 142.85a1.8 1.8 0 0 1-1.109 1.659 1.797 1.797 0 0 1-2.346-2.346 1.796 1.796 0 0 1 3.455.687z" fill="#FFC727"/><path d="M81.16 146.014H20.136v.712h61.026v-.712z" fill="#EBEBEB"/><path d="M24.44 183.888c2.629 5.18 8.472 8.202 13.83 9.712 5.36 1.511 11.8 2.33 17.359.82a13.796 13.796 0 0 0 6.534-3.734c1.86-1.996 2.537-4.368 1.511-6.834-.827-1.981-3.17-3.769-2.85-5.359.32-1.589 1.88-2.565 2.558-4.011 1.161-2.48.17-4.725-1.276-6.798-3.427-4.917-1.147-9.977-2.722-15.513-.898-3.157-4.019-9.264-12.114-8.494-3.07.299-5.6 2.522-7.346 4.988-2.06 2.921-1.974 7.361-4.276 10.097-1.995 2.323-4.197 2.302-6.156 4.774-.848 1.076-1.426 2.416-.763 5.516.242 1.119.4 2.779-.278 3.912-.94 1.56-3.085 1.917-4.111 3.563-1.404 2.216-1.055 5.059.1 7.361z" fill="#263238"/><path d="M60.34 191.013c2.686.114 4.56-3.264 3.298-5.458-.79-1.39-2.244-2.259-3.042-3.649-1.319-2.273.577-3.684 1.902-5.373 2.85-3.655.713-6.99-1.667-10.125-1.803-2.38-1.789-4.668-1.347-7.518 0-.043.085-.036.078 0-.228 2.138-.37 4.225.713 6.149.89 1.568 2.252 2.794 3.1 4.404a6.414 6.414 0 0 1-.763 7.582c-.541.713-1.425 1.375-1.781 2.138-.777 1.867.463 3.171 1.639 4.418.898.947 1.895 2.009 2.023 3.384.186 2.088-2.137 4.383-4.168 4.176-.093-.007-.1-.128.014-.128z" fill="#263238"/><path d="M58.508 192.666c1.795-.641 3.712-1.161 4.988-2.672 1.917-2.223.577-4.489-.67-6.605a3.748 3.748 0 0 1-.712-2.851c.391-1.61 1.838-2.722 2.365-4.275 1.261-3.734-2.002-6.827-3.306-10.026-1.304-3.2-1.261-6.755-1.276-10.219a.057.057 0 0 1 .057-.057c.015 0 .03.006.04.017.011.011.017.025.017.04.043 4.433.463 8.665 2.75 12.549 1.597 2.708 3.293 5.629 1.647 8.729-.406.763-1.033 1.425-1.425 2.138a3.71 3.71 0 0 0 .264 4.019c.783 1.318 1.717 2.686 1.581 4.275-.263 3.121-3.684 4.518-6.285 5.195a.136.136 0 0 1-.097-.199.142.142 0 0 1 .062-.058zM23.848 175.407c1.66-1.589 3.905-2.137 3.89-4.852 0-1.896-.712-3.563.043-5.409a7.129 7.129 0 0 1 3.285-3.392c1.789-1.033 3.684-1.781 5.13-3.299 1.59-1.66 2.573-3.784 3.564-5.822 0-.042.093 0 .078 0-1.168 2.808-2.48 5.701-5.109 7.418-1.368.919-2.929 1.504-4.276 2.437-2.45 1.668-2.85 3.948-2.5 6.713.17 1.275.291 2.537-.485 3.648-.777 1.112-2.067 1.632-3.064 2.487-4.276 3.641-.086 10.133 4.069 11.765.185.071.106.37-.086.299-3.128-1.126-5.971-4.739-6.064-8.088a5.233 5.233 0 0 1 1.525-3.905z" fill="#263238"/><path d="M23.556 177.745c.413-1.924 1.81-2.765 3.028-4.098 1.91-2.102.855-4.738 1.162-7.289a6.358 6.358 0 0 1 2.522-4.197c1.782-1.426 3.862-2.309 5.43-4.055a12.823 12.823 0 0 0 3.071-6.677c0-.043.072 0 .072 0a12.155 12.155 0 0 1-4.846 8.551c-1.753 1.283-3.955 2.181-5.166 4.126-1.283 2.059-.563 4.275-.713 6.577a4.985 4.985 0 0 1-1.653 3.563 10.18 10.18 0 0 0-2.138 2.273 6.144 6.144 0 0 0-.399 4.219c.962 4.389 4.71 7.752 8.623 9.185.135.05.078.285-.057.235a14.34 14.34 0 0 1-8.18-7.354 8.294 8.294 0 0 1-.756-5.059z" fill="#263238"/><path d="M44.106 175.336c2.85 3.713 18.136 15.627 31.397 15.862 4.503.079 17.665-18.712 20.223-25.945 1.838-5.194-9.22-8.216-12.392-7.567-3.962.812-10.888 16.916-13.696 17.102-4.503.292-13.026-2.616-22.432-4.276-4.838-.805-5.266 1.974-3.1 4.824z" fill="#F7A9A0"/><path d="M95.391 166.073c.777-1.554 3.706-8.986 4.062-11.238.356-2.252.89-8.8-.806-9.263-1.695-.464-2.002 1.425-2.002 1.425s-.214-2.801-1.96-3.093c-1.745-.292-2.137 2.687-2.137 2.687s-.42-2.851-2.188-3.029c-1.767-.178-1.653 2.893-1.653 2.893s-.264-2.629-1.774-2.138c-1.825.571-.784 5.373-1.361 7.839-.129.556-3.45 11.109-3.45 11.109l13.269 2.808z" fill="#F7A9A0"/><path d="M88.7 146.234c.755 3.527.477 5.209-.713 8.551 0 .064.065.114.093.05 1.504-3.157 2.138-5.209.827-8.644-.1-.171-.243-.128-.207.043zM92.484 146.349c.463 3.741.178 5.558-.855 9.149 0 .05.07.079.092 0 1.304-3.434 1.91-5.501.955-9.171-.043-.135-.214-.149-.192.022zM96.581 147.218c.192 3.649-.043 5.658-1.49 9.022a.066.066 0 0 0 .033.089.07.07 0 0 0 .051.002.066.066 0 0 0 .038-.034 12.117 12.117 0 0 0 1.482-9.072c-.043-.228-.121-.235-.114-.007z" fill="#263238"/><path d="M79.664 164.847a44.257 44.257 0 0 1-.064-6.534c.285-2.017 4.105-9.142 5.7-8.401 2.046.947.65 5.501-.327 7.639 0 0 4.746 2.201 4.447 5.7-.3 3.499-9.756 1.596-9.756 1.596z" fill="#F7A9A0"/><path d="M85.771 150.353c1.24 2.216-.22 4.946-1.012 7.091a.202.202 0 0 0 .014.196.211.211 0 0 0 .172.096c1.924 1.054 4.332 3.099 4.581 5.401 0 .071.1.071.1 0 .071-2.508-2.138-4.71-4.31-5.701.847-2.187 2.187-4.988.477-7.061-.015-.043-.029-.036-.022-.022z" fill="#263238"/><path d="m74.299 167.583 15.676 10.311s-8.444 12.698-13.432 13.788c-4.988 1.091-21.235-5.23-29.522-12.783-8.287-7.554-5.102-10.154 3.777-8.081 8.878 2.074 17.422 3.827 18.812 3.2 1.39-.627 4.689-6.435 4.689-6.435z" fill="#FFC727"/><path d="M66.439 189.852c-6.563-2.309-14.437-6.413-19.418-10.931-7.582-6.891-5.565-9.677 1.625-8.515l17.793 19.446z" fill="#263238"/><path d="M58.935 199.906v-.085s3.171-4.062 2.85-8.167c-.348-4.66-8.336-17.586-9.077-18.37-3.008-3.149-7.419-5.187-13.105-.427-5.943 4.988-12.114 17.358-16.39 27.078l35.722-.029z" fill="#FFC727"/><path d="M35.442 199.906c2.301-5.445 6.413-13.903 8.957-18.977 4.71-9.434-2.452-9.976-5.166-7.182-5.33 5.437-14.587 15.491-18.741 23.137v3.022h14.95z" fill="#F7A9A0"/><path d="M36.382 199.907c2.295-5.245 6.413-14.252 8.972-19.482 3.733-7.675-.485-12.727-7.233-6.242-5.402 5.194-13.49 15.491-17.622 22.653v3.071h15.883z" fill="#FFC727"/><path d="M36.674 199.906c.171-.349.328-.67.428-.898.62-1.425 1.247-2.85 1.853-4.318.605-1.468 1.232-2.886 1.81-4.347.1-.249.206-.492.306-.712.135-.1 1.268-1.725 1.589-2.081.057-.057-.043-.143-.085-.086a9.234 9.234 0 0 1-.97 1.076l-.17.207c.391-.941.783-1.888 1.147-2.85 0-.072-.072-.121-.1-.057-.848 1.952-1.425 3.128-2.188 4.667-.762 1.539-1.368 3.021-2.038 4.539-.67 1.518-1.31 3.05-1.952 4.582 0 .078-.079.171-.121.278h.491z" fill="#263238"/><path d="M44.363 171.404c.185.641 3.485 4.66 6.413 4.368.955-.1.656-5.345.656-5.345l.064-.392.926-5.494-6.591-3.755-.955-.492s-.15 1.518-.32 3.414v.577c0 .285-.057.57-.079.862-.021.292-.035.428-.05.663l-.042.712a36.975 36.975 0 0 0-.022 4.882z" fill="#F7A9A0"/><path d="M44.57 163.708a11.168 11.168 0 0 0 6.94 6.327l.927-5.494-6.592-3.755-.954-.492s-.15 1.504-.321 3.414z" fill="#263238"/><path d="M44.27 159.902s-2.565-2.694-3.819-1.732.99 5.088 2.694 5.445a1.651 1.651 0 0 0 1.776-.611 1.64 1.64 0 0 0 .276-.601l-.927-2.501z" fill="#F7A9A0"/><path d="M41.12 159.339v.043a4.183 4.183 0 0 1 2.53 2.258.92.92 0 0 0-1.425-.042s0 .071.043.057a.998.998 0 0 1 1.154.185 4.9 4.9 0 0 1 .67.812c.064.093.243 0 .186-.099-.171-1.468-1.59-3.307-3.157-3.214z" fill="#263238"/><path d="M59.285 154.572c2.301 9.506-3.136 11.95-5.18 12.442-1.86.449-8.253 1.739-11.523-7.475-3.271-9.214.427-13.283 4.624-14.53 4.197-1.247 9.784.065 12.079 9.563z" fill="#F7A9A0"/><path d="M57.182 153.553h-.712a1.116 1.116 0 0 1-.677-.157.344.344 0 0 1-.071-.421.865.865 0 0 1 .805-.342c.313-.005.617.104.855.307a.366.366 0 0 1 .079.364.375.375 0 0 1-.279.249zM50.548 154.886c.221-.064.414-.164.627-.25.234-.055.443-.189.592-.377a.336.336 0 0 0-.071-.414.85.85 0 0 0-.87-.057c-.299.097-.552.3-.712.57a.378.378 0 0 0 .434.528zM52.244 157.094s-.05.043-.042.072c.15.648.206 1.425-.343 1.745v.036c.713-.235.627-1.254.385-1.853z" fill="#263238"/><path d="M51.525 156.532c-1.062.121-.713 2.244.249 2.137.962-.106.648-2.244-.25-2.137z" fill="#263238"/><path d="M51.126 156.702c-.164.15-.314.392-.535.449-.22.057-.484-.128-.712-.321 0 0-.043 0 0 .036.057.406.278.798.712.791.435-.007.642-.406.713-.834-.029-.078-.107-.178-.178-.121zM56.335 156.168s.057 0 .057.05c.07.663.27 1.425.897 1.539v.036c-.755.007-1.004-.984-.954-1.625z" fill="#263238"/><path d="M56.805 155.384c1.047-.235 1.425 1.874.47 2.095-.955.221-1.347-1.888-.47-2.095z" fill="#263238"/><path d="M57.275 155.456c.185.078.385.249.592.228.206-.022.363-.292.47-.535.085.407 0 .848-.342.998-.342.15-.67-.164-.841-.549.007-.057.043-.178.121-.142zM53.334 162.096c.179.136.357.335.6.328.251-.029.494-.112.712-.242.042 0 0 0 0 0a.883.883 0 0 1-.798.449.713.713 0 0 1-.585-.528c0-.007.05-.028.072-.007zM55.693 159.268c.148.469.272.944.37 1.425 0 .043-.1.079-.256.114a2.236 2.236 0 0 1-2.273-.47.049.049 0 0 1-.002-.061.045.045 0 0 1 .027-.019.046.046 0 0 1 .032.002 3.304 3.304 0 0 0 2.138.242c0-.128-.563-1.618-.492-1.639a4.153 4.153 0 0 1 1.09.064c-.563-2.016-1.425-3.919-1.966-5.936a.064.064 0 0 1 .006-.041.068.068 0 0 1 .031-.028.06.06 0 0 1 .042-.003.061.061 0 0 1 .035.022 33.956 33.956 0 0 1 2.394 6.307c.028.263-.976.071-1.176.021z" fill="#263238"/><path d="M55.715 160.643a2.692 2.692 0 0 1-.906 1.048 1.237 1.237 0 0 1-.712.192c-.556-.035-.67-.52-.656-.955.01-.241.049-.48.114-.712a3.51 3.51 0 0 0 2.16.427z" fill="#263238"/><path d="M54.81 161.69a1.245 1.245 0 0 1-.713.193c-.556-.036-.67-.52-.656-.955a1.277 1.277 0 0 1 1.368.762z" fill="#FF99BA"/><path d="M43.259 160.08c1.596-.206 1.26-3.562 1.26-3.562s3.193-.663 3.279-5.466a7.253 7.253 0 0 1-.613 4.09s5.494-1.781 6.87-6.983c0 0-.435 2.594-1.14 3.634a6.738 6.738 0 0 0 2.964-3.313s1.553 2.508 2.472 3.099c0 0-2.309-9.79-11.202-6.826 0 0-5.622 1.582-6.72 6.534-1.097 4.953 2.83 8.793 2.83 8.793z" fill="#263238"/><path d="M44.933 170.013a11.676 11.676 0 0 0-5.55 3.086s6.277 3.912 11.472 3c2.337-.414 3.563-4.354 3.563-4.354s-4.618-2.38-9.485-1.732z" fill="#F7A9A0"/><path d="M38.826 174.168a29.93 29.93 0 0 0 4.44 2.137 17.559 17.559 0 0 0 4.724 1.183c.8.093 1.609.093 2.409 0 .397-.052.79-.133 1.175-.242a3.347 3.347 0 0 0 1.034-.52 7.025 7.025 0 0 0 1.61-1.782 14.14 14.14 0 0 0 1.183-2.137 8.932 8.932 0 0 1-2.544 4.275c-.334.29-.725.508-1.147.641-.405.127-.82.223-1.24.285a10.76 10.76 0 0 1-2.53.065 16.33 16.33 0 0 1-4.831-1.326 20.298 20.298 0 0 1-4.283-2.579z" fill="#263238"/><path d="M84.838 23.443H23.812v61.025h61.026V23.443z" fill="#fff"/><path d="M85.194 84.839H23.456V23.086h61.738V84.84zm-61.025-.713h60.313V23.8H24.168v60.327z" fill="#EBEBEB"/><path d="M30.51 27.063a1.796 1.796 0 1 1-3.59 0 1.796 1.796 0 0 1 3.59 0z" fill="#A6A6A6"/><path d="M36.047 28.858a1.796 1.796 0 1 0 0-3.591 1.796 1.796 0 0 0 0 3.591z" fill="#EBEBEB"/><path d="M43.387 28.858a1.796 1.796 0 1 0 0-3.591 1.796 1.796 0 0 0 0 3.591z" fill="#FFC727"/><path d="M84.838 30.226H23.812v.713h61.026v-.713z" fill="#EBEBEB"/><path d="M42.795 61.323c4.084 9.82 12.72 21.82 18.079 20.907 4.895-.826 15.156-7.838 19.296-11.401 4.14-3.563-7.574-13.432-10.068-11.401-3.328 2.736-8.915 8.55-9.977 8.344-1.346-.214-2.935-2.06-11.686-10.24-3.634-3.335-7.418-.406-5.644 3.791z" fill="#AD6359"/><path d="M74.413 54.44c2.102-.983 4.432-2.287 6.847-2.48 2.416-.192 4.746 2.793 4.839 3.713.093.919-.257 6.698-2.672 6.94-2.416.242-1.425-4.275-1.532-4.774-.107-.499-.3-1.126-.748-1.033-.45.092-8.053 4.674-8.053 4.674l1.319-7.04z" fill="#AD6359"/><path d="M74.605 54.76c.135 0 6.356-3.214 8.779-3.413 2.423-.2 4.746 2.8 4.838 3.712.093.913-.256 6.706-2.672 6.941-2.415.235-1.425-4.276-1.539-4.774-.114-.5-.292-1.12-.748-1.033-.456.085-8.052 4.674-8.052 4.674l-.606-6.107z" fill="#AD6359"/><path d="M84.695 61.78a2.85 2.85 0 0 1-.541-1.39 4.93 4.93 0 0 1-.064-1.554c.087-.446.14-.899.156-1.354a2.638 2.638 0 0 0-.463-1.247c-.22-.32-.563-.17-.855 0-.433.211-.852.45-1.254.713-.442.278-.877.563-1.311.848-.46.274-.903.576-1.326.905v.064c.406-.185.784-.442 1.176-.67.392-.228.877-.52 1.318-.77.442-.249.813-.498 1.233-.712.143-.078.435-.27.613-.25.178.022.328.464.385.606.142.426.157.884.043 1.319a6.57 6.57 0 0 0-.115 1.346c-.002.426.073.849.221 1.247.197.356.436.686.713.984.036.014.114-.043.071-.086z" fill="#263238"/><path d="M67.565 61.865s6.092-6.77 7.368-8.124c2.55-2.708 13.852-8.693 15.477-9.028 1.625-.335 2.558 2.964-5.095 7.261-4.026 2.259-4.539 4.746-4.325 6.078.214 1.333 1.739 3.691 3.983 3.407 2.245-.286 3.378-3.713 5.409-4.276 2.03-.563 1.04 3.356-.2 5.7a13.894 13.894 0 0 1-5.587 5.324c-1.867.926-7.631 4.118-7.631 4.118l-9.4-10.46z" fill="#AD6359"/><path d="M87.61 59.606c-.784.713-1.66 1.682-2.772 1.839-1.112.156-1.967-.52-2.601-1.425a4.276 4.276 0 0 1-.898-3.05c.16-1 .609-1.93 1.29-2.68a12.953 12.953 0 0 1 2.85-2.33c.05 0 0-.1-.05-.071-.99.57-4.076 2.202-4.44 5.116a4.404 4.404 0 0 0 .941 3.107 3.164 3.164 0 0 0 2.502 1.618c1.34 0 2.38-1.219 3.249-2.138.007-.007-.036-.029-.071.014z" fill="#263238"/><path d="M42.546 63.51a46.318 46.318 0 0 0 5.622 11.267c.492.712.784 1.033.784 1.033l8.437-9.05 1.169-1.254s-.221-.243-.927-.898c-.997-.92-2.978-2.644-6.705-5.615a19.783 19.783 0 0 0-5.458-3.335c-4.04-1.404-5.038 1.846-2.922 7.853z" fill="#37474F"/><path d="m47.256 75.76 2.786 3.171 9.406-10.282 2.102-2.309-3.313-2.38-.606.648-1.182 1.276-8.28 8.893-.913.983z" fill="#37474F"/><path d="M42.546 63.51a46.318 46.318 0 0 0 5.622 11.267l-.912.983 2.786 3.17 9.407-10.282-2.06-1.888-.94-.877a1657.678 1657.678 0 0 1-10.981-10.225c-4.04-1.404-5.038 1.846-2.922 7.853z" fill="#263238"/><path d="M57.247 84.175a122.04 122.04 0 0 0-2.409-16.752c-.99-4.19-5.822-10.212-6.014-10.383-2.85-2.55-6.342-3.249-10.033.442-4.732 4.739-10.361 17.152-14.252 26.693h32.708z" fill="#37474F"/><path d="M39.774 65.428c4.874 9.506 22.974 25.76 29.01 25.824 7.004.043 23.073-11.601 26.4-16.14 1.333-1.803-10.688-10.304-12.577-8.836-7.945 6.135-14.964 9.2-16.332 8.779-2.138-.649-12.392-7.931-19.133-12.89-8.472-6.257-9.556-.998-7.368 3.263z" fill="#AD6359"/><path d="M94.814 75.489c.826-.627 5.757-7.283 6.962-10.055a29.511 29.511 0 0 0 2.515-9.178c.499-4.988.378-8.55-.534-9.833-1.062-1.518-1.304-1.746-3.414 6.983-1.197 4.938-3.434 6.157-5.515 6.77a35.301 35.301 0 0 0-13.739 7.674s10.554 10.04 13.725 7.639z" fill="#AD6359"/><path d="m94.543 41.307-5.7 16.054c-.172.478.07.855.534.855l8.287-.057a1.34 1.34 0 0 0 1.14-.862l5.701-16.061c.171-.478-.071-.856-.534-.856l-8.288.064a1.318 1.318 0 0 0-1.14.863z" fill="#263238"/><path d="m93.802 41.37-5.7 16.062c-.165.47.07.855.534.848l8.287-.057a1.333 1.333 0 0 0 1.147-.862l5.701-16.061c.171-.47-.064-.848-.527-.848l-8.288.057a1.361 1.361 0 0 0-1.154.862z" fill="#37474F"/><path d="M94.037 42.148 88.792 56.87c-.156.456.05.812.464.812l7.41-.05a1.262 1.262 0 0 0 1.048-.819l5.245-14.729c.327-.92.057-1.119-.357-1.112h-1.482c-.085 0-.192.1-.235.221v.057c-.1.285-.257.285-.449.285h-3.435c-.192 0-.349 0-.242-.278V41.2c.043-.12 0-.22-.078-.22h-1.482c-.428.042-.863.327-1.162 1.168z" fill="#fff"/><path d="M98.377 41.2h.94a.093.093 0 0 0 .079-.056.042.042 0 0 0-.006-.04.043.043 0 0 0-.037-.017h-.976a.086.086 0 0 0-.079.056.048.048 0 1 0 .079.057z" fill="#fff"/><path d="m92.256 50.813 6.299-.043 2.252-6.32-6.3.05-2.251 6.313z" fill="#DBDBDB"/><path d="m94.514 51.832 3.677-.029.129-.37-3.677.028-.129.37zM93.617 52.445l4.354-.029.064-.185-4.347.029-.071.185zM93.496 52.786l4.353-.035.065-.178-4.347.028-.071.185zM93.374 53.121l4.354-.028.072-.185-4.354.028-.072.185zM95.142 42.476l.784-.008.056-.15-.783.008-.057.15zM95.042 42.76l.784-.007.057-.156-.784.007-.057.157zM94.942 43.04l.784-.008.057-.15h-.784l-.057.157z" fill="#A6A6A6"/><path d="M92 51.746a.412.412 0 0 0 .135.185c.102-.048.196-.113.277-.192.171-.143.221-.35.072-.35-.15 0-.214.172-.214.172s0-.171-.086-.164c-.085.007-.22.2-.185.349z" fill="#FFC727"/><path d="m90.945 56.207 5.08-.036.52-1.46-5.08.035-.52 1.46z" fill="#DBDBDB"/><path d="M95.847 59.82c-2.138.712 3.456-5.822 2.793-8.288-.662-2.465-2.786-.954-4.225 1.012-4.988 6.806-9.976 8.117-11.808 13.71-1.831 5.594 13.24-6.434 13.24-6.434z" fill="#AD6359"/><path d="M61.957 72.625c.712.364 1.425.77 2.137 1.154.629.403 1.295.744 1.989 1.02.814.2 1.673.112 2.43-.25a20.899 20.899 0 0 0 2.037-.884 66.048 66.048 0 0 0 7.839-4.567 45.429 45.429 0 0 0 4.147-2.9l-.135.213c.234-.76.549-1.494.94-2.187.45-.808.988-1.563 1.604-2.252a22.863 22.863 0 0 1 2.095-2.06c.391-.341.776-.712 1.175-.997l.599-.484c.178-.143.606-.392.713-.592-.036.086-.157 0-.1-.057a.05.05 0 0 1 .035-.015.049.049 0 0 1 .036.015h.043v.05c-.05.128-.193.214-.292.313l-.535.542c-.335.342-.663.713-.998 1.005-.755.748-1.517 1.503-2.216 2.294a20.191 20.191 0 0 0-1.667 2.138c-.257.378-.485.784-.713 1.176-.216.385-.399.788-.548 1.204 0 .036-2.423 1.91-3.684 2.85-1.262.941-2.587 1.782-3.94 2.587a57.976 57.976 0 0 1-4.134 2.252c-.713.359-1.448.67-2.202.933a3.835 3.835 0 0 1-2.137.3A8.468 8.468 0 0 1 64.4 74.27c-.841-.52-1.682-1.026-2.501-1.567-.014-.036.014-.1.057-.079z" fill="#263238"/><path d="m62.035 72.212-8.693 11.087s-10.29-9.313-13.839-17.187c-3.548-7.874.52-9.641 9.221-3.328 8.508 6.178 13.311 9.428 13.311 9.428z" fill="#37474F"/><path d="M52.921 65.755c1.497.955 2.95 1.989 4.383 3.015.712.505 1.425 1.011 2.08 1.525l1.09.819a8.56 8.56 0 0 0 1.233.87c.079.042 0 .156-.064.1a16.8 16.8 0 0 0-2.202-1.49 78.81 78.81 0 0 1-2.259-1.54c-1.425-1.033-2.921-2.102-4.275-3.249l.014-.05zM43.316 73.294c.398.35.825.668 1.275.948.178.107.35.228.52.342a57.674 57.674 0 0 1-2.465-3.15c1.846 1.996 3.563 4.084 5.43 6.072 1.867 1.988 3.634 4.175 5.593 6.114a.057.057 0 0 1 .025.067.057.057 0 0 1-.061.038.057.057 0 0 1-.042-.027c-1.917-1.974-3.94-3.826-5.758-5.893-.712-.827-1.425-1.66-2.137-2.501a3.781 3.781 0 0 1-.578-.37c-.213-.157-.434-.314-.634-.485-.406-.356-.812-.713-1.24-1.034-.057-.078.022-.17.072-.12z" fill="#263238"/><path d="m65.078 72.789-3.506-2.088-9.926 12.713 3.05 2.921L65.078 72.79z" fill="#37474F"/><path d="M52.836 81.731c1.211-1.688 2.55-3.292 3.833-4.916 1.283-1.625 2.701-3.178 3.934-4.853.043-.064.135 0 .093.071-1.262 1.653-2.395 3.406-3.692 5.031a61.55 61.55 0 0 1-4.069 4.746.064.064 0 0 1-.1-.079zM56.406 84.083a61.826 61.826 0 0 0-1.846 2.138h.25c-.99-.998-2.017-1.967-3.093-2.85v.135c.228-.335.456-.67.67-1.012-.285.285-.556.585-.827.89l-.057.065.064.071a53.59 53.59 0 0 0 3 2.972l.143.128.114-.15c.549-.812 1.09-1.582 1.582-2.387z" fill="#263238"/><path d="M51.39 62.684c-2.317-.107-7.469-3.563-8.637-6.556-.079-.2.47-2.137 1.019-4.589.32-1.468.655-3.114.84-4.639.043-.313 1.034.4 1.034.4l1.91.712 6.32 2.409a24.537 24.537 0 0 0-1.66 5.7 3.815 3.815 0 0 0 0 .634l-.827 5.93z" fill="#AD6359"/><path d="M52.202 56.791a.53.53 0 0 1 0 .107c-.33 0-.659-.026-.984-.078-6.413-.948-6.192-9.264-6.192-9.264l2.53.428 6.32 2.408a24.533 24.533 0 0 0-1.66 5.7 3.798 3.798 0 0 0-.014.7z" fill="#263238"/><path d="M44.933 36.305c-1.368 3.292-.527 13.282 1.675 15.677 3.192 3.513 8.9 4.375 12.007.427 3.007-3.833 1.681-16.83-.827-19.083-3.662-3.285-10.81-1.895-12.855 2.979z" fill="#AD6359"/><path d="M53.69 43.587s-.05 0-.042.064c.071.67.043 1.425-.549 1.724.741-.128.77-1.154.592-1.788z" fill="#263238"/><path d="M53.035 42.932c-1.09 0-1.004 2.18 0 2.18 1.005 0 .912-2.18 0-2.18zM57.824 43.331s.057 0 .057.057c0 .677.128 1.425.712 1.653-.72-.042-.833-1.069-.77-1.71z" fill="#263238"/><path d="M58.401 42.604c1.083-.129 1.254 2.045.25 2.137-1.005.093-1.155-2.03-.25-2.137zM52.137 41.97c.282-.095.557-.204.827-.328.31-.074.586-.25.784-.499a.464.464 0 0 0-.093-.556 1.132 1.132 0 0 0-1.154-.071c-.398.127-.734.4-.94.763a.492.492 0 0 0 .576.69zM59.185 41.47c-.307 0-.577-.12-.877-.184a1.496 1.496 0 0 1-.855-.364.463.463 0 0 1 0-.563 1.149 1.149 0 0 1 1.126-.264c.413.064.788.277 1.055.6a.492.492 0 0 1-.45.776zM53.363 49.651c.164.15.335.363.584.378.25-.016.492-.084.713-.2a.905.905 0 0 1-.84.406.713.713 0 0 1-.557-.577c.022-.014.072-.028.1-.007zM53.99 47.606a2.302 2.302 0 0 0 1.575.962c.274.04.552.04.827 0a.557.557 0 0 0 .156 0h.15a.177.177 0 0 0 .128-.156v-.136c0-.513-.092-1.304-.092-1.304.2.086 1.182.485 1.154.214a34.262 34.262 0 0 0-1.169-6.919c0-.071-.135-.05-.12 0 .127 2.138.64 4.275.804 6.463a4.06 4.06 0 0 0-1.097-.292c-.071 0 .185 1.525.171 1.76a3.192 3.192 0 0 1-2.408-.641c-.072-.05-.122-.008-.079.05zM58.38 36.305c-3.1 2.586-7.96-.42-7.96-.42a3.635 3.635 0 0 1-3.449 2.629s-.114 5.7-1.596 5.807c-2.259.2-3.677-7.39-3.114-8.964a4.033 4.033 0 0 1 2.444-2.138c.126-.932.6-1.782 1.326-2.38 1.425-1.325 6.89-.242 6.89-.242a4.931 4.931 0 0 1 1.19-1.967 1.424 1.424 0 0 1 2.024 0c-.24.44-.378.926-.406 1.425-.114 1.668 1.233 1.54 1.076.05a2.352 2.352 0 0 0-.67-1.489c.57-1.033 1.625-1.425 2.33-.998 1.283.841 2.494 6.535-.085 8.687z" fill="#263238"/><path d="M46.28 44.507s-1.981-3.35-3.485-2.672c-1.503.676-.185 5.422 1.426 6.185a1.731 1.731 0 0 0 2.38-.756l-.321-2.757z" fill="#AD6359"/><path d="M43.209 43.188v.043a4.34 4.34 0 0 1 2.045 2.893.953.953 0 0 0-1.425-.363v.064a1.055 1.055 0 0 1 1.133.456c.198.311.36.643.484.99.05.107.25.065.214-.056.178-1.568-.84-3.756-2.451-4.027z" fill="#263238"/><path d="M152.697 84.838a8.63 8.63 0 0 1-1.482-4.774c0-6.057 6.648-10.967 14.85-10.967s14.836 4.91 14.836 10.967-6.642 10.96-14.836 10.96a17.765 17.765 0 0 1-10.24-3.036l-5.116 1.304 1.988-4.454z" fill="#FFC727"/><path d="M155.04 78.78v-2.812h.595v1.16h1.206v-1.16h.594v2.812h-.594v-1.162h-1.206v1.162h-.595zM158.867 78.821c-.213 0-.398-.045-.554-.136a.933.933 0 0 1-.358-.382 1.232 1.232 0 0 1-.126-.57c0-.217.042-.408.126-.57a.92.92 0 0 1 .358-.382c.156-.092.341-.138.554-.138.213 0 .397.046.552.138.155.09.275.218.36.381.084.163.126.354.126.572 0 .216-.042.406-.126.57a.937.937 0 0 1-.36.381c-.155.09-.339.136-.552.136zm.003-.453a.364.364 0 0 0 .243-.082.511.511 0 0 0 .147-.228c.033-.097.05-.206.05-.329 0-.122-.017-.232-.05-.328a.511.511 0 0 0-.147-.228.36.36 0 0 0-.243-.083.375.375 0 0 0-.248.083.523.523 0 0 0-.149.228c-.033.096-.05.206-.05.329 0 .122.017.231.05.328a.523.523 0 0 0 .149.228.38.38 0 0 0 .248.082zM161.638 77.882V76.67h.585v2.109h-.562v-.383h-.022a.623.623 0 0 1-.237.298.698.698 0 0 1-.403.112.658.658 0 0 1-.623-.37.94.94 0 0 1-.091-.423V76.67h.585v1.238a.431.431 0 0 0 .1.296.342.342 0 0 0 .265.108.42.42 0 0 0 .198-.048.37.37 0 0 0 .148-.146.44.44 0 0 0 .057-.237zM162.691 78.78v-2.11h.567v.369h.022a.51.51 0 0 1 .506-.398.871.871 0 0 1 .184.02v.52a1.02 1.02 0 0 0-.247-.031.463.463 0 0 0-.23.055.42.42 0 0 0-.16.154.448.448 0 0 0-.057.228v1.193h-.585zM164.858 75.968v2.812h-.585v-2.812h.585zM165.687 79.57a1.152 1.152 0 0 1-.368-.06l.132-.436a.73.73 0 0 0 .186.034.236.236 0 0 0 .144-.038.29.29 0 0 0 .1-.14l.034-.09-.756-2.17h.615l.437 1.55h.022l.44-1.55h.62l-.82 2.338a.99.99 0 0 1-.161.296.656.656 0 0 1-.254.197.888.888 0 0 1-.371.07zM169.264 78.814a.796.796 0 0 1-.435-.123.859.859 0 0 1-.308-.367 1.414 1.414 0 0 1-.112-.596c0-.242.038-.442.116-.603a.794.794 0 0 1 .738-.482c.118 0 .216.02.295.06.08.04.144.09.192.15.05.058.087.115.113.172h.018v-1.057h.583v2.812h-.577v-.338h-.024a.785.785 0 0 1-.117.175.573.573 0 0 1-.194.14.66.66 0 0 1-.288.057zm.185-.465a.373.373 0 0 0 .239-.077.48.48 0 0 0 .151-.219.91.91 0 0 0 .054-.328.922.922 0 0 0-.052-.326.47.47 0 0 0-.151-.215.385.385 0 0 0-.241-.075.38.38 0 0 0-.243.078.478.478 0 0 0-.149.217.928.928 0 0 0-.051.321c0 .123.017.232.051.326a.495.495 0 0 0 .149.22.38.38 0 0 0 .243.078zM170.945 78.78v-2.11h.567v.369h.022a.546.546 0 0 1 .194-.297.508.508 0 0 1 .313-.101.886.886 0 0 1 .184.02v.52a1.032 1.032 0 0 0-.247-.031.47.47 0 0 0-.231.055.41.41 0 0 0-.159.154.44.44 0 0 0-.058.228v1.193h-.585zM172.527 78.78v-2.11h.585v2.11h-.585zm.294-2.381a.32.32 0 0 1-.224-.087.282.282 0 0 1 0-.417.317.317 0 0 1 .224-.088c.087 0 .161.03.223.088a.28.28 0 0 1 0 .417.315.315 0 0 1-.223.087zM175.547 76.67l-.737 2.11h-.659l-.738-2.11h.618l.438 1.51h.022l.437-1.51h.619zM176.74 78.821a1.13 1.13 0 0 1-.561-.132.904.904 0 0 1-.359-.376 1.234 1.234 0 0 1-.127-.578c0-.217.042-.407.127-.571a.93.93 0 0 1 .355-.383c.154-.092.334-.138.541-.138.139 0 .269.023.389.068a.864.864 0 0 1 .527.534c.05.133.076.29.076.47v.16h-1.781v-.362h1.23a.444.444 0 0 0-.055-.224.395.395 0 0 0-.152-.153.436.436 0 0 0-.224-.056.447.447 0 0 0-.455.452v.344c0 .105.02.195.058.27a.422.422 0 0 0 .166.177.501.501 0 0 0 .254.062c.065 0 .125-.01.179-.028a.364.364 0 0 0 .226-.217l.541.036a.727.727 0 0 1-.169.34.848.848 0 0 1-.326.225c-.133.054-.286.08-.46.08zM178.089 78.78v-2.11h.567v.369h.022a.51.51 0 0 1 .507-.398.886.886 0 0 1 .184.02v.52a1.02 1.02 0 0 0-.247-.031.47.47 0 0 0-.231.055.41.41 0 0 0-.159.154.449.449 0 0 0-.058.228v1.193h-.585zM158.809 83.867v-2.9h.577v.354h.026a.734.734 0 0 1 .111-.173.577.577 0 0 1 .192-.148c.08-.04.179-.06.297-.06.153 0 .295.04.425.12.13.08.234.2.312.362.078.16.117.36.117.602 0 .236-.038.434-.114.596a.79.79 0 0 1-.742.49.672.672 0 0 1-.289-.056.595.595 0 0 1-.194-.141.71.71 0 0 1-.115-.175h-.018v1.13h-.585zm.572-1.845c0 .125.018.234.053.328a.48.48 0 0 0 .151.218.38.38 0 0 0 .24.077.379.379 0 0 0 .242-.078.487.487 0 0 0 .149-.22.932.932 0 0 0 .052-.325.93.93 0 0 0-.05-.322.48.48 0 0 0-.15-.217.38.38 0 0 0-.243-.078.388.388 0 0 0-.242.076.466.466 0 0 0-.149.214.921.921 0 0 0-.053.327zM161.256 83.076v-2.109h.567v.368h.022a.51.51 0 0 1 .506-.398.871.871 0 0 1 .184.02v.52a1.007 1.007 0 0 0-.247-.032.463.463 0 0 0-.23.056.419.419 0 0 0-.16.154.448.448 0 0 0-.057.228v1.193h-.585zM162.838 83.076v-2.109h.585v2.11h-.585zm.294-2.38a.318.318 0 0 1-.224-.087.281.281 0 0 1 0-.418.315.315 0 0 1 .224-.088c.087 0 .161.03.222.088a.28.28 0 0 1 0 .417.311.311 0 0 1-.222.087zM164.844 83.117c-.216 0-.402-.045-.557-.137a.924.924 0 0 1-.357-.384 1.235 1.235 0 0 1-.124-.566c0-.216.042-.406.125-.569a.927.927 0 0 1 .359-.383c.154-.092.338-.138.552-.138.184 0 .345.033.483.1s.248.16.328.281a.82.82 0 0 1 .133.426h-.552a.422.422 0 0 0-.123-.254.355.355 0 0 0-.26-.097.39.39 0 0 0-.237.074.474.474 0 0 0-.157.213.921.921 0 0 0-.056.339c0 .134.018.249.055.343a.47.47 0 0 0 .158.216.39.39 0 0 0 .237.074.386.386 0 0 0 .18-.041.349.349 0 0 0 .133-.12.453.453 0 0 0 .07-.19h.552a.86.86 0 0 1-.132.425.79.79 0 0 1-.322.285c-.138.07-.3.103-.488.103zM167.122 83.117c-.217 0-.404-.044-.56-.131a.9.9 0 0 1-.36-.377 1.247 1.247 0 0 1-.126-.578c0-.217.042-.407.126-.57a.932.932 0 0 1 .356-.384c.153-.092.334-.137.541-.137a1.1 1.1 0 0 1 .388.067.866.866 0 0 1 .527.534c.051.134.076.29.076.47v.16h-1.781v-.362h1.23a.444.444 0 0 0-.055-.224.388.388 0 0 0-.152-.152.436.436 0 0 0-.224-.057.45.45 0 0 0-.236.062.456.456 0 0 0-.218.39v.345c0 .104.019.194.057.27.04.076.095.135.167.176a.498.498 0 0 0 .254.062.55.55 0 0 0 .178-.028.363.363 0 0 0 .227-.217l.541.036a.746.746 0 0 1-.169.34.845.845 0 0 1-.327.226c-.133.053-.286.08-.46.08zM169.869 82.233v-.047c.001-.16.015-.287.043-.383a.572.572 0 0 1 .123-.23.945.945 0 0 1 .195-.16 1.29 1.29 0 0 0 .153-.114.498.498 0 0 0 .107-.13.338.338 0 0 0-.006-.328.301.301 0 0 0-.122-.11.372.372 0 0 0-.336.001.326.326 0 0 0-.131.116.354.354 0 0 0-.055.188h-.56a.814.814 0 0 1 .132-.453.755.755 0 0 1 .331-.268c.137-.06.289-.09.454-.09.183 0 .344.03.484.091a.694.694 0 0 1 .449.67.704.704 0 0 1-.201.505c-.063.064-.137.121-.224.172a.92.92 0 0 0-.178.135.455.455 0 0 0-.103.162.7.7 0 0 0-.034.226v.047h-.521zm.272.879a.324.324 0 0 1-.329-.33.324.324 0 0 1 .329-.327c.087 0 .164.033.229.097a.316.316 0 0 1 .053.396.358.358 0 0 1-.12.12.31.31 0 0 1-.162.044zM172.044 82.233v-.047c.001-.16.015-.287.043-.383a.572.572 0 0 1 .123-.23.945.945 0 0 1 .195-.16 1.29 1.29 0 0 0 .153-.114.498.498 0 0 0 .107-.13.338.338 0 0 0-.006-.328.301.301 0 0 0-.122-.11.372.372 0 0 0-.336.001.326.326 0 0 0-.131.116.354.354 0 0 0-.055.188h-.56a.814.814 0 0 1 .132-.453.755.755 0 0 1 .331-.268c.137-.06.289-.09.454-.09.183 0 .344.03.484.091a.694.694 0 0 1 .449.67.704.704 0 0 1-.201.505c-.063.064-.137.121-.224.172a.92.92 0 0 0-.178.135.455.455 0 0 0-.103.162.7.7 0 0 0-.034.226v.047h-.521zm.272.879a.324.324 0 0 1-.329-.33.324.324 0 0 1 .329-.327c.087 0 .164.033.229.097a.316.316 0 0 1 .053.396.358.358 0 0 1-.12.12.31.31 0 0 1-.162.044zM174.219 82.233v-.047c.001-.16.015-.287.043-.383a.572.572 0 0 1 .123-.23.945.945 0 0 1 .195-.16 1.29 1.29 0 0 0 .153-.114.498.498 0 0 0 .107-.13.338.338 0 0 0-.006-.328.301.301 0 0 0-.122-.11.372.372 0 0 0-.336.001.326.326 0 0 0-.131.116.354.354 0 0 0-.055.188h-.56a.814.814 0 0 1 .132-.453.755.755 0 0 1 .331-.268c.137-.06.289-.09.454-.09.183 0 .344.03.484.091a.694.694 0 0 1 .449.67.704.704 0 0 1-.201.505c-.063.064-.137.121-.224.172a.92.92 0 0 0-.178.135.455.455 0 0 0-.103.162.7.7 0 0 0-.034.226v.047h-.521zm.272.879a.324.324 0 0 1-.329-.33.324.324 0 0 1 .329-.327c.087 0 .164.033.229.097a.316.316 0 0 1 .053.396.358.358 0 0 1-.12.12.31.31 0 0 1-.162.044z" fill="#000"/><path d="M268.479 123.673c-1.222-1.52-1.883-3.311-1.899-5.146 0-6.529 8.517-11.821 19.014-11.821s19.005 5.292 19.005 11.813c0 6.521-8.508 11.814-19.014 11.814-4.666.066-9.245-1.074-13.117-3.265l-6.536 1.436 2.547-4.831z" fill="#FFC727"/><path d="M271.976 116.04c0 .307-.058.568-.175.783a1.207 1.207 0 0 1-.472.493 1.332 1.332 0 0 1-.67.169c-.25 0-.474-.057-.673-.17a1.225 1.225 0 0 1-.471-.493 1.64 1.64 0 0 1-.173-.782c0-.306.058-.567.173-.782.116-.215.273-.379.471-.492.199-.113.423-.17.673-.17.248 0 .471.057.67.17.2.113.357.277.472.492.117.215.175.476.175.782zm-.603 0c0-.198-.03-.366-.089-.502a.686.686 0 0 0-.249-.311.67.67 0 0 0-.376-.105.67.67 0 0 0-.376.105.688.688 0 0 0-.25.311 1.264 1.264 0 0 0-.088.502c0 .199.029.367.088.503s.143.24.25.31a.663.663 0 0 0 .376.106.663.663 0 0 0 .376-.106.683.683 0 0 0 .249-.31c.059-.136.089-.304.089-.503zM273.758 116.548v-1.211h.585v2.109h-.562v-.383h-.022a.62.62 0 0 1-.237.298.698.698 0 0 1-.403.113.71.71 0 0 1-.372-.096.658.658 0 0 1-.251-.273.945.945 0 0 1-.091-.425v-1.343h.585v1.239a.431.431 0 0 0 .1.295.344.344 0 0 0 .265.109.42.42 0 0 0 .198-.048.37.37 0 0 0 .148-.146.44.44 0 0 0 .057-.238zM275.932 115.337v.44h-1.27v-.44h1.27zm-.981-.505h.585v1.966c0 .054.008.096.024.127.017.029.04.05.069.061a.28.28 0 0 0 .104.018.465.465 0 0 0 .083-.007l.063-.012.092.435c-.029.009-.071.02-.124.032a.92.92 0 0 1-.193.023.882.882 0 0 1-.371-.056.52.52 0 0 1-.246-.201.615.615 0 0 1-.086-.343v-2.043zM278.042 115.939l-.536.033a.27.27 0 0 0-.059-.124.319.319 0 0 0-.119-.089.408.408 0 0 0-.175-.034.432.432 0 0 0-.229.057c-.062.038-.093.088-.093.151 0 .051.02.093.06.128.04.035.11.063.208.084l.381.077c.205.042.358.109.459.203a.477.477 0 0 1 .151.368.58.58 0 0 1-.122.364.795.795 0 0 1-.333.244c-.14.058-.301.087-.484.087-.279 0-.502-.059-.668-.175a.679.679 0 0 1-.289-.478l.575-.03c.017.085.06.15.126.195a.46.46 0 0 0 .257.066c.103 0 .185-.02.247-.059.063-.04.095-.092.096-.155a.163.163 0 0 0-.067-.131.493.493 0 0 0-.203-.079l-.365-.073c-.206-.041-.36-.113-.46-.214a.532.532 0 0 1-.15-.389.57.57 0 0 1 .11-.35.712.712 0 0 1 .312-.227c.134-.053.292-.079.472-.079.266 0 .476.056.629.169a.652.652 0 0 1 .269.46zM279.58 115.337v.44h-1.27v-.44h1.27zm-.982-.505h.585v1.966c0 .054.009.096.025.127.016.029.039.05.069.061a.28.28 0 0 0 .104.018.454.454 0 0 0 .082-.007l.064-.012.092.435c-.03.009-.071.02-.124.032a.93.93 0 0 1-.194.023.877.877 0 0 1-.37-.056.51.51 0 0 1-.246-.201.607.607 0 0 1-.087-.343v-2.043zM280.563 117.486a.873.873 0 0 1-.36-.07.571.571 0 0 1-.25-.21.625.625 0 0 1-.091-.349c0-.117.022-.215.065-.295a.509.509 0 0 1 .176-.192.845.845 0 0 1 .252-.11c.095-.025.195-.042.3-.052.122-.013.221-.025.296-.036a.425.425 0 0 0 .164-.052.117.117 0 0 0 .05-.102v-.008a.253.253 0 0 0-.082-.202.341.341 0 0 0-.231-.071.406.406 0 0 0-.251.07.328.328 0 0 0-.124.173l-.541-.044a.744.744 0 0 1 .474-.549 1.368 1.368 0 0 1 .781-.036c.108.028.204.07.287.128a.619.619 0 0 1 .272.545v1.422h-.554v-.292h-.017a.586.586 0 0 1-.34.291.835.835 0 0 1-.276.041zm.167-.403a.49.49 0 0 0 .228-.051.405.405 0 0 0 .155-.14.358.358 0 0 0 .056-.199v-.224a.297.297 0 0 1-.075.033 1.27 1.27 0 0 1-.106.026l-.118.02-.107.016a.713.713 0 0 0-.18.048.281.281 0 0 0-.119.089.212.212 0 0 0-.043.137c0 .08.029.141.087.183a.376.376 0 0 0 .222.062zM283.326 115.337v.44h-1.27v-.44h1.27zm-.982-.505h.585v1.966c0 .054.008.096.025.127a.13.13 0 0 0 .068.061.285.285 0 0 0 .105.018.454.454 0 0 0 .082-.007l.063-.012.092.435c-.029.009-.07.02-.123.032a.93.93 0 0 1-.194.023.884.884 0 0 1-.371-.056.513.513 0 0 1-.245-.201.607.607 0 0 1-.087-.343v-2.043zM283.707 117.446v-2.109h.585v2.109h-.585zm.294-2.381a.316.316 0 0 1-.224-.086.283.283 0 0 1 0-.417.313.313 0 0 1 .224-.088c.087 0 .161.029.222.088a.278.278 0 0 1 0 .417.31.31 0 0 1-.222.086zM285.713 117.488c-.213 0-.397-.046-.553-.136a.93.93 0 0 1-.358-.382 1.221 1.221 0 0 1-.127-.57c0-.218.042-.408.127-.571a.917.917 0 0 1 .358-.382c.156-.091.34-.137.553-.137.214 0 .398.046.552.137a.916.916 0 0 1 .36.382c.084.163.127.353.127.571 0 .216-.043.406-.127.57a.927.927 0 0 1-.36.382c-.154.09-.338.136-.552.136zm.003-.454a.363.363 0 0 0 .243-.082.513.513 0 0 0 .147-.228.978.978 0 0 0 .051-.328.978.978 0 0 0-.051-.328.513.513 0 0 0-.147-.228.36.36 0 0 0-.243-.084.372.372 0 0 0-.247.084.518.518 0 0 0-.15.228 1.005 1.005 0 0 0-.049.328c0 .123.016.232.049.328a.518.518 0 0 0 .15.228.376.376 0 0 0 .247.082zM287.717 116.227v1.219h-.585v-2.109h.557v.372h.025a.595.595 0 0 1 .235-.291.713.713 0 0 1 .399-.108c.147 0 .275.032.384.096a.664.664 0 0 1 .254.275c.06.118.09.259.09.423v1.342h-.585v-1.238a.422.422 0 0 0-.099-.302.353.353 0 0 0-.276-.11.416.416 0 0 0-.208.051.346.346 0 0 0-.14.148.513.513 0 0 0-.051.232zM291.209 117.481a.791.791 0 0 1-.743-.49 1.415 1.415 0 0 1-.112-.596c0-.242.039-.443.117-.603a.79.79 0 0 1 .737-.482c.118 0 .216.02.295.06.08.04.144.089.192.149a.73.73 0 0 1 .113.173h.018v-1.058h.583v2.812h-.576v-.337h-.025a.738.738 0 0 1-.117.174.568.568 0 0 1-.193.141.662.662 0 0 1-.289.057zm.186-.466a.37.37 0 0 0 .239-.077.488.488 0 0 0 .151-.218.932.932 0 0 0 .053-.328.923.923 0 0 0-.052-.327.47.47 0 0 0-.151-.214.387.387 0 0 0-.24-.076.375.375 0 0 0-.243.079.476.476 0 0 0-.15.217.924.924 0 0 0-.051.321c0 .123.017.231.051.325a.501.501 0 0 0 .15.22.38.38 0 0 0 .243.078zM292.89 117.446v-2.109h.567v.368h.022a.545.545 0 0 1 .194-.296.508.508 0 0 1 .313-.102.82.82 0 0 1 .184.021v.519a.928.928 0 0 0-.247-.032.476.476 0 0 0-.231.056.413.413 0 0 0-.217.382v1.193h-.585zM294.473 117.446v-2.109h.584v2.109h-.584zm.293-2.381a.314.314 0 0 1-.223-.086.28.28 0 0 1-.092-.21c0-.081.03-.15.092-.207a.311.311 0 0 1 .223-.088c.087 0 .161.029.223.088a.28.28 0 0 1 0 .417.314.314 0 0 1-.223.086zM297.492 115.337l-.737 2.109h-.659l-.737-2.109h.617l.438 1.509h.022l.437-1.509h.619zM298.685 117.488c-.217 0-.404-.044-.56-.132a.9.9 0 0 1-.36-.376 1.249 1.249 0 0 1-.126-.579c0-.216.042-.407.126-.571a.934.934 0 0 1 .356-.383 1.04 1.04 0 0 1 .541-.137c.139 0 .268.022.388.067a.862.862 0 0 1 .527.534c.051.134.076.29.076.47v.161h-1.781v-.363h1.23a.445.445 0 0 0-.055-.224.383.383 0 0 0-.152-.152.43.43 0 0 0-.224-.056.432.432 0 0 0-.395.225.453.453 0 0 0-.059.226v.345c0 .104.019.194.057.27.04.076.095.135.166.176a.506.506 0 0 0 .254.062.538.538 0 0 0 .179-.028.366.366 0 0 0 .139-.082.377.377 0 0 0 .088-.134l.541.035a.747.747 0 0 1-.169.341.853.853 0 0 1-.327.225c-.133.053-.286.08-.46.08zM300.035 117.446v-2.109h.567v.368h.022a.508.508 0 0 1 .506-.398.807.807 0 0 1 .184.021v.519a.918.918 0 0 0-.247-.032.469.469 0 0 0-.23.056.422.422 0 0 0-.16.154.449.449 0 0 0-.057.228v1.193h-.585zM276.957 122.534v-2.9h.577v.354h.026a.785.785 0 0 1 .111-.173.58.58 0 0 1 .193-.148.64.64 0 0 1 .296-.061.79.79 0 0 1 .426.121c.13.08.234.2.311.361.078.16.117.361.117.603 0 .235-.038.434-.114.596a.84.84 0 0 1-.307.366.785.785 0 0 1-.434.124.61.61 0 0 1-.484-.198.717.717 0 0 1-.115-.174h-.018v1.129h-.585zm.573-1.846a.93.93 0 0 0 .052.328.492.492 0 0 0 .151.219.381.381 0 0 0 .24.077.378.378 0 0 0 .242-.079.488.488 0 0 0 .15-.219.937.937 0 0 0 .052-.326.924.924 0 0 0-.051-.321.476.476 0 0 0-.15-.217.377.377 0 0 0-.243-.078.387.387 0 0 0-.241.075.481.481 0 0 0-.15.214.927.927 0 0 0-.052.327zM279.404 121.743v-2.109h.567v.368h.022a.547.547 0 0 1 .194-.297.506.506 0 0 1 .313-.102.82.82 0 0 1 .184.021v.519a1.115 1.115 0 0 0-.247-.032.465.465 0 0 0-.231.057.406.406 0 0 0-.159.154.433.433 0 0 0-.058.227v1.194h-.585zM280.986 121.743v-2.109h.585v2.109h-.585zm.294-2.381a.318.318 0 0 1-.224-.087.28.28 0 0 1-.092-.21c0-.08.031-.15.092-.207a.315.315 0 0 1 .224-.088c.087 0 .161.029.223.088a.272.272 0 0 1 .093.207.277.277 0 0 1-.093.21.314.314 0 0 1-.223.087zM282.993 121.784c-.216 0-.402-.046-.558-.137a.941.941 0 0 1-.357-.385 1.247 1.247 0 0 1-.123-.566c0-.216.041-.405.125-.568a.92.92 0 0 1 .358-.383c.155-.093.339-.139.552-.139.184 0 .345.034.483.1a.81.81 0 0 1 .329.282c.08.121.125.263.133.426h-.552a.426.426 0 0 0-.124-.254.353.353 0 0 0-.259-.098.396.396 0 0 0-.238.074.471.471 0 0 0-.156.213.897.897 0 0 0-.057.339.96.96 0 0 0 .055.343c.038.095.09.167.158.216a.396.396 0 0 0 .238.074.397.397 0 0 0 .18-.041.345.345 0 0 0 .133-.119.474.474 0 0 0 .07-.191h.552a.856.856 0 0 1-.132.425.796.796 0 0 1-.323.286c-.137.069-.3.103-.487.103zM285.27 121.784c-.217 0-.403-.044-.56-.132a.913.913 0 0 1-.36-.376 1.247 1.247 0 0 1-.126-.578c0-.217.042-.408.126-.571a.943.943 0 0 1 .356-.384c.154-.091.334-.137.541-.137.139 0 .269.023.389.067a.864.864 0 0 1 .527.535c.05.133.075.29.075.469v.161h-1.78v-.363h1.23a.442.442 0 0 0-.055-.223.399.399 0 0 0-.152-.153.443.443 0 0 0-.224-.056.44.44 0 0 0-.396.225.468.468 0 0 0-.059.227v.344c0 .105.019.195.058.271a.419.419 0 0 0 .166.175.49.49 0 0 0 .254.062.565.565 0 0 0 .179-.027.357.357 0 0 0 .226-.217l.541.036a.734.734 0 0 1-.169.34.845.845 0 0 1-.327.225c-.132.053-.286.08-.46.08zM288.018 120.9v-.047c.001-.16.015-.288.042-.383a.592.592 0 0 1 .124-.231.944.944 0 0 1 .195-.159c.057-.037.107-.075.152-.114a.47.47 0 0 0 .107-.131.324.324 0 0 0 .04-.162.306.306 0 0 0-.045-.166.309.309 0 0 0-.122-.11.377.377 0 0 0-.337.002.32.32 0 0 0-.13.115.356.356 0 0 0-.055.188h-.56a.806.806 0 0 1 .131-.453.764.764 0 0 1 .331-.268c.138-.059.289-.089.455-.089.182 0 .343.03.483.091.14.059.25.146.33.259a.704.704 0 0 1 .119.411.696.696 0 0 1-.2.505 1.134 1.134 0 0 1-.224.172.958.958 0 0 0-.179.134.476.476 0 0 0-.103.162.705.705 0 0 0-.034.227v.047h-.52zm.272.878a.322.322 0 0 1-.235-.096.315.315 0 0 1-.095-.233.31.31 0 0 1 .095-.231.322.322 0 0 1 .235-.096c.087 0 .163.032.229.096a.315.315 0 0 1 .052.397.356.356 0 0 1-.119.119.308.308 0 0 1-.162.044zM290.193 120.9v-.047c.001-.16.015-.288.042-.383a.592.592 0 0 1 .124-.231.944.944 0 0 1 .195-.159c.057-.037.107-.075.152-.114a.47.47 0 0 0 .107-.131.324.324 0 0 0 .04-.162.306.306 0 0 0-.045-.166.309.309 0 0 0-.122-.11.377.377 0 0 0-.337.002.32.32 0 0 0-.13.115.356.356 0 0 0-.055.188h-.56a.806.806 0 0 1 .131-.453.764.764 0 0 1 .331-.268c.138-.059.289-.089.455-.089.182 0 .343.03.483.091.14.059.25.146.33.259a.704.704 0 0 1 .119.411.696.696 0 0 1-.2.505 1.134 1.134 0 0 1-.224.172.958.958 0 0 0-.179.134.476.476 0 0 0-.103.162.705.705 0 0 0-.034.227v.047h-.52zm.272.878a.322.322 0 0 1-.235-.096.315.315 0 0 1-.095-.233.31.31 0 0 1 .095-.231.322.322 0 0 1 .235-.096c.087 0 .163.032.229.096a.315.315 0 0 1 .052.397.356.356 0 0 1-.119.119.308.308 0 0 1-.162.044zM292.368 120.9v-.047c.001-.16.015-.288.042-.383a.592.592 0 0 1 .124-.231.944.944 0 0 1 .195-.159c.057-.037.107-.075.152-.114a.47.47 0 0 0 .107-.131.324.324 0 0 0 .04-.162.306.306 0 0 0-.045-.166.309.309 0 0 0-.122-.11.377.377 0 0 0-.337.002.32.32 0 0 0-.13.115.356.356 0 0 0-.055.188h-.56a.806.806 0 0 1 .131-.453.764.764 0 0 1 .331-.268c.138-.059.289-.089.455-.089.182 0 .343.03.483.091.14.059.25.146.33.259a.704.704 0 0 1 .119.411.696.696 0 0 1-.2.505 1.134 1.134 0 0 1-.224.172.958.958 0 0 0-.179.134.476.476 0 0 0-.103.162.705.705 0 0 0-.034.227v.047h-.52zm.272.878a.322.322 0 0 1-.235-.096.315.315 0 0 1-.095-.233.31.31 0 0 1 .095-.231.322.322 0 0 1 .235-.096c.087 0 .163.032.229.096a.315.315 0 0 1 .052.397.356.356 0 0 1-.119.119.308.308 0 0 1-.162.044z" fill="#000"/><path d="M28.587 149.235a8.661 8.661 0 0 0 1.482-4.782c0-6.057-6.649-10.959-14.843-10.959-8.195 0-14.843 4.902-14.843 10.959 0 6.057 6.648 10.967 14.843 10.967a17.819 17.819 0 0 0 10.24-3.036l5.109 1.297-1.988-4.446z" fill="#FFC727"/></svg>