<svg width="25" height="26" viewBox="0 0 25 26" fill="none" xmlns="http://www.w3.org/2000/svg">
<g clip-path="url(#clip0_536_2014)">
<path d="M11.3625 5.92517L10.1597 9.73135L7.89139 7.86946L6.78743 9.92356L4.85411 6.80942L0 25.4504H6.94671C9.45121 24.5167 14.3778 22.3362 14.4822 19.6121C14.5755 16.9867 8.50104 17.2284 8.39668 14.603C8.31429 12.4555 13.0377 10.1268 13.0377 10.1268C13.0377 10.1268 10.0664 12.505 10.4343 14.0263C11.1429 16.9373 17.3327 15.5422 18.2994 18.3818C19.0134 20.4798 16.4594 24.1103 15.4324 25.4504H25L18.0193 7.68821L16.9153 10.0334L15.6246 6.99067L14.4108 8.19349L13.5155 6.04599L12.5818 7.44653L11.3625 5.92517Z" fill="#2C2E35"/>
<path d="M17.5 6.42857L15.8929 2.5L14.1072 5.17857L14.8215 6.42857L15.8929 5.35714L16.9643 7.67857L17.5 6.42857Z" fill="#FFCE28"/>
<path d="M5.17859 5.53571L6.60716 0L10.5357 5L9.64287 8.03571L7.67859 6.42857L6.78573 8.03571L5.17859 5.53571Z" fill="#FFCE28"/>
</g>
<defs>
<clipPath id="clip0_536_2014">
<rect width="25" height="25.7143" fill="white"/>
</clipPath>
</defs>
</svg>
