<svg width="70" height="73" viewBox="0 0 70 73" fill="none" xmlns="http://www.w3.org/2000/svg">
<g clip-path="url(#clip0_704_1066)">
<path d="M31.8151 17.0906L28.4472 27.7479L22.0959 22.5346L19.0048 28.2861L13.5915 19.5665L0 71.7612H19.4508C26.4634 69.1469 40.2579 63.0416 40.5501 55.4139C40.8115 48.0629 23.8029 48.7396 23.5107 41.3886C23.28 35.3756 36.5056 28.8551 36.5056 28.8551C36.5056 28.8551 28.1858 35.514 29.2161 39.7739C31.2 47.9245 48.5316 44.0184 51.2382 51.9691C53.2374 57.8437 46.0864 68.0089 43.2106 71.7612H70L50.4539 22.0271L47.3628 28.5937L43.7488 20.074L40.3502 23.4419L37.8435 17.4289L35.2291 21.3504L31.8151 17.0906Z" fill="#2C2E35"/>
<path d="M49 18.5L44.5 7.5L39.5 15L41.5 18.5L44.5 15.5L47.5 22L49 18.5Z" fill="#FFCE28"/>
<path d="M14.5 16L18.5 0.5L29.5 14.5L27 23L21.5 18.5L19 23L14.5 16Z" fill="#FFCE28"/>
</g>
<defs>
<clipPath id="clip0_704_1066">
<rect width="70" height="72" fill="white" transform="translate(0 0.5)"/>
</clipPath>
</defs>
</svg>
