<svg width="25" height="21" viewBox="0 0 25 21" fill="none" xmlns="http://www.w3.org/2000/svg">
<g clip-path="url(#clip0_536_2020)">
<path d="M25 0L20.6628 4.09317L24.8116 11.0764L25 10.8422V0ZM0 0.0597164V11.9239C0.235294 11.9544 0.518014 11.9713 0.803307 11.9743C1.42673 11.9808 1.9406 11.9401 2.22925 11.9142L4.99475 4.91653L0 0.0597164ZM20.4388 5.56706L20.069 5.80635C20.0611 5.81146 19.7874 5.98156 19.707 6.03167L19.15 6.36885L19.1579 6.3736C18.8998 6.53414 18.828 6.57931 18.5351 6.76117C18.3865 6.85346 18.3828 6.85564 18.2419 6.94317C17.1762 6.37031 16.0199 5.93003 14.6705 5.58381C12.9735 6.09653 11.1757 6.83846 9.3805 7.53456C10.1258 8.43199 10.954 8.72421 11.7884 8.73467C12.7558 8.74674 13.7448 8.32606 14.4259 7.85474L14.8145 7.58581L15.2045 8.14938L21.2682 12.526L23.6376 10.951L20.4388 5.56706ZM5.69732 5.71099L3.3146 11.7397L4.18907 12.4121L5.93604 10.4321L6.13139 10.4199C6.21018 10.415 6.28793 10.4127 6.36461 10.4131C6.90093 10.4165 7.38046 10.5557 7.74014 10.8732C8.0065 11.108 8.18361 11.4207 8.28636 11.7828L8.40611 11.7754C9.03607 11.736 9.60368 11.866 10.0148 12.2286C10.4259 12.5914 10.6256 13.1385 10.665 13.7685L10.6687 13.8253C11.0069 13.8891 11.3097 14.0223 11.5559 14.2396C11.9671 14.6022 12.1668 15.1492 12.2061 15.7793L12.2165 15.9432C12.2501 15.9538 12.2833 15.9653 12.3163 15.9777L12.8581 15.2172L16.3643 17.715C16.7038 17.6313 16.9061 17.501 17.0187 17.3428C17.1315 17.1847 17.1885 16.9505 17.1565 16.602L13.0296 13.6466L13.3022 13.266L13.6525 12.7742L18.2568 16.0541C18.5963 15.9704 18.7988 15.8401 18.9114 15.6819C19.024 15.5238 19.081 15.2903 19.0492 14.9423L13.8109 11.226L14.3578 10.4549L19.5972 14.172C19.937 14.0883 20.1395 13.958 20.2523 13.7997C20.3651 13.6414 20.4221 13.4071 20.3899 13.0579L14.5894 8.87142C13.8197 9.32774 12.8351 9.69328 11.7766 9.68003C10.5378 9.66456 9.21264 9.0726 8.23786 7.57656C8.19932 7.51742 8.1745 7.45039 8.16525 7.38035C8.156 7.31035 8.16257 7.23917 8.18446 7.17203C8.20632 7.10489 8.24296 7.04349 8.29168 6.99239C8.34039 6.94128 8.39996 6.90171 8.46596 6.87664C9.14946 6.61692 9.84007 6.34249 10.5323 6.07021L5.69732 5.71099ZM6.37496 11.3633L3.87682 14.1947C3.92554 14.549 4.0365 14.7694 4.18604 14.9013C4.33557 15.0332 4.56811 15.1158 4.92575 15.12L7.42379 12.2887C7.37511 11.9344 7.26414 11.7139 7.11461 11.5819C6.96507 11.45 6.73261 11.3674 6.37496 11.3633ZM8.64954 12.7188L5.82846 15.9163C5.87711 16.2707 5.98814 16.4912 6.13761 16.6231C6.28729 16.7549 6.51968 16.8376 6.87736 16.8416L9.69843 13.6442C9.64979 13.2898 9.53875 13.0694 9.38925 12.9375C9.23975 12.8055 9.00718 12.723 8.64954 12.7188ZM10.1905 14.7297L7.69261 17.5611C7.74129 17.9154 7.85225 18.1358 8.00179 18.2678C8.15136 18.3997 8.38389 18.4822 8.7415 18.4864L11.2395 15.6553C11.1908 15.3008 11.0798 15.0803 10.9303 14.9484C10.7808 14.8165 10.5482 14.7338 10.1905 14.7297ZM11.4879 16.7852L9.45036 19.1108C9.49896 19.4658 9.60993 19.6866 9.75961 19.8186C9.90904 19.9504 10.1413 20.033 10.4984 20.0372L12.536 17.7116C12.4874 17.3567 12.3764 17.136 12.2267 17.0038C12.0773 16.872 11.845 16.7895 11.4879 16.7852ZM13.3441 17.0368C13.433 17.2794 13.4845 17.5483 13.5024 17.8347L13.5145 18.0292L13.0798 18.5254L14.4834 19.5253C14.8229 19.4415 15.0252 19.3112 15.1378 19.1531C15.2505 18.995 15.3076 18.7611 15.2759 18.4129L13.3441 17.0368Z" fill="#2C2E35"/>
<path d="M2.14282 11.9643L4.99997 4.82141L5.71425 5.71427L3.39282 11.7857L2.14282 11.9643Z" fill="#FFCE28"/>
<path d="M24.8215 11.0714L20.7143 3.92859L20.3572 5.5357L23.5714 11.0714L24.8215 11.0714Z" fill="#FFCE28"/>
</g>
<defs>
<clipPath id="clip0_536_2020">
<rect width="25" height="20.3571" fill="white"/>
</clipPath>
</defs>
</svg>
