<svg width="458" height="145" fill="none" xmlns="http://www.w3.org/2000/svg"><path d="M71.6 2h314c39.047 0 70.6 31.651 70.6 70.6 0 39.047-31.651 70.6-70.6 70.6h-314C32.553 143.2 1 111.549 1 72.6 1 33.553 32.651 2 71.6 2z" fill="#fff" stroke="#000" stroke-width="2"/><path d="M71.6 2.3h314c38.8 0 70.2 31.4 70.2 70.2 0 38.8-31.4 70.2-70.2 70.2h-314c-38.8 0-70.2-31.4-70.2-70.2 0-38.7 31.4-70.2 70.2-70.2z" stroke="#010202" stroke-opacity=".25" stroke-width="2.754"/><path d="M117.3 71.1 83.2 39.2c-.3.8-.6 1.6-.6 2.7v58.7c0 1.1.3 1.9.6 2.7l34.1-32.2zM121.3 71.1l11.4 10.6 12.5-6.6c4-2.1 4-5.6 0-7.7l-12.8-6.9-11.1 10.6zM119.3 69.2l10.5-10.1-40.1-21.2c-1.7-.8-3.4-1.1-4.5-.5l34.1 31.8zM119.3 72.9l-34.1 32.099c1.1.5 2.8.3 4.8-.5l40.3-21.2-11-10.4zM173.5 41.4c-2.3 0-4.3.8-5.9 2.4-1.6 1.6-2.4 3.6-2.4 6s.8 4.4 2.4 6c1.6 1.6 3.6 2.4 5.9 2.4 3.2 0 5.9-1.7 7.3-4.3v-4.6h-7.4v2.3h4.8v1.8c-1.1 1.7-2.6 2.5-4.7 2.5-1.7 0-3.1-.6-4.2-1.7-1.1-1.2-1.6-2.6-1.6-4.4 0-1.7.5-3.2 1.6-4.3 1-1.1 2.4-1.7 4.1-1.7 2 0 3.5.9 4.7 2.6l1.8-1.6c-1.4-2.2-3.6-3.4-6.4-3.4zM184 41.7V58h10.6v-2.3h-8.1v-5.2h5.9v-2.3h-5.9V44h7.8v-2.3H184zM195.9 41.7V44h5.3v14h2.5V44h5.3v-2.3h-13.1zM216.9 41.7V58h2.5V41.7h-2.5zM221.8 41.7V44h5.3v14h2.5V44h5.3v-2.3h-13.1zM250 41.4c-2.3 0-4.3.8-5.9 2.4-1.6 1.6-2.4 3.6-2.4 6s.8 4.4 2.4 6c1.6 1.6 3.5 2.4 5.9 2.4 2.3 0 4.2-.8 5.8-2.4 1.6-1.6 2.4-3.6 2.4-6s-.8-4.4-2.4-6c-1.5-1.6-3.5-2.4-5.8-2.4zm0 2.4c1.6 0 3 .6 4 1.7 1.1 1.1 1.6 2.6 1.6 4.3 0 1.8-.5 3.2-1.6 4.3-1.1 1.1-2.4 1.7-4 1.7s-3-.6-4-1.7c-1.1-1.2-1.6-2.6-1.6-4.3 0-1.7.5-3.2 1.6-4.3 1.1-1.1 2.4-1.7 4-1.7zM271.7 52.7l-9.5-11.3h-.9V58h2.5V47l9.6 11.3h.9V41.7h-2.5v11h-.1zM179.7 70.1c-4.1 0-7.5 1.4-10.3 4.3-2.8 2.8-4.2 6.3-4.2 10.5s1.4 7.7 4.2 10.5c2.8 2.8 6.2 4.2 10.3 4.2 5.5 0 10.4-3 12.8-7.5v-8h-12.9v4.1h8.5v3.1c-1.9 2.9-4.6 4.3-8.2 4.3-3 0-5.4-1-7.3-3-1.9-2-2.8-4.6-2.8-7.7 0-3 .9-5.5 2.7-7.5 1.8-2 4.2-3 7.1-3 3.4 0 6.2 1.5 8.2 4.5l3.2-2.7c-2.6-4.1-6.4-6.1-11.3-6.1zM205.1 77.4c-3 0-5.6 1.1-7.7 3.2-2.1 2.1-3.1 4.8-3.1 7.9 0 3.1 1 5.8 3.1 7.9 2.1 2.1 4.6 3.2 7.7 3.2 3 0 5.5-1.1 7.7-3.2 2.1-2.2 3.2-4.8 3.2-7.9 0-3.1-1.1-5.8-3.2-7.9-2.1-2.1-4.7-3.2-7.7-3.2zm.1 4.2c1.8 0 3.3.7 4.5 2 1.2 1.3 1.8 2.9 1.8 4.9 0 1.9-.6 3.6-1.8 4.9-1.2 1.3-2.7 1.9-4.5 1.9-1.8 0-3.3-.6-4.5-1.9-1.2-1.3-1.8-3-1.8-4.9 0-2 .6-3.6 1.8-4.9 1.1-1.4 2.6-2 4.5-2zM228.4 77.4c-3 0-5.6 1.1-7.7 3.2-2.1 2.1-3.1 4.8-3.1 7.9 0 3.1 1 5.8 3.1 7.9 2.1 2.1 4.6 3.2 7.7 3.2 3 0 5.5-1.1 7.7-3.2 2.1-2.2 3.2-4.8 3.2-7.9 0-3.1-1.1-5.8-3.2-7.9-2.1-2.1-4.7-3.2-7.7-3.2zm.1 4.2c1.8 0 3.3.7 4.5 2 1.2 1.3 1.8 2.9 1.8 4.9 0 1.9-.6 3.6-1.8 4.9-1.2 1.3-2.7 1.9-4.5 1.9-1.8 0-3.3-.6-4.5-1.9-1.2-1.3-1.8-3-1.8-4.9 0-2 .6-3.6 1.8-4.9 1.1-1.4 2.6-2 4.5-2zM258.3 80.9c-1.6-2.3-4-3.5-7.2-3.5-2.9 0-5.2 1-7.1 3-1.9 2-2.8 4.5-2.8 7.7 0 3.1 1 5.7 2.8 7.7 1.9 2 4.2 3 7.1 3 3 0 5.2-1 6.9-3v1.5c0 3.999-2.4 6.099-6.1 6.099-2.4 0-4.8-1-7.2-3l-2.4 3.2c2.7 2.7 6 4 9.8 4 6.2 0 10.2-3.8 10.2-10.5v-19h-4v2.8zm-6.5 13.8c-1.8 0-3.2-.6-4.5-1.8-1.2-1.3-1.8-2.9-1.8-4.8s.6-3.5 1.8-4.8c1.2-1.2 2.7-1.8 4.5-1.8 3.4 0 6.2 2.2 6.2 6.5 0 2.2-.6 3.8-1.8 5-1.3 1.1-2.7 1.7-4.4 1.7zM266.5 66.7v32.4h4.4V66.7h-4.4zM293.9 87.1c0-2.8-.9-5.1-2.7-7-1.8-1.9-4-2.8-6.7-2.8-3 0-5.5 1.1-7.5 3.2s-3 4.8-3 7.9c0 3.2 1 5.8 3.1 7.9 2.1 2.1 4.7 3.2 7.9 3.2 3.1 0 5.8-1.1 8.2-3.4l-2.1-3.1c-1.8 1.7-3.8 2.5-6 2.5-3.5 0-6.1-2.1-6.7-5.6h15.2c.2-.9.3-1.9.3-2.8zm-9.6-5.8c3 0 5.2 2 5.2 5.2h-11.1c.7-3.2 3-5.2 5.9-5.2zM306.7 70.6v28.5h4.4v-11h5.6c2.8 0 5-.8 6.8-2.4 1.7-1.6 2.6-3.8 2.6-6.4 0-2.6-.9-4.7-2.6-6.3-1.7-1.6-4-2.4-6.8-2.4h-10zm10 4c3.1 0 4.9 1.9 4.9 4.7 0 2.8-1.8 4.7-4.9 4.7h-5.5v-9.4h5.5zM328.6 66.7v32.4h4.4V66.7h-4.4zM345.1 77.4c-3.7 0-6.6 1.5-8.6 4.5l2.5 2.7c1.7-2.1 3.6-3.2 5.7-3.2 2.8 0 4.4 1.6 4.4 4.5v1.4h-5.8c-4.6 0-7.5 2.4-7.5 6.1 0 3.7 2.8 6.1 7.1 6.1 2.8 0 5-1 6.5-2.9V99h4.1V86.2c0-5.6-3.3-8.8-8.4-8.8zm-1.3 18.7c-2.1 0-3.6-1-3.6-2.8 0-1.7 1.2-2.6 3.6-2.6h5.2v.4c.1 2.9-2.3 5-5.2 5zM365.7 93.4l-5.9-15.5h-4.7l8.2 20.3-.8 1.999c-1 2.4-2.4 3.1-4.5 3.1-.3 0-1.1 0-2.4-.2v3.8c1.1.3 2.3.4 3.4.4 3.5 0 5.8-1.8 7.5-5.8l10-23.6h-4.7l-6.1 15.5z" fill="#010202"/></svg>