<svg width="60" height="60" viewBox="0 0 60 60" fill="none" xmlns="http://www.w3.org/2000/svg">
<path d="M20.6738 11.5557H43.9873V15.0742H20.6738V11.5557Z" stroke="#2C2E35" stroke-width="1.5" stroke-miterlimit="10"/>
<path d="M22.3008 15.0742H42.8563V24.5385H22.3008V15.0742Z" stroke="#2C2E35" stroke-width="1.5" stroke-miterlimit="10"/>
<path d="M22.3008 20.8477H42.8563" stroke="#2C2E35" stroke-width="1.5" stroke-miterlimit="10"/>
<path d="M27.0957 15.0742V21.1192" stroke="#2C2E35" stroke-width="1.5" stroke-miterlimit="10"/>
<path d="M37.7305 15.0742V20.848" stroke="#2C2E35" stroke-width="1.5" stroke-miterlimit="10"/>
<path d="M10.2109 23.1162H22.2678V26.8398H10.2109V23.1162Z" stroke="#2C2E35" stroke-width="1.5" stroke-miterlimit="10"/>
<path d="M25.8388 52.2168H7.32031V31.2182V26.8398H25.8388V52.2168Z" stroke="#2C2E35" stroke-width="1.5" stroke-miterlimit="10"/>
<path d="M25.8388 31.3047H7.32031" stroke="#2C2E35" stroke-width="1.5" stroke-miterlimit="10"/>
<path d="M12.2812 33.6191V39.5318" stroke="#2C2E35" stroke-width="1.5" stroke-miterlimit="10"/>
<path d="M16.5801 33.6191V39.5318" stroke="#2C2E35" stroke-width="1.5" stroke-miterlimit="10"/>
<path d="M21.375 33.6191V39.5318" stroke="#2C2E35" stroke-width="1.5" stroke-miterlimit="10"/>
<path d="M10.6602 26.8398V31.3041" stroke="#2C2E35" stroke-width="1.5" stroke-miterlimit="10"/>
<path d="M14.7402 26.8398V31.3041" stroke="#2C2E35" stroke-width="1.5" stroke-miterlimit="10"/>
<path d="M18.8145 26.8398V31.3041" stroke="#2C2E35" stroke-width="1.5" stroke-miterlimit="10"/>
<path d="M22.8965 26.8398V31.3041" stroke="#2C2E35" stroke-width="1.5" stroke-miterlimit="10"/>
<path d="M42.8887 23.1162H56.0037V26.8398H42.8887V23.1162Z" stroke="#2C2E35" stroke-width="1.5" stroke-miterlimit="10"/>
<path d="M57.3213 52.2168H38.8027V31.2182V26.8398H48.062H57.3213V52.2168Z" stroke="#2C2E35" stroke-width="1.5" stroke-miterlimit="10"/>
<path d="M57.3213 31.3047H38.8027" stroke="#2C2E35" stroke-width="1.5" stroke-miterlimit="10"/>
<path d="M43.7617 33.6191V39.5318" stroke="#2C2E35" stroke-width="1.5" stroke-miterlimit="10"/>
<path d="M48.0605 33.6191V39.5318" stroke="#2C2E35" stroke-width="1.5" stroke-miterlimit="10"/>
<path d="M52.8555 33.6191V39.5318" stroke="#2C2E35" stroke-width="1.5" stroke-miterlimit="10"/>
<path d="M42.1426 26.8398V31.3041" stroke="#2C2E35" stroke-width="1.5" stroke-miterlimit="10"/>
<path d="M46.2227 26.8398V31.3041" stroke="#2C2E35" stroke-width="1.5" stroke-miterlimit="10"/>
<path d="M50.2969 26.8398V31.3041" stroke="#2C2E35" stroke-width="1.5" stroke-miterlimit="10"/>
<path d="M54.377 26.8398V31.3041" stroke="#2C2E35" stroke-width="1.5" stroke-miterlimit="10"/>
<path d="M25.8379 28.5332H38.8009" stroke="#2C2E35" stroke-width="1.5" stroke-miterlimit="10"/>
<path d="M36.6929 52.2173V37.5017C36.6929 36.932 36.5806 36.3678 36.3626 35.8414C36.1446 35.315 35.825 34.8367 35.4221 34.4338C35.0192 34.031 34.541 33.7114 34.0146 33.4933C33.4882 33.2753 32.924 33.1631 32.3542 33.1631C31.7845 33.1631 31.2203 33.2753 30.6939 33.4933C30.1675 33.7114 29.6893 34.031 29.2864 34.4338C28.8835 34.8367 28.5639 35.315 28.3459 35.8414C28.1278 36.3678 28.0156 36.932 28.0156 37.5017V52.2173H36.6929Z" stroke="#2C2E35" stroke-width="1.5" stroke-miterlimit="10"/>
<path d="M24.5156 52.2168H43.7617" stroke="#2C2E35" stroke-width="1.5" stroke-miterlimit="10"/>
</svg>
