<svg width="105" height="105" viewBox="0 0 105 105" fill="none" xmlns="http://www.w3.org/2000/svg">
<circle cx="52.5" cy="52.5" r="52.5" fill="url(#paint0_linear_2755_2707)"/>
<path d="M80.4375 75.4375V71.0625H78.25V62.3125H82.625V60.125H78.25V53.5625H82.625V51.375H78.25V47C78.25 45.7969 73.875 44.8125 68.4062 44.8125C66.5766 44.8005 64.7487 44.9248 62.9375 45.1844V42.625H65.125V40.4375H60.75V38.25H43.25V40.4375H38.875V42.625H41.0625V45.1844C39.2513 44.9248 37.4234 44.8005 35.5938 44.8125C30.125 44.8125 25.75 45.7969 25.75 47V51.375H21.375V53.5625H25.75V60.125H21.375V62.3125H25.75V71.0625H23.5625V73.25V75.4375H17V77.625H87V75.4375H80.4375ZM76.0625 71.0625H60.75V68.875H76.0625V71.0625ZM54.1875 71.0625H49.8125V60.125C49.7701 59.2966 49.9507 58.472 50.3355 57.7371C50.7202 57.0022 51.295 56.384 52 55.9469C52.705 56.384 53.2798 57.0022 53.6645 57.7371C54.0493 58.472 54.2299 59.2966 54.1875 60.125V71.0625ZM56.375 60.125C56.375 56.8438 54.4937 54.1859 52 53.5625C49.5063 54.1859 47.625 56.8438 47.625 60.125V71.0625H45.4375V51.375H58.5625V71.0625H56.375V60.125ZM76.0625 62.3125V66.6875H60.75V53.2891C63.2574 52.6946 65.8298 52.419 68.4062 52.4688C70.9827 52.419 73.5551 52.6946 76.0625 53.2891V62.3125ZM76.0625 47.8203V51.1016C73.554 50.5138 70.9824 50.2382 68.4062 50.2812C65.8306 50.2346 63.259 50.5065 60.75 51.0906V47.8094C63.2579 47.2186 65.8303 46.9467 68.4062 47C70.9827 46.9502 73.5551 47.2258 76.0625 47.8203ZM43.25 42.625H60.75V45.6219C59.3828 46.0047 58.5625 46.475 58.5625 47V49.1875H45.4375V47C45.4375 46.475 44.6172 46.0047 43.25 45.6219V42.625ZM43.25 47.8203V51.1016C40.7415 50.5138 38.1699 50.2382 35.5938 50.2812C33.0181 50.2346 30.4465 50.5065 27.9375 51.0906V47.8094C30.4454 47.2186 33.0178 46.9467 35.5938 47C38.1702 46.9502 40.7426 47.2258 43.25 47.8203ZM27.9375 62.3125V53.2891C30.4449 52.6946 33.0173 52.419 35.5938 52.4688C38.1702 52.419 40.7426 52.6946 43.25 53.2891V66.6875H27.9375V62.3125ZM27.9375 68.875H43.25V71.0625H27.9375V68.875ZM25.75 75.4375V73.25H78.25V75.4375H25.75Z" fill="#333333"/>
<path d="M32.3125 55.75H30.125V60.125H32.3125V55.75Z" fill="#333333"/>
<path d="M36.6875 55.75H34.5V60.125H36.6875V55.75Z" fill="#333333"/>
<path d="M41.0625 55.75H38.875V60.125H41.0625V55.75Z" fill="#333333"/>
<path d="M65.125 55.75H62.9375V60.125H65.125V55.75Z" fill="#333333"/>
<path d="M69.5 55.75H67.3125V60.125H69.5V55.75Z" fill="#333333"/>
<path d="M73.875 55.75H71.6875V60.125H73.875V55.75Z" fill="#333333"/>
<path d="M48.7188 44.8125C48.7188 44.5224 48.6035 44.2442 48.3984 44.0391C48.1933 43.834 47.9151 43.7188 47.625 43.7188C47.3349 43.7188 47.0567 43.834 46.8516 44.0391C46.6465 44.2442 46.5312 44.5224 46.5312 44.8125V47H48.7188V44.8125Z" fill="#333333"/>
<path d="M53.0938 44.8125C53.0938 44.5224 52.9785 44.2442 52.7734 44.0391C52.5683 43.834 52.2901 43.7188 52 43.7188C51.7099 43.7188 51.4317 43.834 51.2266 44.0391C51.0215 44.2442 50.9062 44.5224 50.9062 44.8125V47H53.0938V44.8125Z" fill="#333333"/>
<path d="M57.4688 44.8125C57.4688 44.5224 57.3535 44.2442 57.1484 44.0391C56.9433 43.834 56.6651 43.7188 56.375 43.7188C56.0849 43.7188 55.8067 43.834 55.6016 44.0391C55.3965 44.2442 55.2812 44.5224 55.2812 44.8125V47H57.4688V44.8125Z" fill="#333333"/>
<path d="M47.625 52.4688C47.4087 52.4688 47.1972 52.5329 47.0173 52.6531C46.8375 52.7733 46.6973 52.9441 46.6145 53.1439C46.5317 53.3438 46.5101 53.5637 46.5523 53.7759C46.5945 53.988 46.6986 54.1829 46.8516 54.3359C47.0046 54.4889 47.1995 54.593 47.4116 54.6352C47.6238 54.6774 47.8437 54.6558 48.0436 54.573C48.2434 54.4902 48.4142 54.35 48.5344 54.1702C48.6546 53.9903 48.7188 53.7788 48.7188 53.5625C48.7188 53.2724 48.6035 52.9942 48.3984 52.7891C48.1933 52.584 47.9151 52.4688 47.625 52.4688Z" fill="#333333"/>
<path d="M56.375 54.6562C56.9791 54.6562 57.4688 54.1666 57.4688 53.5625C57.4688 52.9584 56.9791 52.4688 56.375 52.4688C55.7709 52.4688 55.2812 52.9584 55.2812 53.5625C55.2812 54.1666 55.7709 54.6562 56.375 54.6562Z" fill="#333333"/>
<defs>
<linearGradient id="paint0_linear_2755_2707" x1="52.5" y1="0" x2="52.5" y2="105" gradientUnits="userSpaceOnUse">
<stop stop-color="#FFCE28"/>
<stop offset="0.5" stop-color="#FFCE28" stop-opacity="0.5"/>
<stop offset="1" stop-color="#FFCE28" stop-opacity="0.2"/>
</linearGradient>
</defs>
</svg>
