<svg width="893" height="942" viewBox="0 0 893 942" fill="none" xmlns="http://www.w3.org/2000/svg">
<path d="M95.7999 718C182.4 856.6 437.8 910.3 640.7 769.1C843.6 627.9 867.3 381.7 811.8 286.6C739.5 162.7 579.2 167.7 436.3 283.7C316 381.4 -51.2001 482.5 95.7999 718Z" fill="#CED9E7"/>
<path d="M121.4 321.1C37 251.9 61.9 117.8 189.9 68.1C337.6 10.8 450.6 47.5 469.5 120C488.3 192.5 377.6 240.3 322.2 300.9C266.9 361.5 179.5 368.8 121.4 321.1Z" fill="#CED9E7"/>
<path d="M764.7 715.3C821 642.7 906.7 743.2 858.3 814.3C809.9 885.5 672.5 834 764.7 715.3Z" fill="#CED9E7"/>
<path d="M614.1 127.8C554 88 578.7 8.19997 656.3 0.799967C733.9 -6.50003 793.9 54.2 783.2 100.8C772.5 147.5 698.4 183.3 614.1 127.8Z" fill="#CED9E7"/>
<path d="M833.7 690C830.8 687.1 825.1 688.5 823.9 692.3C822.6 696.1 826.5 700.6 830.4 699.9C834.4 699.3 837.1 693.4 833.7 690Z" stroke="#011635" stroke-width="2.4" stroke-linecap="round" stroke-linejoin="round"/>
<path d="M119.8 53.4C117 50.5 111.3 51.9 110.1 55.7C108.8 59.5 112.6 64 116.6 63.3C120.6 62.7 123.2 56.8 119.8 53.4Z" stroke="#011635" stroke-width="2.4" stroke-linecap="round" stroke-linejoin="round"/>
<path d="M855.9 257.8C853.1 254.9 847.4 256.3 846.2 260.1C844.9 263.9 848.7 268.4 852.7 267.8C856.7 267.1 859.3 261.2 855.9 257.8Z" stroke="#011635" stroke-width="2.4" stroke-linecap="round" stroke-linejoin="round"/>
<path d="M27.8999 651.6C27.9666 657.733 28.0332 663.9 28.0999 670.1" stroke="#011635" stroke-width="2.4" stroke-linecap="round" stroke-linejoin="round"/>
<path d="M19.2999 660.9C25.0333 660.833 30.7666 660.8 36.4999 660.8" stroke="#011635" stroke-width="2.4" stroke-linecap="round" stroke-linejoin="round"/>
<path d="M429.7 126.9C429.767 133.1 429.833 139.3 429.9 145.5" stroke="#011635" stroke-width="2.4" stroke-linecap="round" stroke-linejoin="round"/>
<path d="M421.1 136.2C426.833 136.2 432.567 136.167 438.3 136.1" stroke="#011635" stroke-width="2.4" stroke-linecap="round" stroke-linejoin="round"/>
<path d="M1.59998 272.9L11.6 291.9" stroke="#011635" stroke-width="2.4" stroke-linecap="round" stroke-linejoin="round"/>
<path d="M813.6 808.4L823.6 827.4" stroke="#011635" stroke-width="2.4" stroke-linecap="round" stroke-linejoin="round"/>
<path d="M380.1 747.2L363.3 760.6" stroke="#011635" stroke-width="2.4" stroke-linecap="round" stroke-linejoin="round"/>
<path d="M514.5 13.9L493.3 16.9" stroke="#011635" stroke-width="2.4" stroke-linecap="round" stroke-linejoin="round"/>
<path d="M44.8 767L23.6 770" stroke="#011635" stroke-width="2.4" stroke-linecap="round" stroke-linejoin="round"/>
<path d="M890.9 325.5L888.5 346.8" stroke="#011635" stroke-width="2.4" stroke-linecap="round" stroke-linejoin="round"/>
<path d="M199.7 16.4L197.3 37.7" stroke="#011635" stroke-width="2.4" stroke-linecap="round" stroke-linejoin="round"/>
<path d="M415.1 250.8C415.1 248.5 413.2 246.5 410.8 246.5C408.5 246.5 406.6 248.5 406.6 250.8C406.6 253.2 408.5 255.1 410.8 255.1C413.2 255.1 415.1 253.2 415.1 250.8Z" fill="#011635"/>
<path d="M808.6 27.1C808.6 24.7 806.7 22.8 804.3 22.8C802 22.8 800.1 24.7 800.1 27.1C800.1 29.4 802 31.3 804.3 31.3C806.7 31.3 808.6 29.4 808.6 27.1Z" fill="#011635"/>
<path d="M778.7 683.7C778.7 681.3 776.8 679.4 774.4 679.4C772 679.4 770.1 681.3 770.1 683.7C770.1 686 772 687.9 774.4 687.9C776.8 687.9 778.7 686 778.7 683.7Z" fill="#011635"/>
<path d="M309.4 876.5C309.4 874.1 307.5 872.2 305.1 872.2C302.8 872.2 300.8 874.1 300.8 876.5C300.8 878.8 302.8 880.7 305.1 880.7C307.5 880.7 309.4 878.8 309.4 876.5Z" fill="#011635"/>
<path d="M158.7 656.6C158.7 654.2 156.8 652.3 154.4 652.3C152.1 652.3 150.2 654.2 150.2 656.6C150.2 658.9 152.1 660.8 154.4 660.8C156.8 660.8 158.7 658.9 158.7 656.6Z" fill="#011635"/>
<path d="M32.4 136.1C32.4 133.8 30.5 131.9 28.1 131.9C25.8 131.9 23.9 133.8 23.9 136.1C23.9 138.5 25.8 140.4 28.1 140.4C30.5 140.4 32.4 138.5 32.4 136.1Z" fill="#011635"/>
<path d="M503.9 942H692.9C703.2 871.5 695.4 798.2 713.1 729.1C716.4 716.2 720.5 703.5 725.2 691.1V579.3L562.8 583.1C550.6 622.3 572 663.5 574.7 704.4C580.3 787.6 509.3 859.4 503.9 942Z" fill="#FFA79F"/>
<path d="M561.6 635.1C597.3 635.3 668.5 634.4 725.2 625.9V579.3L562.8 583.1C557.5 600.1 558.5 617.5 561.6 635.1Z" fill="#FFA79F"/>
<path d="M36.5999 450.3C35.6999 497.8 39.7999 539.4 50.3999 582.6C53.5999 595.4 64.8999 604.7 78.0999 605.2C326.3 616 573.3 617.8 822 612.6C836.4 612.3 848.6 601.8 850.8 587.6C860.4 528.6 867.6 468.7 866.1 408.9L36.5999 450.3Z" fill="#011635" stroke="#011635" stroke-width="2.4" stroke-linecap="round" stroke-linejoin="round"/>
<path d="M855.4 564.7C868 488.7 869.8 410.9 860.6 334.5C858.5 316.7 844.4 302.8 826.6 300.9C572.6 273.1 319.6 276.3 71.2 310.7C53.1 313.2 39.3 328.1 38.1 346.3C33.4 417.7 36 488.4 47.3 559.9C50.2 578 65.5 591.5 83.8 592.1C326.6 600.8 569.9 602.5 818.4 596.7C836.8 596.3 852.3 582.8 855.4 564.7Z" fill="#ECECEC"/>
<g style="mix-blend-mode:soft-light">
<path d="M112.5 329.6C103.2 329.1 93.7999 328.7 84.6999 330.8C75.5999 333 66.8999 338.1 62.3999 346.2C58.5999 353.1 58.2999 361.4 58.2999 369.2C58.3666 378.2 58.7999 387.2 59.5999 396.2C60.0999 401.2 61.4999 407.3 66.3999 408.7C69.3999 409.6 72.7999 408 74.6999 405.6C76.6999 403.1 77.4999 399.9 77.7999 396.8C78.7999 386.1 74.7999 374.3 80.0999 364.9C84.8999 356.3 95.7999 353.3 105.7 352.3C115.6 351.3 126.1 351.3 134.5 345.9C137.6 343.9 140.4 340.7 140 337.1C139.4 332.4 133.8 330.1 129 329.9C124.3 329.8 119.3 329.9 112.5 329.6Z" fill="white"/>
</g>
<g style="mix-blend-mode:soft-light">
<path d="M168.5 345.1C163.9 345.5 159.3 341.8 158.8 337.3C158.2 332.7 161.7 328 166.3 327.2C170.8 326.5 175.7 329.8 176.6 334.4C177.5 338.9 174.4 344.6 168.5 345.1Z" fill="white"/>
</g>
<path d="M855.4 564.7C868 488.7 869.8 410.9 860.6 334.5C858.5 316.7 844.4 302.8 826.6 300.9C572.6 273.1 319.6 276.3 71.2 310.7C53.1 313.2 39.3 328.1 38.1 346.3C33.4 417.7 36 488.4 47.3 559.9C50.2 578 65.5 591.5 83.8 592.1C326.6 600.8 569.9 602.5 818.4 596.7C836.8 596.3 852.3 582.8 855.4 564.7Z" stroke="#011635" stroke-width="2.4" stroke-linecap="round" stroke-linejoin="round"/>
<path d="M451.1 492L418.6 509.1L424.8 472.9L398.5 447.2L434.8 441.9L451.1 408.9L467.4 441.9L503.8 447.2L477.5 472.9L483.7 509.1L451.1 492Z" fill="#FFCE28"/>
<path d="M467.4 441.9L454.2 415.1V493.6L483.7 509.1L477.5 472.9L503.8 447.2L467.4 441.9Z" fill="white"/>
<path d="M451.1 492L418.6 509.1L424.8 472.9L398.5 447.2L434.8 441.9L451.1 408.9L467.4 441.9L503.8 447.2L477.5 472.9L483.7 509.1L451.1 492Z" stroke="#011635" stroke-width="2.4" stroke-linecap="round" stroke-linejoin="round"/>
<path d="M300.8 492L268.3 509.1L274.5 472.9L248.2 447.2L284.6 441.9L300.8 408.9L317.1 441.9L353.5 447.2L327.2 472.9L333.4 509.1L300.8 492Z" fill="#FFCE28"/>
<path d="M300.8 492L268.3 509.1L274.5 472.9L248.2 447.2L284.6 441.9L300.8 408.9L317.1 441.9L353.5 447.2L327.2 472.9L333.4 509.1L300.8 492Z" stroke="#011635" stroke-width="2.4" stroke-linecap="round" stroke-linejoin="round"/>
<path d="M150.6 492L118 509.1L124.2 472.9L97.9 447.2L134.3 441.9L150.6 408.9L166.8 441.9L203.2 447.2L176.9 472.9L183.1 509.1L150.6 492Z" fill="#FFCE28"/>
<path d="M150.6 492L118 509.1L124.2 472.9L97.9 447.2L134.3 441.9L150.6 408.9L166.8 441.9L203.2 447.2L176.9 472.9L183.1 509.1L150.6 492Z" stroke="#011635" stroke-width="2.4" stroke-linecap="round" stroke-linejoin="round"/>
<path d="M601.4 492L568.8 509.1L575.1 472.9L548.7 447.2L585.1 441.9L601.4 408.9L617.7 441.9L654.1 447.2L627.7 472.9L633.9 509.1L601.4 492Z" fill="white"/>
<path d="M601.4 492L568.8 509.1L575.1 472.9L548.7 447.2L585.1 441.9L601.4 408.9L617.7 441.9L654.1 447.2L627.7 472.9L633.9 509.1L601.4 492Z" stroke="#011635" stroke-width="2.4" stroke-linecap="round" stroke-linejoin="round"/>
<path d="M751.7 492L719.1 509.1L725.3 472.9L699 447.2L735.4 441.9L751.7 408.9L767.9 441.9L804.3 447.2L778 472.9L784.2 509.1L751.7 492Z" fill="white"/>
<path d="M751.7 492L719.1 509.1L725.3 472.9L699 447.2L735.4 441.9L751.7 408.9L767.9 441.9L804.3 447.2L778 472.9L784.2 509.1L751.7 492Z" stroke="#011635" stroke-width="2.4" stroke-linecap="round" stroke-linejoin="round"/>
<g style="mix-blend-mode:multiply" opacity="0.1">
<path d="M818.4 596.7C836.8 596.3 852.3 582.8 855.4 564.7C862.4 522.3 866.1 479.3 866.3 436.3C621.8 559.5 124.4 528.8 42.2 522.8C43.6666 535.133 45.3666 547.5 47.3 559.9C50.2 578 65.5 591.5 83.8 592.1C326.6 600.8 569.9 602.5 818.4 596.7Z" fill="#013532"/>
</g>
<path d="M617.9 652.9C640.2 629.9 675.1 614.1 706.6 619.5C717.3 599.1 719.9 595.3 734.1 577.2C740 569.5 749.8 561.3 758.2 566.1C766.4 570.7 764.9 582.8 761.9 591.7C749.3 629.7 739.1 653.7 725.2 691.1" fill="#FFA79F"/>
<path d="M617.9 652.9C640.2 629.9 675.1 614.1 706.6 619.5C717.3 599.1 719.9 595.3 734.1 577.2C740 569.5 749.8 561.3 758.2 566.1C766.4 570.7 764.9 582.8 761.9 591.7C749.3 629.7 739.1 653.7 725.2 691.1" stroke="#011635" stroke-width="2.4" stroke-linecap="round" stroke-linejoin="round"/>
<path d="M391.3 570L365.7 540.5C359.8 535.4 350.7 531 343 530.5C335.4 530 327.6 532.2 321.4 536.8C314.1 531 304.5 529.4 295.5 531C286.4 532.7 278 537.5 272 544.5C251.8 540.5 235.2 554 226.7 570C218.3 586 215.8 604.3 211.4 621.9C187.3 716.5 71.5 817.6 42 942H236.7C253.8 896.3 265.2 839.3 282.4 797.8C303 748.4 329.1 700 368.7 664.1C381 652.9 394.9 642.5 402 627.5C410.9 608.7 406.4 584.4 391.3 570Z" fill="#FFA79F"/>
<path d="M363.3 586.1C363.1 587.3 367.8 623.5 367.8 623.5C384.8 614.8 397.6 601.2 404.6 592.5C402.2 584 397.7 576.1 391.3 570L384.7 562.5C373.5 573.9 363.5 585.2 363.3 586.1Z" fill="#FFA79F"/>
<path d="M354.7 551.8C371.3 529.2 398.1 495 416.6 473.9C422.9 466.7 429.6 459.4 438.3 455.4C443.1 453.3 449 452.3 453.3 455.3C457.2 458 458.5 463.4 457.8 468.2C457 472.9 454.5 477.1 452.1 481.2C423.967 528.667 395.867 576.1 367.8 623.5" fill="#FF685B"/>
<path d="M354.7 551.8C371.3 529.2 398.1 495 416.6 473.9C422.9 466.7 429.6 459.4 438.3 455.4C443.1 453.3 449 452.3 453.3 455.3C457.2 458 458.5 463.4 457.8 468.2C457 472.9 454.5 477.1 452.1 481.2C423.967 528.667 395.867 576.1 367.8 623.5" fill="#FFA79F"/>
<path d="M354.7 551.8C371.3 529.2 398.1 495 416.6 473.9C422.9 466.7 429.6 459.4 438.3 455.4C443.1 453.3 449 452.3 453.3 455.3C457.2 458 458.5 463.4 457.8 468.2C457 472.9 454.5 477.1 452.1 481.2C423.967 528.667 395.867 576.1 367.8 623.5" stroke="#011635" stroke-width="2.4" stroke-linecap="round" stroke-linejoin="round"/>
<g style="mix-blend-mode:multiply" opacity="0.1">
<path d="M334.6 214L117.2 202C104.9 244.5 120.1 295 154.6 322.6C151.4 323.8 148.3 325.3 146 327.2C138.2 333.6 132.5 345.2 132.5 345.2C134.1 347.1 135 348.2 136.6 350.1C146.2 343.2 156 336.9 165.6 330.4C200.7 351.7 247.9 352.3 283.2 330.9C321.6 307.5 342.4 258.3 334.6 214Z" fill="#011635" stroke="#011635" stroke-width="2.4" stroke-linecap="round" stroke-linejoin="round"/>
<path d="M335.6 224.3C333.5 177.8 299 134.6 254.1 122.3C208.8 109.8 157.1 129.6 131.6 168.5C106.1 207.4 108.7 262.7 137.8 299C140.133 301.867 142.633 304.6 145.3 307.2C140.6 319.4 136.1 331.7 132.5 345.2C143.3 338 154.1 330.7 164.9 322.8C194.1 340.8 231.6 345.6 263.8 333.4C307.4 317 337.7 270.8 335.6 224.3Z" fill="#011635"/>
<path d="M263.8 333.4C296 321.3 321 292.8 331 260C267.8 329.5 171.7 303.4 129.6 287C132.1 291.2 134.8 295.2 137.8 299C140.133 301.867 142.633 304.6 145.3 307.2C140.6 319.4 136.1 331.7 132.5 345.2C143.3 338 154.1 330.7 164.9 322.8C194.1 340.8 231.6 345.6 263.8 333.4Z" fill="#011635"/>
<path d="M335.6 224.3C333.5 177.8 299 134.6 254.1 122.3C208.8 109.8 157.1 129.6 131.6 168.5C106.1 207.4 108.7 262.7 137.8 299C140.133 301.867 142.633 304.6 145.3 307.2C140.6 319.4 136.1 331.7 132.5 345.2C143.3 338 154.1 330.7 164.9 322.8C194.1 340.8 231.6 345.6 263.8 333.4C307.4 317 337.7 270.8 335.6 224.3Z" stroke="#011635" stroke-width="2.4" stroke-linecap="round" stroke-linejoin="round"/>
<path d="M226.7 291.2C203.8 280.1 184.9 260.8 174.1 237.7C169.5 227.6 166.3 216.3 168.2 205.3C170.2 194.4 178.3 184 189.3 182.2C198 180.7 206.8 184.8 213.2 190.8C219.7 196.7 224.1 204.5 227.3 213.9C233 205 238.9 195.8 247.9 190.4C257 185 270 184.8 276.9 192.8C282.4 199.3 282.3 208.9 280.6 217.3C274.4 247.4 252.7 272 226.7 291.2Z" fill="#011635"/>
</g>
<path d="M320.6 200L103.2 188C90.9 230.5 106.1 281 140.6 308.6C137.4 309.8 134.3 311.3 132 313.2C124.2 319.6 118.5 331.2 118.5 331.2C120.1 333.1 121 334.2 122.6 336.1C132.2 329.2 142 322.9 151.6 316.4C186.7 337.7 233.9 338.3 269.2 316.9C307.6 293.5 328.4 244.3 320.6 200Z" fill="#011635" stroke="#011635" stroke-width="2.4" stroke-linecap="round" stroke-linejoin="round"/>
<path d="M321.6 210.3C319.5 163.8 285 120.6 240.1 108.3C194.8 95.8 143.1 115.6 117.6 154.5C92.1 193.4 94.7 248.7 123.8 285C126.133 287.867 128.633 290.6 131.3 293.2C126.6 305.4 122.1 317.7 118.5 331.2C129.3 324 140.1 316.7 150.9 308.8C180.1 326.8 217.6 331.6 249.8 319.4C293.4 303 323.7 256.8 321.6 210.3Z" fill="white"/>
<path d="M249.8 319.4C282 307.3 307 278.8 317 246C253.8 315.5 157.7 289.4 115.6 273C118.1 277.2 120.8 281.2 123.8 285C126.133 287.867 128.633 290.6 131.3 293.2C126.6 305.4 122.1 317.7 118.5 331.2C129.3 324 140.1 316.7 150.9 308.8C180.1 326.8 217.6 331.6 249.8 319.4Z" fill="#DBE1E7"/>
<path d="M321.6 210.3C319.5 163.8 285 120.6 240.1 108.3C194.8 95.8 143.1 115.6 117.6 154.5C92.1 193.4 94.7 248.7 123.8 285C126.133 287.867 128.633 290.6 131.3 293.2C126.6 305.4 122.1 317.7 118.5 331.2C129.3 324 140.1 316.7 150.9 308.8C180.1 326.8 217.6 331.6 249.8 319.4C293.4 303 323.7 256.8 321.6 210.3Z" stroke="#011635" stroke-width="2.4" stroke-linecap="round" stroke-linejoin="round"/>
<path d="M212.7 277.2C189.8 266.1 170.9 246.8 160.1 223.7C155.5 213.6 152.3 202.3 154.2 191.3C156.2 180.4 164.3 170 175.3 168.2C184 166.7 192.8 170.8 199.2 176.8C205.7 182.7 210.1 190.5 213.3 199.9C219 191 224.9 181.8 233.9 176.4C243 171 256 170.8 262.9 178.8C268.4 185.3 268.3 194.9 266.6 203.3C260.4 233.4 238.7 258 212.7 277.2Z" fill="#FD447D"/>
<g style="mix-blend-mode:multiply" opacity="0.1">
<path d="M574.9 900.7L586.9 683.3C544.4 671 493.9 686.2 466.3 720.7C465.1 717.5 463.6 714.4 461.7 712.1C455.3 704.3 443.7 698.6 443.7 698.6C441.8 700.2 440.8 701.1 438.9 702.7C445.7 712.3 452 722.1 458.6 731.7C437.2 766.8 436.6 814 458.1 849.3C481.4 887.7 530.6 908.5 574.9 900.7Z" fill="#011635" stroke="#011635" stroke-width="2.4" stroke-linecap="round" stroke-linejoin="round"/>
<path d="M564.6 901.7C611.1 899.6 654.3 865.1 666.7 820.2C679.1 774.9 659.3 723.2 620.4 697.7C581.5 672.2 526.2 674.8 489.9 703.9C487.033 706.233 484.3 708.733 481.7 711.4C469.5 706.7 457.3 702.2 443.7 698.6C450.9 709.4 458.2 720.2 466.2 731C448.2 760.2 443.3 797.7 455.5 829.9C471.9 873.5 518.1 903.9 564.6 901.7Z" fill="#011635"/>
<path d="M665.2 824.9C600.7 874.4 495.6 849.1 459 838.1C477.9 877.2 521.1 903.7 564.6 901.7C609.5 899.6 651.2 867.4 665.2 824.9Z" fill="#011635"/>
<path d="M564.6 901.7C611.1 899.6 654.3 865.1 666.7 820.2C679.1 774.9 659.3 723.2 620.4 697.7C581.5 672.2 526.2 674.8 489.9 703.9C487.033 706.233 484.3 708.733 481.7 711.4C469.5 706.7 457.3 702.2 443.7 698.6C450.9 709.4 458.2 720.2 466.2 731C448.2 760.2 443.3 797.7 455.5 829.9C471.9 873.5 518.1 903.9 564.6 901.7Z" stroke="#011635" stroke-width="2.4" stroke-linecap="round" stroke-linejoin="round"/>
<path d="M568.5 790.7C568.5 786.2 564.8 782.5 560.2 782.5C555.6 782.5 551.9 786.2 551.9 790.7C551.9 795.3 555.6 799 560.2 799C564.8 799 568.5 795.3 568.5 790.7Z" fill="#011635" stroke="#011635" stroke-width="2.4" stroke-linecap="round" stroke-linejoin="round"/>
<path d="M525.8 790.7C525.8 786.2 522.1 782.5 517.6 782.5C513 782.5 509.3 786.2 509.3 790.7C509.3 795.3 513 799 517.6 799C522.1 799 525.8 795.3 525.8 790.7Z" fill="#011635" stroke="#011635" stroke-width="2.4" stroke-linecap="round" stroke-linejoin="round"/>
<path d="M611.1 790.7C611.1 786.2 607.4 782.5 602.8 782.5C598.3 782.5 594.6 786.2 594.6 790.7C594.6 795.3 598.3 799 602.8 799C607.4 799 611.1 795.3 611.1 790.7Z" fill="#011635" stroke="#011635" stroke-width="2.4" stroke-linecap="round" stroke-linejoin="round"/>
</g>
<path d="M560.9 886.7L572.9 669.3C530.4 657 479.9 672.2 452.3 706.7C451.1 703.5 449.6 700.4 447.7 698.1C441.3 690.3 429.7 684.6 429.7 684.6C427.8 686.2 426.8 687.1 424.9 688.7C431.7 698.3 438 708.1 444.6 717.7C423.2 752.8 422.6 800 444.1 835.3C467.4 873.7 516.6 894.5 560.9 886.7Z" fill="#011635" stroke="#011635" stroke-width="2.4" stroke-linecap="round" stroke-linejoin="round"/>
<path d="M550.6 887.7C597.1 885.6 640.3 851.1 652.7 806.2C665.1 760.9 645.3 709.2 606.4 683.7C567.5 658.2 512.2 660.8 475.9 689.9C473.033 692.233 470.3 694.733 467.7 697.4C455.5 692.7 443.3 688.2 429.7 684.6C436.9 695.4 444.2 706.2 452.2 717C434.2 746.2 429.3 783.7 441.5 815.9C457.9 859.5 504.1 889.9 550.6 887.7Z" fill="white"/>
<path d="M651.2 810.9C586.7 860.4 481.6 835.1 445 824.1C463.9 863.2 507.1 889.7 550.6 887.7C595.5 885.6 637.2 853.4 651.2 810.9Z" fill="#DBE1E7"/>
<path d="M550.6 887.7C597.1 885.6 640.3 851.1 652.7 806.2C665.1 760.9 645.3 709.2 606.4 683.7C567.5 658.2 512.2 660.8 475.9 689.9C473.033 692.233 470.3 694.733 467.7 697.4C455.5 692.7 443.3 688.2 429.7 684.6C436.9 695.4 444.2 706.2 452.2 717C434.2 746.2 429.3 783.7 441.5 815.9C457.9 859.5 504.1 889.9 550.6 887.7Z" stroke="#011635" stroke-width="2.4" stroke-linecap="round" stroke-linejoin="round"/>
<path d="M554.5 776.7C554.5 772.2 550.8 768.5 546.2 768.5C541.6 768.5 537.9 772.2 537.9 776.7C537.9 781.3 541.6 785 546.2 785C550.8 785 554.5 781.3 554.5 776.7Z" fill="#011635" stroke="#011635" stroke-width="2.4" stroke-linecap="round" stroke-linejoin="round"/>
<path d="M511.8 776.7C511.8 772.2 508.1 768.5 503.6 768.5C499 768.5 495.3 772.2 495.3 776.7C495.3 781.3 499 785 503.6 785C508.1 785 511.8 781.3 511.8 776.7Z" fill="#011635" stroke="#011635" stroke-width="2.4" stroke-linecap="round" stroke-linejoin="round"/>
<path d="M597.1 776.7C597.1 772.2 593.4 768.5 588.8 768.5C584.3 768.5 580.6 772.2 580.6 776.7C580.6 781.3 584.3 785 588.8 785C593.4 785 597.1 781.3 597.1 776.7Z" fill="#011635" stroke="#011635" stroke-width="2.4" stroke-linecap="round" stroke-linejoin="round"/>
<g style="mix-blend-mode:multiply" opacity="0.1">
<path d="M870.8 123.1L555.5 135C553.6 165.3 554.8 195.8 559.1 225.9C560.4 234.7 567.6 241.5 576.6 242.4C590 243.667 603.433 244.767 616.9 245.7C620.4 254.6 625.7 266.1 631.8 275L640 272.9L637.9 247.1C709.4 251.1 781 250.2 853.5 243.8C863.7 242.9 871.5 234.6 871.5 224.5L870.8 123.1Z" fill="#011635" stroke="#011635" stroke-width="2.4" stroke-linecap="round" stroke-linejoin="round"/>
<path d="M868.5 95.9999C867.4 84.8999 858.4 76.0999 847.3 74.9999C758.2 65.8999 669 64.7999 580.3 70.8999C568.9 71.6999 559.7 80.4999 558.3 91.8999C553.4 131.7 554.2 171.6 558.7 212.7C560 224 569 232.8 580.3 233.8C594.167 235.067 608.033 236.133 621.9 237C626.8 248.6 632.1 260.4 640 272.9C644.8 261.8 648.7 250.4 651.9 238.7C717.7 241.8 783.8 241.1 849.5 236.6C861.6 235.7 871.2 226 871.7 213.9C873.1 174.7 872.5 135.2 868.5 95.9999Z" fill="#011635"/>
<path d="M871.7 213.9C872.3 197.6 872.5 181.2 872.3 164.9C854.5 179.7 815 205.7 749.6 213.5C676.3 222.2 590.9 208.2 557.6 201.8C557.933 205.4 558.3 209.033 558.7 212.7C560 224 569 232.8 580.3 233.8C594.167 235.067 608.033 236.133 621.9 237C626.8 248.6 632.1 260.4 640 272.9C644.8 261.8 648.7 250.4 651.9 238.7C717.7 241.8 783.8 241.1 849.5 236.6C861.6 235.7 871.2 226 871.7 213.9Z" fill="#011635"/>
<path d="M868.5 95.9999C867.4 84.8999 858.4 76.0999 847.3 74.9999C758.2 65.8999 669 64.7999 580.3 70.8999C568.9 71.6999 559.7 80.4999 558.3 91.8999C553.4 131.7 554.2 171.6 558.7 212.7C560 224 569 232.8 580.3 233.8C594.167 235.067 608.033 236.133 621.9 237C626.8 248.6 632.1 260.4 640 272.9C644.8 261.8 648.7 250.4 651.9 238.7C717.7 241.8 783.8 241.1 849.5 236.6C861.6 235.7 871.2 226 871.7 213.9C873.1 174.7 872.5 135.2 868.5 95.9999Z" stroke="#011635" stroke-width="2.4" stroke-linecap="round" stroke-linejoin="round"/>
<path d="M692 132.1C740.4 132.767 788.767 133.4 837.1 134" stroke="#011635" stroke-width="2.4" stroke-linecap="round" stroke-linejoin="round"/>
<path d="M689.5 160.3C739.367 160.633 789.233 161 839.1 161.4" stroke="#011635" stroke-width="2.4" stroke-linecap="round" stroke-linejoin="round"/>
<path d="M689.9 188.5C704.7 188.5 719.5 188.467 734.3 188.4" stroke="#011635" stroke-width="2.4" stroke-linecap="round" stroke-linejoin="round"/>
<path d="M646.1 121.2C662.5 134.3 665.7 161 652.8 177.5C639.9 194 613.3 197.4 596.6 184.7C580 172 576.3 145.4 588.8 128.6C601.4 111.8 628.5 107.2 646.1 121.2Z" fill="#011635"/>
<path d="M609.6 134C606.8 142 615 151.6 623.4 150C631.8 148.4 636 136.4 630.4 129.9C624.8 123.5 612.4 125.9 609.6 134Z" fill="#011635"/>
<path d="M596.6 184.7C612.3 196.7 637 194.3 650.5 180.1C646.2 170 636.3 162.2 625.3 161.1C611.9 159.8 598.3 168.4 593.2 181.7C594.267 182.767 595.4 183.767 596.6 184.7Z" fill="#011635"/>
<path d="M646.1 121.2C662.5 134.3 665.7 161 652.8 177.5C639.9 194 613.3 197.4 596.6 184.7C580 172 576.3 145.4 588.8 128.6C601.4 111.8 628.5 107.2 646.1 121.2Z" stroke="#011635" stroke-width="2.4" stroke-linecap="round" stroke-linejoin="round"/>
</g>
<path d="M856.8 109.1L541.5 121C539.6 151.3 540.8 181.8 545.1 211.9C546.4 220.7 553.6 227.5 562.6 228.4C576 229.667 589.433 230.767 602.9 231.7C606.4 240.6 611.7 252.1 617.8 261L626 258.9L623.9 233.1C695.4 237.1 767 236.2 839.5 229.8C849.7 228.9 857.5 220.6 857.5 210.5L856.8 109.1Z" fill="#011635" stroke="#011635" stroke-width="2.4" stroke-linecap="round" stroke-linejoin="round"/>
<path d="M854.5 81.9999C853.4 70.8999 844.4 62.0999 833.3 60.9999C744.2 51.8999 655 50.7999 566.3 56.8999C554.9 57.6999 545.7 66.4999 544.3 77.8999C539.4 117.7 540.2 157.6 544.7 198.7C546 210 555 218.8 566.3 219.8C580.167 221.067 594.033 222.133 607.9 223C612.8 234.6 618.1 246.4 626 258.9C630.8 247.8 634.7 236.4 637.9 224.7C703.7 227.8 769.8 227.1 835.5 222.6C847.6 221.7 857.2 212 857.7 199.9C859.1 160.7 858.5 121.2 854.5 81.9999Z" fill="#FFE96B"/>
<path d="M857.7 199.9C858.3 183.6 858.5 167.2 858.3 150.9C840.5 165.7 801 191.7 735.6 199.5C662.3 208.2 576.9 194.2 543.6 187.8C543.933 191.4 544.3 195.033 544.7 198.7C546 210 555 218.8 566.3 219.8C580.167 221.067 594.033 222.133 607.9 223C612.8 234.6 618.1 246.4 626 258.9C630.8 247.8 634.7 236.4 637.9 224.7C703.7 227.8 769.8 227.1 835.5 222.6C847.6 221.7 857.2 212 857.7 199.9Z" fill="#FFD666"/>
<path d="M854.5 81.9999C853.4 70.8999 844.4 62.0999 833.3 60.9999C744.2 51.8999 655 50.7999 566.3 56.8999C554.9 57.6999 545.7 66.4999 544.3 77.8999C539.4 117.7 540.2 157.6 544.7 198.7C546 210 555 218.8 566.3 219.8C580.167 221.067 594.033 222.133 607.9 223C612.8 234.6 618.1 246.4 626 258.9C630.8 247.8 634.7 236.4 637.9 224.7C703.7 227.8 769.8 227.1 835.5 222.6C847.6 221.7 857.2 212 857.7 199.9C859.1 160.7 858.5 121.2 854.5 81.9999Z" stroke="#011635" stroke-width="2.4" stroke-linecap="round" stroke-linejoin="round"/>
<path d="M678 118.1C726.4 118.767 774.767 119.4 823.1 120" stroke="#011635" stroke-width="2.4" stroke-linecap="round" stroke-linejoin="round"/>
<path d="M675.5 146.3C725.367 146.633 775.233 147 825.1 147.4" stroke="#011635" stroke-width="2.4" stroke-linecap="round" stroke-linejoin="round"/>
<path d="M675.9 174.5C690.7 174.5 705.5 174.467 720.3 174.4" stroke="#011635" stroke-width="2.4" stroke-linecap="round" stroke-linejoin="round"/>
<path d="M632.1 107.2C648.5 120.3 651.7 147 638.8 163.5C625.9 180 599.3 183.4 582.6 170.7C566 158 562.3 131.4 574.8 114.6C587.4 97.7999 614.5 93.1999 632.1 107.2Z" fill="white"/>
<path d="M595.6 120C592.8 128 601 137.6 609.4 136C617.8 134.4 622 122.4 616.4 115.9C610.8 109.5 598.4 111.9 595.6 120Z" fill="#011635"/>
<path d="M582.6 170.7C598.3 182.7 623 180.3 636.5 166.1C632.2 156 622.3 148.2 611.3 147.1C597.9 145.8 584.3 154.4 579.2 167.7C580.267 168.767 581.4 169.767 582.6 170.7Z" fill="#011635"/>
<path d="M632.1 107.2C648.5 120.3 651.7 147 638.8 163.5C625.9 180 599.3 183.4 582.6 170.7C566 158 562.3 131.4 574.8 114.6C587.4 97.7999 614.5 93.1999 632.1 107.2Z" stroke="#011635" stroke-width="2.4" stroke-linecap="round" stroke-linejoin="round"/>
</svg>
