<svg width="89" height="89" viewBox="0 0 89 89" fill="none" xmlns="http://www.w3.org/2000/svg">
<path fill-rule="evenodd" clip-rule="evenodd" d="M0 5C0 2.23858 2.23857 0 4.99999 0H37.0278C39.7892 0 42.0278 2.23857 42.0278 5V24.6667C42.0278 27.4281 39.7892 29.6667 37.0278 29.6667H5C2.23858 29.6667 0 27.4281 0 24.6667V5ZM22.762 23.9981C22.2984 24.4618 21.6696 24.7222 21.0139 24.7222C20.3582 24.7222 19.7294 24.4618 19.2658 23.9981C18.8021 23.5345 18.5417 22.9057 18.5417 22.25C18.5417 21.5943 18.8021 20.9655 19.2658 20.5019C19.7294 20.0382 20.3582 19.7778 21.0139 19.7778C21.6696 19.7778 22.2984 20.0382 22.762 20.5019C23.2256 20.9655 23.4861 21.5943 23.4861 22.25C23.4861 22.9057 23.2256 23.5345 22.762 23.9981ZM19.2658 5.66854C18.8021 6.13217 18.5417 6.76099 18.5417 7.41667V14.8333C18.5417 15.489 18.8021 16.1178 19.2658 16.5815C19.7294 17.0451 20.3582 17.3056 21.0139 17.3056C21.6696 17.3056 22.2984 17.0451 22.762 16.5815C23.2256 16.1178 23.4861 15.489 23.4861 14.8333V7.41667C23.4861 6.76099 23.2256 6.13217 22.762 5.66854C22.2984 5.20491 21.6696 4.94444 21.0139 4.94444C20.3582 4.94444 19.7294 5.20491 19.2658 5.66854ZM5 34.6111C2.23858 34.6111 0 36.8497 0 39.6111V59.2778C0 62.0392 2.23857 64.2778 5 64.2778H24.0444C27.2001 64.2778 29.4281 61.052 29.7312 57.9109V57.9109C29.939 55.7572 30.6152 53.675 31.7126 51.8103C32.81 49.9455 34.3019 48.3433 36.0838 47.116C36.7005 46.6912 37.3468 46.3148 38.0168 45.9893C40.2114 44.9232 42.0278 42.9193 42.0278 40.4794V39.6111C42.0278 36.8497 39.7892 34.6111 37.0278 34.6111H5ZM9.88889 42.0278C8.52352 42.0278 7.41667 43.1346 7.41667 44.5V44.5C7.41667 45.8654 8.52352 46.9722 9.88889 46.9722V46.9722C11.2543 46.9722 12.3611 45.8654 12.3611 44.5V44.5C12.3611 43.1346 11.2543 42.0278 9.88889 42.0278V42.0278ZM9.88889 56.8611C8.52352 56.8611 7.41667 55.7543 7.41667 54.3889V54.3889C7.41667 53.0235 8.52352 51.9167 9.88889 51.9167V51.9167C11.2543 51.9167 12.3611 53.0235 12.3611 54.3889V54.3889C12.3611 55.7543 11.2543 56.8611 9.88889 56.8611V56.8611ZM19.7778 42.0278C18.4124 42.0278 17.3056 43.1346 17.3056 44.5V44.5C17.3056 45.8654 18.4124 46.9722 19.7778 46.9722V46.9722C21.1431 46.9722 22.25 45.8654 22.25 44.5V44.5C22.25 43.1346 21.1431 42.0278 19.7778 42.0278V42.0278ZM19.7778 56.8611C18.4124 56.8611 17.3056 55.7543 17.3056 54.3889V54.3889C17.3056 53.0235 18.4124 51.9167 19.7778 51.9167V51.9167C21.1431 51.9167 22.25 53.0235 22.25 54.3889V54.3889C22.25 55.7543 21.1431 56.8611 19.7778 56.8611V56.8611ZM29.6667 42.0278C28.3013 42.0278 27.1944 43.1346 27.1944 44.5V44.5C27.1944 45.8654 28.3013 46.9722 29.6667 46.9722V46.9722C31.032 46.9722 32.1389 45.8654 32.1389 44.5V44.5C32.1389 43.1346 31.032 42.0278 29.6667 42.0278V42.0278ZM63.5303 64.2778C61.0694 64.2778 59.3358 61.7942 59.3333 59.3333V59.3333C59.3333 53.468 55.9295 48.3977 50.9888 45.9907C48.7932 44.9211 46.9722 42.9162 46.9722 40.474V39.6111C46.9722 36.8497 49.2108 34.6111 51.9722 34.6111H84C86.7614 34.6111 89 36.8497 89 39.6111V59.2778C89 62.0392 86.7614 64.2778 84 64.2778H63.5303ZM81.5833 46.9722H64.2778C63.6221 46.9722 62.9933 46.7118 62.5296 46.2481C62.066 45.7845 61.8056 45.1557 61.8056 44.5C61.8056 43.8443 62.066 43.2155 62.5296 42.7519C62.9933 42.2882 63.6221 42.0278 64.2778 42.0278H81.5833C82.239 42.0278 82.8678 42.2882 83.3315 42.7519C83.7951 43.2155 84.0556 43.8443 84.0556 44.5C84.0556 45.1557 83.7951 45.7845 83.3315 46.2481C82.8678 46.7118 82.239 46.9722 81.5833 46.9722ZM65.0019 56.137C64.5382 55.6734 64.2778 55.0446 64.2778 54.3889C64.2778 53.7332 64.5382 53.1044 65.0019 52.6408C65.4655 52.1771 66.0943 51.9167 66.75 51.9167H81.5833C82.239 51.9167 82.8678 52.1771 83.3315 52.6408C83.7951 53.1044 84.0556 53.7332 84.0556 54.3889C84.0556 55.0446 83.7951 55.6734 83.3315 56.137C82.8678 56.6006 82.239 56.8611 81.5833 56.8611H66.75C66.0943 56.8611 65.4655 56.6006 65.0019 56.137Z" fill="#2C2E35"/>
<path fill-rule="evenodd" clip-rule="evenodd" d="M89 5C89 2.23857 86.7614 0 84 0H51.9722C49.2108 0 46.9722 2.23858 46.9722 5V24.6667C46.9722 27.4281 49.2108 29.6667 51.9722 29.6667H84C86.7614 29.6667 89 27.4281 89 24.6667V5ZM67.3681 18.9471C69.0748 20.6538 71.8419 20.6538 73.5486 18.9471L82.8194 9.67628C83.7848 8.71096 83.7848 7.14587 82.8194 6.18055V6.18055C81.8541 5.21524 80.289 5.21524 79.3237 6.18056L73.5486 11.9557C71.8419 13.6624 69.0748 13.6624 67.3681 11.9557V11.9557C65.6613 10.249 62.8942 10.249 61.1875 11.9557L56.8611 16.2821C55.8958 17.2474 55.8958 18.8125 56.8611 19.7778V19.7778C57.8264 20.7431 59.3915 20.7431 60.3568 19.7778L61.4434 18.6912C63.0088 17.1258 65.5468 17.1258 67.1122 18.6912L67.3681 18.9471Z" fill="#2C2E35"/>
<path d="M21.0139 24.7222C21.6696 24.7222 22.2984 24.4618 22.762 23.9981C23.2256 23.5345 23.4861 22.9057 23.4861 22.25C23.4861 21.5943 23.2256 20.9655 22.762 20.5019C22.2984 20.0382 21.6696 19.7778 21.0139 19.7778C20.3582 19.7778 19.7294 20.0382 19.2658 20.5019C18.8021 20.9655 18.5417 21.5943 18.5417 22.25C18.5417 22.9057 18.8021 23.5345 19.2658 23.9981C19.7294 24.4618 20.3582 24.7222 21.0139 24.7222Z" fill="#FFCE28"/>
<path d="M29.6667 46.9722C28.3013 46.9722 27.1944 45.8654 27.1944 44.5V44.5C27.1944 43.1346 28.3013 42.0278 29.6667 42.0278V42.0278C31.032 42.0278 32.1389 43.1346 32.1389 44.5V44.5C32.1389 45.8654 31.032 46.9722 29.6667 46.9722V46.9722Z" fill="#FFCE28"/>
<path d="M19.7778 46.9722C18.4124 46.9722 17.3056 45.8654 17.3056 44.5V44.5C17.3056 43.1346 18.4124 42.0278 19.7778 42.0278V42.0278C21.1431 42.0278 22.25 43.1346 22.25 44.5V44.5C22.25 45.8654 21.1431 46.9722 19.7778 46.9722V46.9722Z" fill="#FFCE28"/>
<path d="M9.88889 46.9722C8.52352 46.9722 7.41667 45.8654 7.41667 44.5V44.5C7.41667 43.1346 8.52352 42.0278 9.88889 42.0278V42.0278C11.2543 42.0278 12.3611 43.1346 12.3611 44.5V44.5C12.3611 45.8654 11.2543 46.9722 9.88889 46.9722V46.9722Z" fill="#FFCE28"/>
<path d="M9.88889 51.9167C8.52352 51.9167 7.41667 53.0235 7.41667 54.3889V54.3889C7.41667 55.7543 8.52352 56.8611 9.88889 56.8611V56.8611C11.2543 56.8611 12.3611 55.7543 12.3611 54.3889V54.3889C12.3611 53.0235 11.2543 51.9167 9.88889 51.9167V51.9167Z" fill="#FFCE28"/>
<path d="M19.7778 51.9167C18.4124 51.9167 17.3056 53.0235 17.3056 54.3889V54.3889C17.3056 55.7543 18.4124 56.8611 19.7778 56.8611V56.8611C21.1431 56.8611 22.25 55.7543 22.25 54.3889V54.3889C22.25 53.0235 21.1431 51.9167 19.7778 51.9167V51.9167Z" fill="#FFCE28"/>
<path d="M64.2778 46.9722H81.5833C82.239 46.9722 82.8678 46.7118 83.3315 46.2481C83.7951 45.7845 84.0556 45.1557 84.0556 44.5C84.0556 43.8443 83.7951 43.2155 83.3315 42.7519C82.8678 42.2882 82.239 42.0278 81.5833 42.0278H64.2778C63.6221 42.0278 62.9933 42.2882 62.5296 42.7519C62.066 43.2155 61.8056 43.8443 61.8056 44.5C61.8056 45.1557 62.066 45.7845 62.5296 46.2481C62.9933 46.7118 63.6221 46.9722 64.2778 46.9722Z" fill="#FFCE28"/>
<path fill-rule="evenodd" clip-rule="evenodd" d="M33.0985 73.0798C36.838 72.2078 40.661 71.7436 44.5004 71.6953C48.3399 71.7436 52.1629 72.2078 55.9023 73.0798C57.7911 73.5371 59.6626 74.1478 61.1212 74.9611C62.3968 75.6781 64.2782 77.0724 64.2782 79.4111V89.0009H24.7227V79.4136C24.7227 77.0724 26.604 75.6781 27.8797 74.9636C29.3383 74.1478 31.2098 73.5371 33.0985 73.0798Z" fill="#2C2E35"/>
<path d="M54.3893 59.3342C54.3893 61.9569 53.3475 64.4722 51.4929 66.3267C49.6384 68.1812 47.1231 69.2231 44.5004 69.2231C41.8777 69.2231 39.3625 68.1812 37.5079 66.3267C35.6534 64.4722 34.6115 61.9569 34.6115 59.3342C34.6115 56.7115 35.6534 54.1962 37.5079 52.3417C39.3625 50.4872 41.8777 49.4453 44.5004 49.4453C47.1231 49.4453 49.6384 50.4872 51.4929 52.3417C53.3475 54.1962 54.3893 56.7115 54.3893 59.3342Z" fill="#FFCE28"/>
</svg>
