<svg width="18" height="32" viewBox="0 0 18 32" fill="none" xmlns="http://www.w3.org/2000/svg">
<path d="M3.64642 31.3536C3.84168 31.5488 4.15826 31.5488 4.35352 31.3536L7.5355 28.1716C7.73076 27.9763 7.73076 27.6597 7.5355 27.4645C7.34024 27.2692 7.02366 27.2692 6.8284 27.4645L3.99997 30.2929L1.17154 27.4645C0.976285 27.2692 0.659702 27.2692 0.46444 27.4645C0.269178 27.6597 0.269178 27.9763 0.46444 28.1716L3.64642 31.3536ZM3.49997 1.00001L3.49997 31H4.49997L4.49997 1.00001L3.49997 1.00001Z" fill="#333333"/>
<path d="M14.3536 0.646455C14.1583 0.451192 13.8417 0.451192 13.6464 0.646455L10.4645 3.82844C10.2692 4.0237 10.2692 4.34028 10.4645 4.53554C10.6597 4.7308 10.9763 4.7308 11.1716 4.53554L14 1.70712L16.8284 4.53554C17.0237 4.73081 17.3403 4.73081 17.5355 4.53554C17.7308 4.34028 17.7308 4.0237 17.5355 3.82844L14.3536 0.646455ZM14.5 31V1.00001H13.5V31H14.5Z" fill="#333333"/>
</svg>
