<svg width="1170" height="256" viewBox="0 0 1170 256" fill="none" xmlns="http://www.w3.org/2000/svg">
<g clip-path="url(#clip0_163_785)">
<path d="M1141 0H29C12.9837 0 0 12.9837 0 29V227C0 243.016 12.9837 256 29 256H1141C1157.02 256 1170 243.016 1170 227V29C1170 12.9837 1157.02 0 1141 0Z" fill="#FFCE28" fill-opacity="0.3"/>
<mask id="mask0_163_785" style="mask-type:luminance" maskUnits="userSpaceOnUse" x="0" y="0" width="1170" height="256">
<path d="M1141 0H29C12.9837 0 0 12.9837 0 29V227C0 243.016 12.9837 256 29 256H1141C1157.02 256 1170 243.016 1170 227V29C1170 12.9837 1157.02 0 1141 0Z" fill="white"/>
</mask>
<g mask="url(#mask0_163_785)">
<path d="M0 106.438L9.75 120.715C19.5 134.992 39 163.546 58.5 144.54C78 125.177 97.5 59.146 117 44.601C136.5 30.592 156 68.069 175.5 82.614C195 96.623 214.5 87.7 234 82.614C253.5 77.885 273 77.885 292.5 68.337C312 59.146 331.5 39.515 351 63.608C370.5 87.701 390 153.731 409.5 187.371C429 220.654 448.5 220.654 468 192.1C487.5 163.546 507 106.438 526.5 77.884C546 49.33 565.5 49.33 585 39.784C604.5 30.593 624 10.962 643.5 35.055C663 59.148 682.5 125.179 702 158.819C721.5 192.102 741 192.102 760.5 163.548C780 134.994 799.5 77.886 819 58.88C838.5 39.517 858 59.148 877.5 87.434C897 116.256 916.5 153.734 936 182.555C955.5 210.841 975 230.472 994.5 196.832C1014 163.549 1033.5 77.887 1053 68.339C1072.5 59.148 1092 125.179 1111.5 125.447C1131 125.179 1150.5 59.147 1160.25 25.508L1170 -7.77803V-36.332H0V106.438Z" fill="url(#paint0_linear_163_785)" fill-opacity="0.5"/>
</g>
</g>
<defs>
<linearGradient id="paint0_linear_163_785" x1="585" y1="-36.332" x2="585" y2="214.556" gradientUnits="userSpaceOnUse">
<stop stop-color="#FFCE28"/>
<stop offset="1" stop-color="#FFE899"/>
</linearGradient>
<clipPath id="clip0_163_785">
<rect width="1170" height="256" fill="white"/>
</clipPath>
</defs>
</svg>
