<svg width="44" height="45" viewBox="0 0 44 45" fill="none" xmlns="http://www.w3.org/2000/svg">
<g clip-path="url(#clip0_1351_139)">
<path d="M25.1296 36.8501C32.0277 36.8501 37.6196 31.2582 37.6196 24.3601C37.6196 17.4621 32.0277 11.8701 25.1296 11.8701C18.2316 11.8701 12.6396 17.4621 12.6396 24.3601C12.6396 31.2582 18.2316 36.8501 25.1296 36.8501Z" fill="white"/>
<path d="M33.1199 22.0693C33.0836 25.1381 31.8491 28.0712 29.6799 30.2422C27.5107 32.4133 24.5787 33.6504 21.5099 33.6893C18.437 33.6606 15.498 32.4271 13.325 30.2542C11.1521 28.0812 9.91861 25.1422 9.88992 22.0693C9.97859 19.0478 11.2412 16.1798 13.4097 14.0739C15.5783 11.9681 18.4821 10.7901 21.5049 10.7901C24.5277 10.7901 27.4315 11.9681 29.6001 14.0739C31.7687 16.1798 33.0313 19.0478 33.1199 22.0693C33.1199 22.2523 33.1926 22.4278 33.322 22.5572C33.4514 22.6866 33.6269 22.7593 33.8099 22.7593C33.9929 22.7593 34.1684 22.6866 34.2978 22.5572C34.4272 22.4278 34.4999 22.2523 34.4999 22.0693C34.467 19.181 33.4863 16.3835 31.7084 14.107C29.9306 11.8305 27.4541 10.2011 24.6599 9.46928C21.8357 8.7829 18.8628 9.06275 16.2163 10.2641C13.5698 11.4655 11.4021 13.5192 10.0597 16.097C8.7172 18.6749 8.27733 21.6283 8.8103 24.4854C9.34327 27.3426 10.8183 29.9388 12.9999 31.8593C14.8815 33.4853 17.1899 34.5375 19.6514 34.8911C22.1129 35.2447 24.6241 34.8849 26.8873 33.8544C29.1505 32.8238 31.0706 31.1658 32.4199 29.0769C33.7692 26.9881 34.4911 24.556 34.4999 22.0693C34.4999 21.8863 34.4272 21.7108 34.2978 21.5814C34.1684 21.452 33.9929 21.3793 33.8099 21.3793C33.6269 21.3793 33.4514 21.452 33.322 21.5814C33.1926 21.7108 33.1199 21.8863 33.1199 22.0693Z" fill="#2C2E35"/>
<path d="M4.32007 9.19951L9.90007 13.6795C10.5801 14.2295 11.5601 13.2595 10.9001 12.6795L5.29007 8.22951C4.61007 7.67951 3.63007 8.64951 4.29007 9.22951L4.32007 9.19951Z" fill="#2C2E35"/>
<path d="M15.9996 8.76015L12.8296 2.43015C12.4296 1.64015 11.2396 2.34015 11.6396 3.12015L14.8596 9.45015C15.2596 10.2401 16.4396 9.55015 16.0396 8.76015H15.9996Z" fill="#2C2E35"/>
<path d="M0.859962 27.4594L7.92996 25.8394C8.78996 25.6494 8.41996 24.3194 7.55996 24.5194L0.489962 26.1294C-0.370038 26.3294 -3.82662e-05 27.6494 0.859962 27.4594Z" fill="#2C2E35"/>
<path d="M7.90042 18.23L0.90042 16.62C0.000419736 16.42 -0.36958 17.75 0.49042 17.94L7.49042 19.55C8.36042 19.75 8.72042 18.42 7.86042 18.23H7.90042Z" fill="#2C2E35"/>
<path d="M20.8203 0.659727V8.10973C20.8203 8.29273 20.893 8.46823 21.0224 8.59763C21.1518 8.72703 21.3273 8.79973 21.5103 8.79973C21.6933 8.79973 21.8688 8.72703 21.9982 8.59763C22.1276 8.46823 22.2003 8.29273 22.2003 8.10973V0.659727C22.2003 0.476727 22.1276 0.301223 21.9982 0.171823C21.8688 0.0424228 21.6933 -0.0302734 21.5103 -0.0302734C21.3273 -0.0302734 21.1518 0.0424228 21.0224 0.171823C20.893 0.301223 20.8203 0.476727 20.8203 0.659727Z" fill="#2C2E35"/>
<path d="M28.3296 9.44975C29.3496 7.34308 30.3663 5.23308 31.3796 3.11975C31.7596 2.32975 30.5796 1.62975 30.1896 2.42975L27.1896 8.75975C26.8096 9.54975 27.9897 10.2497 28.3697 9.44975H28.3296Z" fill="#2C2E35"/>
<path d="M5.29 35.8495L10.87 31.3995C11.56 30.8495 10.58 29.8795 9.87 30.3995L4.32 34.8795C3.63 35.4295 4.61 36.3895 5.32 35.8795L5.29 35.8495Z" fill="#2C2E35"/>
<path d="M42.5303 26.1294L35.4603 24.5194C34.6003 24.3194 34.2303 25.6494 35.1003 25.8394L42.1703 27.4594C43.0303 27.6494 43.3903 26.3294 42.5303 26.1294Z" fill="#2C2E35"/>
<path d="M31.8496 31.1602L37.7296 35.8502C38.4196 36.3902 39.3996 35.4302 38.7296 34.8502L32.8496 30.1602C32.1696 29.6102 31.1896 30.5802 31.8496 31.1602Z" fill="#2C2E35"/>
<path d="M35.4603 19.56L42.5303 17.94C43.3903 17.75 43.0303 16.42 42.1703 16.62L35.1003 18.23C34.2303 18.43 34.6003 19.76 35.4603 19.56Z" fill="#2C2E35"/>
<path d="M37.7304 8.22926L32.1204 12.7093C31.4204 13.2593 32.4004 14.2293 33.1204 13.7093L38.7004 9.19926C39.4004 8.64926 38.4204 7.67926 37.7004 8.19926L37.7304 8.22926Z" fill="#2C2E35"/>
<path d="M31.3797 41.0001L28.1697 34.3301C27.7797 33.5301 26.5997 34.2301 26.9797 35.0201L30.1897 41.7001C30.5797 42.4901 31.7597 41.8001 31.3797 41.0001Z" fill="#2C2E35"/>
<path d="M20.8203 36.0494V43.4094C20.8203 43.5924 20.893 43.7679 21.0224 43.8973C21.1518 44.0267 21.3273 44.0994 21.5103 44.0994C21.6933 44.0994 21.8688 44.0267 21.9982 43.8973C22.1276 43.7679 22.2003 43.5924 22.2003 43.4094V36.0494C22.2003 35.8664 22.1276 35.6909 21.9982 35.5615C21.8688 35.4321 21.6933 35.3594 21.5103 35.3594C21.3273 35.3594 21.1518 35.4321 21.0224 35.5615C20.893 35.6909 20.8203 35.8664 20.8203 36.0494Z" fill="#2C2E35"/>
<path d="M12.8296 41.6493L15.9996 35.2793C16.3996 34.4993 15.2196 33.7993 14.8196 34.5893L11.6396 40.9993C11.2396 41.7893 12.4296 42.4893 12.8296 41.6993V41.6493Z" fill="#2C2E35"/>
<g opacity="0.3">
<path d="M27.6401 32.7694C33.6103 32.7694 38.4501 27.9296 38.4501 21.9594C38.4501 15.9892 33.6103 11.1494 27.6401 11.1494C21.6699 11.1494 16.8301 15.9892 16.8301 21.9594C16.8301 27.9296 21.6699 32.7694 27.6401 32.7694Z" fill="#FFCE28"/>
</g>
</g>
<defs>
<clipPath id="clip0_1351_139">
<rect width="43.02" height="44.08" fill="white"/>
</clipPath>
</defs>
</svg>
