<svg width="70" height="61" viewBox="0 0 70 61" fill="none" xmlns="http://www.w3.org/2000/svg">
<g clip-path="url(#clip0_704_1062)">
<path d="M63.5075 18.9449L68.978 13.4744L64.029 8.52539L58.051 14.4999C54.376 12.2949 50.092 10.9999 45.5 10.9999C31.9935 10.9999 21 21.9899 21 35.4999C21 49.0099 31.9935 59.9999 45.5 59.9999C59.0065 59.9999 70 49.0099 70 35.4999C69.9972 29.361 67.6787 23.4491 63.5075 18.9449ZM45.5 52.9999C35.8505 52.9999 28 45.1494 28 35.4999C28 25.8504 35.8505 17.9999 45.5 17.9999C55.1495 17.9999 63 25.8504 63 35.4999C63 45.1494 55.1495 52.9999 45.5 52.9999Z" fill="#2C2E35"/>
<path d="M42 25H49V39H42V25ZM38.5 0.5H52.5V7.5H38.5V0.5Z" fill="#2C2E35"/>
<path d="M3.5 21.5H17.5M0 35.5H14M3.5 49.5H17.5" stroke="#FFCE28" stroke-width="7"/>
</g>
<defs>
<clipPath id="clip0_704_1062">
<rect width="70" height="60" fill="white" transform="translate(0 0.5)"/>
</clipPath>
</defs>
</svg>
