<svg width="25" height="22" viewBox="0 0 25 22" fill="none" xmlns="http://www.w3.org/2000/svg">
<g clip-path="url(#clip0_536_2002)">
<path d="M22.6813 6.58747L24.635 4.63371L22.8675 2.86621L20.7325 4.99997C19.42 4.21246 17.89 3.74996 16.25 3.74996C11.4263 3.74996 7.5 7.67497 7.5 12.5C7.5 17.325 11.4263 21.25 16.25 21.25C21.0738 21.25 25 17.325 25 12.5C24.999 10.3075 24.171 8.19611 22.6813 6.58747ZM16.25 18.75C12.8038 18.75 10 15.9462 10 12.5C10 9.05372 12.8038 6.24997 16.25 6.24997C19.6963 6.24997 22.5 9.05372 22.5 12.5C22.5 15.9462 19.6963 18.75 16.25 18.75Z" fill="#2C2E35"/>
<path d="M15 8.75H17.5V13.75H15V8.75ZM13.75 0H18.75V2.5H13.75V0Z" fill="#FFCE28"/>
<path d="M1.25 7.5H6.25M0 12.5H5M1.25 17.5H6.25" stroke="#FFCE28" stroke-width="2"/>
</g>
<defs>
<clipPath id="clip0_536_2002">
<rect width="25" height="21.4286" fill="white"/>
</clipPath>
</defs>
</svg>
