<svg width="100" height="100" viewBox="0 0 100 100" fill="none" xmlns="http://www.w3.org/2000/svg">
<path fill-rule="evenodd" clip-rule="evenodd" d="M80.8193 32.8217L80.1801 20.7344C80.0597 18.4664 79.6846 16.4246 78.0785 14.8187C76.4728 13.2128 74.4312 12.8374 72.163 12.7174L51.3375 11.6158C50.5089 11.5721 49.7789 11.8521 49.192 12.4389L5.33241 56.2987C4.233 57.3981 4.233 59.1917 5.33241 60.2911L32.6063 87.5652C33.7059 88.6646 35.4995 88.6648 36.5989 87.5652L48.8901 75.274C49.5022 74.6619 50.4961 74.6619 51.1085 75.274C51.7206 75.8862 51.7206 76.8801 51.1085 77.4923L38.8173 89.7834C36.4961 92.1048 32.7097 92.1048 30.3881 89.7838L3.11378 62.5093C0.792802 60.1879 0.792802 56.4019 3.11378 54.0805L46.9736 10.2205C48.2126 8.98147 49.7536 8.39049 51.5032 8.48304L72.3289 9.58441C74.9065 9.72089 77.2263 10.2154 79.1922 11.6523C80.4497 11.3885 81.7716 11.2476 83.1356 11.2476C91.7842 11.2476 98.6267 16.933 98.6267 23.6844C98.6267 30.1734 92.305 35.6783 84.1342 36.0958L84.4144 41.3944C84.4601 42.2589 83.7954 42.9979 82.9308 43.0436C82.0661 43.0893 81.3273 42.4246 81.2814 41.5601L80.9875 36.0027C76.2257 35.4715 72.1967 33.2003 69.8493 30.0595C69.6401 30.0801 69.4277 30.0907 69.2132 30.0907C65.6748 30.0907 62.8067 27.2225 62.8067 23.6844C62.8067 20.1468 65.6748 17.2783 69.2132 17.2783C72.7512 17.2783 75.6193 20.1464 75.6193 23.6844C75.6193 25.8487 74.5461 27.7623 72.9028 28.9221C74.7208 30.9342 77.5579 32.3585 80.8193 32.8217ZM81.7324 14.4446C82.7979 16.2442 83.193 18.3074 83.3128 20.5683L83.9685 32.9632C90.3248 32.646 95.4895 28.7209 95.4895 23.6844C95.4895 18.4293 89.8673 14.3848 83.1356 14.3848C82.6614 14.3848 82.1932 14.405 81.7324 14.4446ZM71.2463 26.2442C71.9995 25.6454 72.4822 24.7213 72.4822 23.6844C72.4822 21.8791 71.0185 20.4156 69.2132 20.4156C67.4075 20.4156 65.944 21.8791 65.944 23.6844C65.944 25.1109 66.8575 26.324 68.1318 26.7703C67.8134 25.7799 67.6444 24.7454 67.6444 23.6846C67.6442 22.8187 68.3471 22.116 69.2128 22.1158C70.0785 22.1158 70.7814 22.8187 70.7814 23.6844C70.7816 24.5774 70.944 25.4352 71.2463 26.2442ZM53.1218 66.3654C50.8124 67.3703 48.2665 67.9279 45.5952 67.9279C35.1552 67.9279 26.6359 59.4087 26.6359 48.9687C26.6359 38.5287 35.1552 30.0095 45.5952 30.0095C54.314 30.0095 61.6932 35.9517 63.8893 43.9921C66.2246 42.2346 69.1105 41.1928 72.2228 41.1928C79.9328 41.1928 86.2483 47.5856 86.2483 55.4121V59.1564H87.4759C89.5914 59.1564 91.3185 60.895 91.3185 63.0334V87.6489C91.3185 89.7962 89.5914 91.5258 87.4759 91.5258H56.9697C54.8554 91.5258 53.1218 89.7952 53.1218 87.6489V66.3654ZM61.2383 46.5915C60.0856 38.9991 53.4999 33.1468 45.5952 33.1468C36.8828 33.1468 29.7732 40.2564 29.7732 48.9687C29.7732 57.6811 36.8828 64.7907 45.5952 64.7907C48.3177 64.7907 50.8838 64.0962 53.125 62.8752C53.2081 60.8109 54.9077 59.1564 56.9697 59.1564H58.1922V55.4121C58.1922 52.086 59.3338 49.0189 61.2383 46.5915ZM83.111 59.1564V55.4121C83.111 49.324 78.2201 44.3301 72.2228 44.3301C66.2254 44.3301 61.3295 49.3238 61.3295 55.4121V59.1564H63.9008V55.4121C63.9008 50.7793 67.6656 46.9827 72.2228 46.9827C76.7801 46.9827 80.5448 50.7793 80.5448 55.4121V59.1564H83.111ZM67.0381 59.1564H77.4075V55.4121C77.4075 52.5144 75.0732 50.1199 72.2228 50.1199C69.3724 50.1199 67.0381 52.5144 67.0381 55.4121V59.1564ZM56.9697 62.2936C56.5726 62.2936 56.2591 62.6321 56.2591 63.0334V87.6489C56.2591 88.0519 56.5726 88.3885 56.9697 88.3885H87.4759C87.872 88.3885 88.1812 88.0509 88.1812 87.6489V63.0334C88.1812 62.633 87.872 62.2936 87.4759 62.2936H56.9697ZM65.0889 76.0872C64.4767 75.475 64.4767 74.4811 65.0889 73.8689C65.701 73.2568 66.6952 73.2568 67.3073 73.8689L70.455 77.0166L77.1332 70.3381C77.7454 69.726 78.7395 69.726 79.3516 70.3381C79.9638 70.9503 79.9638 71.9444 79.3516 72.5566L71.564 80.344C70.9514 80.9566 69.9583 80.9566 69.3457 80.344L65.0889 76.0872ZM44.0265 39.0236V37.9623C44.0265 37.0966 44.7293 36.3936 45.5952 36.3936C46.4608 36.3936 47.1638 37.0966 47.1638 37.9623V39.0056C49.2414 39.4242 51.1734 40.7274 52.1606 43.0758C52.4961 43.8738 52.1204 44.7942 51.3224 45.1297C50.5244 45.4652 49.604 45.0897 49.2685 44.2915C48.3238 42.0444 45.8083 41.583 44.0006 42.2946C42.9463 42.7097 42.1044 43.5623 42.164 44.8005C42.2116 45.7734 42.8381 46.3315 43.5885 46.6983C44.2901 47.0415 45.1012 47.2342 45.865 47.3599C48.9083 47.8577 52.2606 49.2305 52.7024 52.8487L52.7026 52.8509C53.1332 56.4174 50.1975 58.4474 47.1638 58.9556V59.9752C47.1638 60.8411 46.4608 61.5438 45.5952 61.5438C44.7293 61.5438 44.0265 60.8411 44.0265 59.9752V58.9328C41.4332 58.4448 39.1793 56.773 38.4952 54.0254C38.2859 53.1852 38.7983 52.3334 39.6383 52.1242C40.4785 51.915 41.3303 52.4274 41.5395 53.2674C42.0124 55.1672 43.9287 55.9878 45.7846 55.944C46.7775 55.9205 47.8826 55.6721 48.6969 55.1107C49.2901 54.7017 49.6916 54.0889 49.5881 53.2279C49.4544 52.1354 48.7124 51.5319 47.8467 51.1393C47.0683 50.7862 46.1852 50.5913 45.3585 50.456L45.3569 50.4558C42.3846 49.9664 39.2032 48.4868 39.0304 44.953V44.9523C38.9003 42.2579 40.5575 40.2785 42.8514 39.3754C43.2287 39.227 43.6226 39.1091 44.0265 39.0236Z" fill="black"/>
</svg>
