<svg width="100" height="100" viewBox="0 0 100 100" fill="none" xmlns="http://www.w3.org/2000/svg">
<path d="M25.5117 17.2402H28.7461V20.4746C28.7461 21.1211 29.2715 21.6465 29.918 21.6465H34.3242C34.9707 21.6465 35.4961 21.1211 35.4961 20.4746V17.2402H37.5586V20.4746C37.5586 21.1211 38.084 21.6465 38.7305 21.6465H43.1367C43.7832 21.6465 44.3086 21.1211 44.3086 20.4746V17.2402H47.543C48.1894 17.2402 48.7148 16.7148 48.7148 16.0684V11.6621C48.7148 11.0156 48.1894 10.4902 47.543 10.4902H43.1367C42.4902 10.4902 41.9648 11.0156 41.9648 11.6621V14.8965H39.9023V11.6621C39.9023 11.0156 39.3769 10.4902 38.7305 10.4902H34.3242C33.6777 10.4902 33.1523 11.0156 33.1523 11.6621V14.8965H31.0898V11.6621C31.0898 11.0156 30.5644 10.4902 29.918 10.4902H25.5117C24.8652 10.4902 24.3398 11.0156 24.3398 11.6621V16.0684C24.3398 16.7148 24.8633 17.2402 25.5117 17.2402ZM44.3086 12.834H46.3711V14.8965H44.3086V12.834ZM41.9648 19.3027H39.9023V17.2402H41.9648V19.3027ZM35.4961 12.834H37.5586V14.8965H35.4961V12.834ZM31.0898 17.2402H33.1523V19.3027H31.0898V17.2402ZM26.6836 12.834H28.7461V14.8965H26.6836V12.834ZM77.8496 64.6797C70.5879 64.6797 64.6797 70.5879 64.6797 77.8496C64.6797 85.1113 70.5879 91.0195 77.8496 91.0195C85.1113 91.0195 91.0195 85.1113 91.0195 77.8496C91.0195 70.5879 85.1113 64.6797 77.8496 64.6797ZM88.6758 77.8496C88.6758 79.373 88.3574 80.8223 87.7871 82.1387C85.3242 80.4414 81.7383 79.4531 77.8496 79.4531C73.9609 79.4531 70.373 80.4414 67.9121 82.1387C67.3418 80.8223 67.0234 79.373 67.0234 77.8496C67.0234 76.3262 67.3418 74.877 67.9121 73.5605C70.375 75.2578 73.9609 76.2461 77.8496 76.2461C81.7383 76.2461 85.3262 75.2578 87.789 73.5605C88.3574 74.877 88.6758 76.3262 88.6758 77.8496ZM77.8496 67.0234C81.457 67.0234 84.6543 68.7969 86.623 71.5176C84.5723 73.0039 81.3223 73.9023 77.8496 73.9023C74.3769 73.9023 71.1269 73.0039 69.0762 71.5176C71.0449 68.7969 74.2422 67.0234 77.8496 67.0234ZM69.0762 84.1816C70.8945 82.8652 73.6543 82.0117 76.6777 81.834V88.6094C73.5547 88.2734 70.8281 86.6035 69.0762 84.1816ZM79.0215 88.6113V81.8359C82.043 82.0137 84.8047 82.8652 86.623 84.1836C84.8711 86.6035 82.1445 88.2734 79.0215 88.6113ZM77.8496 58.6289C71.668 58.6289 66.1601 61.5625 62.6426 66.1094C60.8164 65.1582 58.5469 64.4824 55.5664 63.5957L55.2031 63.4883C54.4609 63.2676 53.7129 63.0312 52.9219 62.7793C50.4551 61.998 47.6992 61.125 44.4023 60.543V57.7109C48.6992 55.5586 52 51.7012 53.414 47.0332H54.2226C57.0254 47.0332 59.3047 44.7539 59.3047 41.9512C59.3047 40.1094 58.3203 38.4941 56.8496 37.6035L58.1973 29.7227H58.1953C58.207 29.6582 58.2129 29.5918 58.2129 29.5254V24.1621L60.7656 18.3652C62.1367 15.2539 60.9179 11.6797 57.9336 10.0527C57.8984 10.0332 57.8613 10.0156 57.8242 10L44.5019 4.45117C44.4902 4.44531 44.4785 4.44141 44.4668 4.4375C39.123 2.41406 33.9277 2.41406 28.582 4.4375C28.5703 4.44141 28.5586 4.44727 28.5469 4.45117L15.2285 10.002C15.1914 10.0176 15.1543 10.0352 15.1191 10.0547C12.1328 11.6816 10.916 15.2539 12.2851 18.3672L14.8379 24.1641V29.5273C14.8379 29.5957 14.8457 29.6602 14.8555 29.7246H14.8535L16.2012 37.6055C14.7305 38.4961 13.7461 40.1133 13.7461 41.9531C13.7461 44.7559 16.0254 47.0352 18.8281 47.0352H19.6367C21.0508 51.7031 24.3515 55.5605 28.6484 57.7129V60.5449C25.3515 61.1269 22.5957 62 20.1289 62.7812C19.3379 63.0312 18.5918 63.2676 17.8496 63.4883L17.4863 63.5957C11.6406 65.334 8.11326 66.3828 6.23045 70.2344C6.18162 70.334 6.14842 70.4395 6.12889 70.5469L2.9453 88.7793C2.8867 89.1211 2.98045 89.4707 3.20311 89.7344C3.42576 90 3.75389 90.1523 4.09959 90.1523H63.0937C66.623 94.3769 71.9258 97.0703 77.8476 97.0703C88.4453 97.0703 97.0683 88.4473 97.0683 77.8496C97.0683 67.252 88.4473 58.6289 77.8496 58.6289ZM43.1523 62.7109C44.7129 62.9531 46.1387 63.2637 47.4785 63.6113L43.0019 70.4355L38.3965 67.8125L43.1523 62.7109ZM55.8711 28.3535H17.1836V25.0879H55.8711V28.3535ZM21.1582 30.6973H51.9082C41.6992 34.9727 31.3926 34.9727 21.1582 30.6973ZM54.2246 44.6895H53.9531C54.0957 43.7891 54.1699 42.8672 54.1699 41.9277V39.2148H54.2246C55.7344 39.2148 56.9629 40.4434 56.9629 41.9531C56.9629 43.4629 55.7344 44.6895 54.2246 44.6895ZM54.2246 36.8711H54.1699V32.2715C54.6113 32.0703 55.0508 31.8633 55.4922 31.6465L54.5957 36.8848C54.4726 36.877 54.3496 36.8711 54.2246 36.8711ZM16.1894 12.1406L29.4336 6.62305C34.207 4.82031 38.8496 4.82031 43.623 6.62305L56.8672 12.1406C58.7363 13.1934 59.4941 15.4531 58.625 17.4219L56.2793 22.7441H16.7754L14.4297 17.4219C13.5625 15.4512 14.3183 13.1914 16.1894 12.1406ZM17.5625 31.6445C18.0039 31.8594 18.4433 32.0684 18.8847 32.2676V36.8711H18.8301C18.7051 36.8711 18.582 36.877 18.459 36.8867L17.5625 31.6445ZM18.8301 44.6895C17.3203 44.6895 16.0918 43.4609 16.0918 41.9512C16.0918 40.4414 17.3203 39.2129 18.8301 39.2129H18.8847V41.9258C18.8847 42.8652 18.959 43.7871 19.1015 44.6875H18.8301V44.6895ZM21.2285 41.9277V33.2617C26.3242 35.2676 31.4355 36.2715 36.543 36.2715C41.6465 36.2715 46.748 35.2695 51.8262 33.2695V41.9297C51.8262 50.3652 44.9629 57.2285 36.5273 57.2285C28.0918 57.2285 21.2285 50.3633 21.2285 41.9277ZM36.5273 59.5703C38.459 59.5703 40.3183 59.2578 42.0605 58.6816V60.4922C41.9863 60.541 41.9199 60.5996 41.8594 60.6641L36.5293 66.3809L31.1992 60.6641C31.1387 60.5996 31.0703 60.543 30.998 60.4922V58.6816C32.7363 59.2578 34.5957 59.5703 36.5273 59.5703ZM29.9023 62.7109L34.6582 67.8125L30.0527 70.4355L25.5762 63.6113C26.9179 63.2637 28.3418 62.9531 29.9023 62.7109ZM55.791 87.8086V79.5273C55.791 78.8809 55.2656 78.3555 54.6191 78.3555C53.9726 78.3555 53.4472 78.8809 53.4472 79.5273V87.8086H19.6074V79.5273C19.6074 78.8809 19.082 78.3555 18.4355 78.3555C17.789 78.3555 17.2637 78.8809 17.2637 79.5273V87.8086H5.49608L8.41014 71.1211C9.86912 68.3066 12.8379 67.4238 18.1582 65.8418L18.5215 65.7344C19.2832 65.5078 20.039 65.2676 20.8398 65.0137C21.6172 64.7676 22.4043 64.5195 23.2109 64.2754L28.6992 72.6406C28.9238 72.9824 29.2969 73.1699 29.6797 73.1699C29.8769 73.1699 30.0762 73.1211 30.2578 73.0156L36.5293 69.4453L42.8008 73.0156C42.9824 73.1191 43.1836 73.1699 43.3789 73.1699C43.7617 73.1699 44.1347 72.9824 44.3594 72.6406L49.8476 64.2754C50.6543 64.5176 51.4394 64.7656 52.2168 65.0117C53.0176 65.2656 53.7734 65.5059 54.5371 65.7324L54.9004 65.8398C57.6191 66.6484 59.7148 67.2734 61.3164 68.0605C59.6113 70.9297 58.6328 74.2754 58.6328 77.8476C58.6328 81.4902 59.6523 84.9004 61.4199 87.8066H55.791V87.8086ZM77.8496 94.7266C68.543 94.7266 60.9726 87.1562 60.9726 77.8496C60.9726 68.543 68.543 60.9727 77.8496 60.9727C87.1562 60.9727 94.7265 68.543 94.7265 77.8496C94.7265 87.1562 87.1562 94.7266 77.8496 94.7266Z" fill="black"/>
</svg>
